<svg id="svg" version="1.1" xmlns="http://www.w3.org/2000/svg" xmlns:xlink="http://www.w3.org/1999/xlink" width="400" height="300" viewBox="0, 0, 400,300"><g id="svgg"><path id="path0" d="M217.926 136.134 C 217.718 136.218,217.407 136.578,217.234 136.935 C 216.966 137.491,216.979 137.520,217.327 137.134 C 217.549 136.887,217.922 136.515,218.153 136.309 C 218.595 135.916,218.551 135.882,217.926 136.134 M214.925 139.135 C 214.717 139.218,214.406 139.579,214.234 139.936 C 213.965 140.492,213.979 140.521,214.326 140.135 C 214.549 139.887,214.921 139.516,215.153 139.310 C 215.594 138.916,215.551 138.883,214.925 139.135 M211.925 142.135 C 211.716 142.219,211.405 142.580,211.233 142.937 C 210.965 143.493,210.978 143.521,211.325 143.136 C 211.548 142.888,211.920 142.517,212.152 142.311 C 212.594 141.917,212.550 141.883,211.925 142.135 M208.924 145.136 C 208.716 145.220,208.404 145.581,208.232 145.938 C 207.964 146.494,207.977 146.522,208.324 146.137 C 208.547 145.889,208.919 145.518,209.151 145.311 C 209.593 144.918,209.549 144.884,208.924 145.136 M249.362 149.641 C 248.697 150.345,248.685 150.396,249.252 150.094 C 249.604 149.907,249.971 149.548,250.068 149.296 C 250.303 148.683,250.239 148.714,249.362 149.641 M246.362 152.642 C 245.696 153.346,245.684 153.397,246.251 153.095 C 246.603 152.908,246.970 152.549,247.067 152.296 C 247.302 151.683,247.238 151.715,246.362 152.642 M243.361 155.643 C 242.696 156.346,242.683 156.398,243.251 156.096 C 243.602 155.909,243.970 155.549,244.066 155.297 C 244.302 154.684,244.237 154.716,243.361 155.643 M240.360 158.643 C 239.695 159.347,239.682 159.399,240.250 159.097 C 240.602 158.910,240.969 158.550,241.066 158.298 C 241.301 157.685,241.236 157.717,240.360 158.643 M252.363 158.678 C 252.363 159.051,250.047 161.440,249.686 161.440 C 249.508 161.440,249.362 161.575,249.362 161.740 C 249.362 161.905,248.822 162.581,248.162 163.241 C 247.502 163.901,246.827 164.441,246.662 164.441 C 246.497 164.441,246.362 164.576,246.362 164.741 C 246.362 164.906,245.821 165.581,245.161 166.242 C 244.501 166.902,243.826 167.442,243.661 167.442 C 243.496 167.442,243.361 167.577,243.361 167.742 C 243.361 167.907,242.821 168.582,242.161 169.242 C 241.500 169.902,240.825 170.443,240.660 170.443 C 240.495 170.443,240.360 170.578,240.360 170.743 C 240.360 170.908,239.820 171.583,239.160 172.243 C 238.500 172.903,237.824 173.443,237.659 173.443 C 237.494 173.443,237.359 173.578,237.359 173.743 C 237.359 174.130,235.052 176.444,234.667 176.444 C 234.506 176.444,234.982 177.052,235.725 177.794 C 236.467 178.537,237.215 179.145,237.385 179.145 C 237.555 179.145,237.641 179.246,237.575 179.370 C 237.509 179.494,237.703 179.831,238.007 180.120 C 238.311 180.409,238.565 180.544,238.572 180.420 C 238.578 180.296,238.780 180.557,239.021 181.000 C 239.261 181.442,239.730 181.891,240.063 181.996 C 240.396 182.102,240.621 182.280,240.562 182.392 C 240.503 182.504,240.704 182.832,241.008 183.121 C 241.312 183.410,241.566 183.545,241.572 183.421 C 241.579 183.297,241.781 183.558,242.021 184.000 C 242.262 184.443,242.731 184.892,243.064 184.997 C 243.397 185.103,243.622 185.281,243.563 185.393 C 243.427 185.651,244.461 186.647,244.659 186.449 C 244.740 186.368,244.896 186.582,245.004 186.925 C 245.113 187.269,245.565 187.746,246.007 187.986 C 246.450 188.226,246.710 188.428,246.587 188.435 C 246.463 188.442,246.598 188.696,246.887 189.000 C 247.176 189.304,247.503 189.504,247.615 189.445 C 247.727 189.387,247.905 189.611,248.011 189.944 C 248.117 190.277,248.565 190.747,249.008 190.987 C 249.450 191.227,249.711 191.429,249.587 191.436 C 249.464 191.442,249.599 191.697,249.887 192.000 C 250.176 192.304,250.514 192.499,250.638 192.433 C 250.761 192.367,250.863 192.449,250.863 192.615 C 250.863 193.316,252.283 194.490,252.487 193.958 C 252.699 193.405,252.707 158.440,252.495 158.440 C 252.422 158.440,252.363 158.547,252.363 158.678 M237.359 161.644 C 236.694 162.348,236.682 162.399,237.249 162.097 C 237.601 161.910,237.968 161.551,238.065 161.299 C 238.300 160.686,238.236 160.717,237.359 161.644 M234.359 164.645 C 233.693 165.349,233.681 165.400,234.248 165.098 C 234.600 164.911,234.967 164.552,235.064 164.299 C 235.299 163.686,235.235 163.718,234.359 164.645 M231.358 167.646 C 230.693 168.349,230.680 168.401,231.248 168.099 C 231.599 167.912,231.967 167.552,232.063 167.300 C 232.299 166.687,232.234 166.719,231.358 167.646 " stroke="none" fill="#7b3c9c" fill-rule="evenodd"></path><path id="path1" d="M146.875 98.143 C 146.767 98.319,146.915 98.724,147.204 99.044 C 147.715 99.609,147.699 99.625,146.633 99.625 L 145.536 99.625 145.536 123.082 C 145.536 143.411,145.477 146.605,145.091 147.032 C 144.691 147.474,144.751 147.630,145.681 148.556 C 146.251 149.123,146.722 149.756,146.727 149.962 C 146.732 150.169,146.939 150.338,147.187 150.338 C 147.434 150.338,147.637 150.466,147.637 150.624 C 147.637 150.996,149.079 152.438,149.451 152.438 C 149.609 152.438,149.737 152.641,149.737 152.888 C 149.737 153.136,149.940 153.338,150.188 153.338 C 150.435 153.338,150.638 153.467,150.638 153.625 C 150.638 153.997,152.080 155.439,152.452 155.439 C 152.609 155.439,152.738 155.641,152.738 155.889 C 152.738 156.137,152.941 156.339,153.188 156.339 C 153.436 156.339,153.638 156.468,153.638 156.626 C 153.638 156.998,155.080 158.440,155.452 158.440 C 155.610 158.440,155.739 158.642,155.739 158.890 C 155.739 159.137,155.941 159.340,156.189 159.340 C 156.437 159.340,156.639 159.469,156.639 159.626 C 156.639 159.998,158.081 161.440,158.453 161.440 C 158.611 161.440,158.740 161.643,158.740 161.890 C 158.740 162.138,158.942 162.341,159.190 162.341 C 159.437 162.341,159.640 162.469,159.640 162.627 C 159.640 162.999,161.082 164.441,161.454 164.441 C 161.612 164.441,161.740 164.644,161.740 164.891 C 161.740 165.139,161.943 165.341,162.191 165.341 C 162.438 165.341,162.641 165.470,162.641 165.628 C 162.641 166.000,164.083 167.442,164.455 167.442 C 164.612 167.442,164.741 167.644,164.741 167.892 C 164.741 168.140,164.944 168.342,165.191 168.342 C 165.439 168.342,165.641 168.471,165.641 168.629 C 165.641 169.001,167.083 170.443,167.456 170.443 C 167.613 170.443,167.742 170.645,167.742 170.893 C 167.742 171.140,167.944 171.343,168.192 171.343 C 168.440 171.343,168.642 171.472,168.642 171.629 C 168.642 172.001,170.084 173.443,170.456 173.443 C 170.614 173.443,170.743 173.646,170.743 173.893 C 170.743 174.141,170.945 174.344,171.193 174.344 C 171.440 174.344,171.643 174.472,171.643 174.630 C 171.643 175.002,173.085 176.444,173.457 176.444 C 173.615 176.444,173.743 176.647,173.743 176.894 C 173.743 177.142,173.946 177.344,174.194 177.344 C 174.441 177.344,174.644 177.472,174.644 177.629 C 174.644 178.042,176.003 179.445,176.404 179.445 C 176.591 179.445,176.744 179.647,176.744 179.895 C 176.744 180.143,176.947 180.345,177.194 180.345 C 177.442 180.345,177.644 180.473,177.644 180.630 C 177.644 181.043,179.004 182.446,179.404 182.446 C 179.592 182.446,179.745 182.648,179.745 182.896 C 179.745 183.143,179.947 183.346,180.195 183.346 C 180.443 183.346,180.645 183.474,180.645 183.630 C 180.645 184.044,182.004 185.446,182.405 185.446 C 182.592 185.446,182.746 185.649,182.746 185.896 C 182.746 186.144,182.948 186.347,183.196 186.347 C 183.443 186.347,183.646 186.475,183.646 186.631 C 183.646 187.045,185.005 188.447,185.406 188.447 C 185.593 188.447,185.746 188.650,185.746 188.897 C 185.746 189.145,185.949 189.347,186.197 189.347 C 186.444 189.347,186.647 189.475,186.647 189.632 C 186.647 190.045,188.006 191.448,188.407 191.448 C 188.594 191.448,188.747 191.650,188.747 191.898 C 188.747 192.146,188.950 192.348,189.197 192.348 C 189.445 192.348,189.647 192.476,189.647 192.633 C 189.647 193.046,191.007 194.449,191.407 194.449 C 191.595 194.449,191.748 194.651,191.748 194.899 C 191.748 195.146,191.950 195.349,192.198 195.349 C 192.446 195.349,192.648 195.477,192.648 195.633 C 192.648 196.047,194.007 197.449,194.408 197.449 C 194.595 197.449,194.749 197.652,194.749 197.899 C 194.749 198.147,194.951 198.350,195.199 198.350 C 195.446 198.350,195.649 198.478,195.649 198.634 C 195.649 199.033,197.002 200.450,197.382 200.450 C 197.555 200.450,198.037 200.855,198.454 201.350 C 198.942 201.930,199.492 202.251,200.000 202.251 C 200.508 202.251,201.058 201.930,201.546 201.350 C 201.963 200.855,202.445 200.450,202.618 200.450 C 202.998 200.450,204.351 199.033,204.351 198.634 C 204.351 198.478,204.554 198.350,204.801 198.350 C 205.049 198.350,205.251 198.147,205.251 197.899 C 205.251 197.652,205.405 197.449,205.592 197.449 C 205.993 197.449,207.352 196.047,207.352 195.633 C 207.352 195.477,207.554 195.349,207.802 195.349 C 208.050 195.349,208.252 195.146,208.252 194.899 C 208.252 194.651,208.405 194.449,208.593 194.449 C 208.993 194.449,210.353 193.046,210.353 192.633 C 210.353 192.476,210.555 192.348,210.803 192.348 C 211.050 192.348,211.253 192.146,211.253 191.898 C 211.253 191.650,211.406 191.448,211.593 191.448 C 211.994 191.448,213.353 190.045,213.353 189.632 C 213.353 189.475,213.556 189.347,213.803 189.347 C 214.051 189.347,214.254 189.145,214.254 188.897 C 214.254 188.650,214.407 188.447,214.594 188.447 C 214.995 188.447,216.354 187.045,216.354 186.631 C 216.354 186.475,216.557 186.347,216.804 186.347 C 217.052 186.347,217.254 186.144,217.254 185.896 C 217.254 185.649,217.408 185.446,217.595 185.446 C 217.996 185.446,219.355 184.044,219.355 183.630 C 219.355 183.474,219.557 183.346,219.805 183.346 C 220.053 183.346,220.255 183.143,220.255 182.896 C 220.255 182.648,220.408 182.446,220.596 182.446 C 220.996 182.446,222.356 181.043,222.356 180.630 C 222.356 180.473,222.558 180.345,222.806 180.345 C 223.053 180.345,223.256 180.138,223.256 179.886 C 223.256 179.633,223.458 179.348,223.706 179.253 C 224.259 179.041,224.307 177.944,223.763 177.944 C 223.546 177.944,223.106 178.181,222.785 178.470 C 222.463 178.758,221.693 179.431,221.073 179.965 C 220.453 180.498,219.914 181.038,219.876 181.165 C 219.838 181.292,219.198 181.935,218.455 182.596 C 217.711 183.256,217.036 183.931,216.954 184.096 C 216.872 184.261,216.197 184.936,215.454 185.596 C 214.711 186.257,214.035 186.930,213.953 187.093 C 213.871 187.255,213.093 188.032,212.225 188.818 C 211.357 189.604,210.733 190.248,210.840 190.248 C 210.947 190.248,210.681 190.525,210.249 190.865 C 209.235 191.663,207.649 193.248,207.866 193.248 C 207.958 193.248,207.680 193.526,207.248 193.865 C 206.234 194.663,204.648 196.249,204.865 196.249 C 204.957 196.249,204.700 196.510,204.295 196.829 C 202.910 197.918,201.650 199.190,201.650 199.499 C 201.650 200.089,200.702 200.750,199.904 200.715 C 199.395 200.693,199.293 200.630,199.625 200.543 C 200.364 200.350,200.281 199.550,199.522 199.550 C 199.146 199.550,198.831 199.309,198.737 198.950 C 198.650 198.620,198.393 198.350,198.165 198.350 C 197.936 198.350,197.749 198.147,197.749 197.899 C 197.749 197.652,197.563 197.449,197.334 197.449 C 197.106 197.449,196.849 197.179,196.762 196.849 C 196.676 196.519,196.390 196.249,196.127 196.249 C 195.864 196.249,195.649 196.047,195.649 195.799 C 195.649 195.551,195.446 195.349,195.199 195.349 C 194.951 195.349,194.749 195.146,194.749 194.899 C 194.749 194.651,194.562 194.449,194.334 194.449 C 194.105 194.449,193.848 194.179,193.762 193.848 C 193.675 193.518,193.389 193.248,193.126 193.248 C 192.863 193.248,192.648 193.046,192.648 192.798 C 192.648 192.551,192.446 192.348,192.198 192.348 C 191.950 192.348,191.748 192.146,191.748 191.898 C 191.748 191.650,191.561 191.448,191.333 191.448 C 191.105 191.448,190.847 191.178,190.761 190.848 C 190.674 190.518,190.389 190.248,190.126 190.248 C 189.863 190.248,189.647 190.045,189.647 189.797 C 189.647 189.550,189.445 189.347,189.197 189.347 C 188.950 189.347,188.747 189.145,188.747 188.897 C 188.747 188.650,188.560 188.447,188.332 188.447 C 188.104 188.447,187.846 188.177,187.760 187.847 C 187.674 187.517,187.388 187.247,187.125 187.247 C 186.862 187.247,186.647 187.044,186.647 186.797 C 186.647 186.549,186.444 186.347,186.197 186.347 C 185.949 186.347,185.746 186.144,185.746 185.896 C 185.746 185.649,185.560 185.446,185.331 185.446 C 185.103 185.446,184.846 185.176,184.759 184.846 C 184.673 184.516,184.387 184.246,184.124 184.246 C 183.861 184.246,183.646 184.044,183.646 183.796 C 183.646 183.548,183.443 183.346,183.196 183.346 C 182.948 183.346,182.746 183.143,182.746 182.896 C 182.746 182.648,182.559 182.446,182.331 182.446 C 182.102 182.446,181.845 182.176,181.759 181.845 C 181.672 181.515,181.386 181.245,181.123 181.245 C 180.860 181.245,180.645 181.043,180.645 180.795 C 180.645 180.548,180.443 180.345,180.195 180.345 C 179.947 180.345,179.745 180.143,179.745 179.895 C 179.745 179.647,179.558 179.445,179.330 179.445 C 179.102 179.445,178.844 179.175,178.758 178.845 C 178.671 178.515,178.386 178.245,178.123 178.245 C 177.860 178.245,177.644 178.042,177.644 177.794 C 177.644 177.547,177.442 177.344,177.194 177.344 C 176.947 177.344,176.744 177.216,176.744 177.060 C 176.744 176.646,175.385 175.244,174.984 175.244 C 174.797 175.244,174.644 175.041,174.644 174.794 C 174.644 174.546,174.441 174.344,174.194 174.344 C 173.946 174.344,173.743 174.216,173.743 174.059 C 173.743 173.646,172.384 172.243,171.984 172.243 C 171.796 172.243,171.643 172.041,171.643 171.793 C 171.643 171.545,171.440 171.343,171.193 171.343 C 170.945 171.343,170.743 171.215,170.743 171.058 C 170.743 170.645,169.383 169.242,168.983 169.242 C 168.795 169.242,168.642 169.040,168.642 168.792 C 168.642 168.545,168.440 168.342,168.192 168.342 C 167.944 168.342,167.742 168.214,167.742 168.057 C 167.742 167.644,166.383 166.242,165.982 166.242 C 165.795 166.242,165.641 166.039,165.641 165.791 C 165.641 165.544,165.439 165.341,165.191 165.341 C 164.944 165.341,164.741 165.213,164.741 165.057 C 164.741 164.643,163.382 163.241,162.981 163.241 C 162.794 163.241,162.641 163.038,162.641 162.791 C 162.641 162.543,162.438 162.341,162.191 162.341 C 161.943 162.341,161.740 162.213,161.740 162.056 C 161.740 161.643,160.381 160.240,159.981 160.240 C 159.793 160.240,159.640 160.038,159.640 159.790 C 159.640 159.542,159.437 159.340,159.190 159.340 C 158.942 159.340,158.740 159.212,158.740 159.055 C 158.740 158.642,157.380 157.239,156.980 157.239 C 156.792 157.239,156.639 157.037,156.639 156.789 C 156.639 156.542,156.437 156.339,156.189 156.339 C 155.941 156.339,155.739 156.211,155.739 156.054 C 155.739 155.641,154.380 154.239,153.979 154.239 C 153.792 154.239,153.638 154.036,153.638 153.788 C 153.638 153.541,153.436 153.338,153.188 153.338 C 152.941 153.338,152.738 153.210,152.738 153.054 C 152.738 152.640,151.379 151.238,150.978 151.238 C 150.791 151.238,150.638 151.035,150.638 150.788 C 150.638 150.540,150.435 150.338,150.188 150.338 C 149.940 150.338,149.737 150.210,149.737 150.053 C 149.737 149.640,148.378 148.237,147.978 148.237 C 147.790 148.237,147.637 148.035,147.637 147.787 C 147.637 147.539,147.434 147.337,147.187 147.337 C 146.520 147.337,146.502 101.694,147.169 101.140 C 147.715 100.687,223.256 176.050,223.256 177.049 C 223.256 177.444,223.457 177.644,223.856 177.644 C 224.296 177.644,224.456 177.444,224.456 176.894 C 224.456 176.482,224.591 176.144,224.756 176.144 C 225.306 176.144,225.066 175.317,224.231 174.330 C 222.924 172.786,149.765 99.626,149.513 99.612 C 149.389 99.605,148.956 99.200,148.551 98.712 C 147.787 97.790,147.213 97.596,146.875 98.143 M251.860 98.305 C 251.604 98.972,252.403 99.413,252.924 98.893 C 253.150 98.667,253.243 98.334,253.131 98.153 C 252.829 97.665,252.071 97.755,251.860 98.305 M251.439 100.150 C 251.425 100.464,251.355 100.524,251.264 100.300 C 251.006 99.661,250.069 99.884,249.062 100.825 C 248.532 101.320,247.978 101.725,247.830 101.725 C 247.683 101.725,247.562 101.928,247.562 102.176 C 247.562 102.423,247.359 102.626,247.112 102.626 C 246.864 102.626,246.662 102.755,246.662 102.912 C 246.662 103.284,245.220 104.726,244.848 104.726 C 244.690 104.726,244.561 104.929,244.561 105.176 C 244.561 105.424,244.359 105.626,244.111 105.626 C 243.863 105.626,243.661 105.755,243.661 105.913 C 243.661 106.285,242.219 107.727,241.847 107.727 C 241.689 107.727,241.560 107.929,241.560 108.177 C 241.560 108.425,241.358 108.627,241.110 108.627 C 240.863 108.627,240.660 108.756,240.660 108.914 C 240.660 109.286,239.218 110.728,238.846 110.728 C 238.689 110.728,238.560 110.930,238.560 111.178 C 238.560 111.425,238.357 111.628,238.110 111.628 C 237.862 111.628,237.659 111.757,237.659 111.914 C 237.659 112.287,236.218 113.728,235.845 113.728 C 235.688 113.728,235.559 113.931,235.559 114.179 C 235.559 114.426,235.356 114.629,235.109 114.629 C 234.861 114.629,234.659 114.758,234.659 114.915 C 234.659 115.287,233.217 116.729,232.845 116.729 C 232.687 116.729,232.558 116.932,232.558 117.179 C 232.558 117.427,232.356 117.629,232.108 117.629 C 231.860 117.629,231.658 117.758,231.658 117.916 C 231.658 118.288,230.216 119.730,229.844 119.730 C 229.686 119.730,229.557 119.932,229.557 120.180 C 229.557 120.428,229.355 120.630,229.107 120.630 C 228.860 120.630,228.657 120.759,228.657 120.917 C 228.657 121.289,227.215 122.731,226.843 122.731 C 226.686 122.731,226.557 122.933,226.557 123.181 C 226.557 123.428,226.354 123.631,226.107 123.631 C 225.859 123.631,225.656 123.760,225.656 123.917 C 225.656 124.290,224.215 125.731,223.842 125.731 C 223.685 125.731,223.556 125.934,223.556 126.182 C 223.556 126.429,223.353 126.632,223.106 126.632 C 222.858 126.632,222.656 126.761,222.656 126.918 C 222.656 127.290,221.214 128.732,220.842 128.732 C 220.684 128.732,220.555 128.935,220.555 129.182 C 220.555 129.430,220.353 129.632,220.105 129.632 C 219.857 129.632,219.655 129.761,219.655 129.919 C 219.655 130.291,218.213 131.733,217.841 131.733 C 217.683 131.733,217.554 131.935,217.554 132.183 C 217.554 132.431,217.352 132.633,217.104 132.633 C 216.857 132.633,216.654 132.762,216.654 132.920 C 216.654 133.292,215.212 134.734,214.840 134.734 C 214.683 134.734,214.554 134.936,214.554 135.184 C 214.554 135.431,214.351 135.634,214.104 135.634 C 213.856 135.634,213.653 135.763,213.653 135.920 C 213.653 136.293,212.212 137.734,211.839 137.734 C 211.682 137.734,211.553 137.937,211.553 138.185 C 211.553 138.432,211.350 138.635,211.103 138.635 C 210.855 138.635,210.653 138.764,210.653 138.921 C 210.653 139.293,209.211 140.735,208.839 140.735 C 208.681 140.735,208.552 140.938,208.552 141.185 C 208.552 141.433,208.350 141.635,208.102 141.635 C 207.854 141.635,207.652 141.764,207.652 141.922 C 207.652 142.294,206.210 143.736,205.838 143.736 C 205.680 143.736,205.551 143.938,205.551 144.186 C 205.551 144.434,205.349 144.636,205.101 144.636 C 204.746 144.636,204.643 145.096,204.610 146.812 C 204.588 148.008,204.510 148.675,204.437 148.294 C 204.332 147.745,204.139 147.621,203.503 147.694 C 202.338 147.829,202.241 148.956,203.349 149.488 C 203.808 149.708,204.326 150.173,204.500 150.522 C 204.889 151.303,206.954 153.338,207.357 153.338 C 207.519 153.338,207.652 153.494,207.652 153.685 C 207.652 154.094,209.947 156.339,210.365 156.339 C 210.523 156.339,210.653 156.495,210.653 156.686 C 210.653 157.094,212.948 159.340,213.366 159.340 C 213.524 159.340,213.653 159.491,213.653 159.675 C 213.653 160.112,215.882 162.341,216.319 162.341 C 216.503 162.341,216.654 162.492,216.654 162.676 C 216.654 163.112,218.883 165.341,219.320 165.341 C 219.504 165.341,219.655 165.492,219.655 165.677 C 219.655 166.113,221.884 168.342,222.320 168.342 C 222.505 168.342,222.656 168.493,222.656 168.677 C 222.656 169.875,225.980 171.936,226.350 170.968 C 226.428 170.761,226.590 171.133,226.710 171.793 C 226.849 172.560,227.220 173.229,227.737 173.646 L 228.547 174.298 229.502 173.405 C 230.043 172.900,230.458 172.212,230.458 171.819 C 230.458 171.252,230.587 171.151,231.167 171.262 C 231.904 171.402,234.359 169.423,234.359 168.689 C 234.359 168.498,234.488 168.342,234.647 168.342 C 235.014 168.342,237.359 165.986,237.359 165.618 C 237.359 165.466,237.489 165.341,237.647 165.341 C 238.065 165.341,240.360 163.096,240.360 162.687 C 240.360 162.497,240.489 162.341,240.648 162.341 C 241.065 162.341,243.361 160.095,243.361 159.686 C 243.361 159.496,243.490 159.340,243.648 159.340 C 244.066 159.340,246.362 157.094,246.362 156.686 C 246.362 156.495,246.491 156.339,246.649 156.339 C 247.067 156.339,249.362 154.094,249.362 153.685 C 249.362 153.494,249.492 153.338,249.650 153.338 C 250.068 153.338,252.363 151.093,252.363 150.684 C 252.363 150.494,252.566 150.338,252.813 150.338 C 253.061 150.338,253.263 150.208,253.263 150.050 C 253.263 149.892,253.935 149.048,254.756 148.175 L 256.249 146.587 256.182 123.781 C 256.115 101.198,256.108 100.975,255.514 100.975 C 254.920 100.975,254.912 101.226,254.761 123.931 L 254.608 146.887 254.536 123.256 L 254.464 99.625 252.963 99.625 C 251.743 99.625,251.458 99.723,251.439 100.150 M252.982 124.231 C 252.970 139.273,252.860 147.221,252.664 147.287 C 252.498 147.342,252.363 147.578,252.363 147.812 C 252.363 148.046,252.170 148.237,251.933 148.237 C 251.697 148.237,251.418 148.507,251.313 148.837 C 251.208 149.167,250.929 149.437,250.692 149.437 C 250.456 149.437,250.263 149.640,250.263 149.887 C 250.263 150.135,250.060 150.338,249.812 150.338 C 249.565 150.338,249.362 150.540,249.362 150.788 C 249.362 151.035,249.169 151.238,248.932 151.238 C 248.696 151.238,248.417 151.508,248.312 151.838 C 248.207 152.168,247.928 152.438,247.692 152.438 C 247.455 152.438,247.262 152.641,247.262 152.888 C 247.262 153.136,247.059 153.338,246.812 153.338 C 246.564 153.338,246.362 153.541,246.362 153.788 C 246.362 154.036,246.168 154.239,245.932 154.239 C 245.695 154.239,245.416 154.509,245.311 154.839 C 245.207 155.169,244.927 155.439,244.691 155.439 C 244.455 155.439,244.261 155.641,244.261 155.889 C 244.261 156.137,244.059 156.339,243.811 156.339 C 243.563 156.339,243.361 156.542,243.361 156.789 C 243.361 157.037,243.167 157.239,242.931 157.239 C 242.695 157.239,242.415 157.509,242.311 157.839 C 242.206 158.170,241.927 158.440,241.690 158.440 C 241.454 158.440,241.260 158.642,241.260 158.890 C 241.260 159.137,241.058 159.340,240.810 159.340 C 240.563 159.340,240.360 159.542,240.360 159.790 C 240.360 160.038,240.167 160.240,239.930 160.240 C 239.694 160.240,239.415 160.510,239.310 160.840 C 239.205 161.170,238.926 161.440,238.689 161.440 C 238.453 161.440,238.260 161.643,238.260 161.890 C 238.260 162.138,238.057 162.341,237.809 162.341 C 237.562 162.341,237.359 162.543,237.359 162.791 C 237.359 163.038,237.166 163.241,236.929 163.241 C 236.693 163.241,236.414 163.511,236.309 163.841 C 236.204 164.171,235.925 164.441,235.689 164.441 C 235.452 164.441,235.259 164.644,235.259 164.891 C 235.259 165.139,235.056 165.341,234.809 165.341 C 234.561 165.341,234.359 165.544,234.359 165.791 C 234.359 166.039,234.156 166.242,233.908 166.242 C 233.661 166.242,233.458 166.457,233.458 166.720 C 233.458 166.983,233.188 167.269,232.858 167.355 C 232.528 167.441,232.258 167.699,232.258 167.927 C 232.258 168.155,232.056 168.342,231.808 168.342 C 231.560 168.342,231.358 168.545,231.358 168.792 C 231.358 169.040,231.155 169.242,230.908 169.242 C 230.660 169.242,230.458 169.458,230.458 169.721 C 230.458 169.984,230.188 170.269,229.857 170.356 C 229.527 170.442,229.257 170.632,229.257 170.778 C 229.257 172.020,227.174 170.190,216.919 159.933 C 208.186 151.199,205.832 148.684,205.906 148.169 C 206.020 147.388,252.016 101.151,252.606 101.226 C 252.927 101.266,252.996 105.519,252.982 124.231 M146.875 155.158 C 146.767 155.333,146.915 155.738,147.204 156.058 C 147.715 156.623,147.699 156.639,146.633 156.639 L 145.536 156.639 145.536 176.579 L 145.536 196.519 146.486 197.406 C 147.435 198.293,148.237 198.363,148.237 197.558 C 148.237 197.323,148.035 197.053,147.787 196.958 C 147.539 196.863,147.337 196.470,147.337 196.085 C 147.337 195.699,147.202 195.301,147.037 195.199 C 146.571 194.911,146.630 158.667,147.097 158.200 C 147.597 157.699,148.237 157.749,148.237 158.290 C 148.237 158.537,148.424 158.740,148.652 158.740 C 148.880 158.740,149.138 159.010,149.224 159.340 C 149.311 159.670,149.596 159.940,149.859 159.940 C 150.122 159.940,150.338 160.143,150.338 160.390 C 150.338 160.638,150.540 160.840,150.788 160.840 C 151.035 160.840,151.238 161.043,151.238 161.290 C 151.238 161.538,151.440 161.740,151.688 161.740 C 151.935 161.740,152.138 161.934,152.138 162.170 C 152.138 162.407,152.408 162.686,152.738 162.791 C 153.068 162.895,153.338 163.175,153.338 163.411 C 153.338 163.648,153.541 163.841,153.788 163.841 C 154.036 163.841,154.239 164.044,154.239 164.291 C 154.239 164.539,154.441 164.741,154.689 164.741 C 154.936 164.741,155.139 164.935,155.139 165.171 C 155.139 165.408,155.409 165.687,155.739 165.791 C 156.069 165.896,156.339 166.175,156.339 166.412 C 156.339 166.648,156.542 166.842,156.789 166.842 C 157.037 166.842,157.239 167.044,157.239 167.292 C 157.239 167.539,157.426 167.742,157.654 167.742 C 157.883 167.742,158.140 168.012,158.226 168.342 C 158.313 168.672,158.599 168.942,158.862 168.942 C 159.125 168.942,159.340 169.145,159.340 169.392 C 159.340 169.640,159.542 169.842,159.790 169.842 C 160.038 169.842,160.240 170.045,160.240 170.293 C 160.240 170.540,160.427 170.743,160.655 170.743 C 160.883 170.743,161.141 171.013,161.227 171.343 C 161.314 171.673,161.599 171.943,161.862 171.943 C 162.125 171.943,162.341 172.146,162.341 172.393 C 162.341 172.641,162.543 172.843,162.791 172.843 C 163.038 172.843,163.241 173.046,163.241 173.293 C 163.241 173.541,163.443 173.743,163.691 173.743 C 163.938 173.743,164.141 173.900,164.141 174.092 C 164.141 174.284,164.601 174.858,165.164 175.367 C 165.726 175.877,166.234 176.563,166.292 176.891 C 166.447 177.760,167.442 177.872,167.442 177.020 C 167.442 176.387,167.472 176.378,167.999 176.855 C 169.476 178.192,169.335 176.550,167.835 174.950 C 164.751 171.661,149.733 156.638,149.517 156.626 C 149.390 156.619,148.956 156.214,148.551 155.726 C 147.787 154.805,147.213 154.610,146.875 155.158 M251.860 155.319 C 251.604 155.986,252.403 156.427,252.924 155.907 C 253.150 155.681,253.243 155.348,253.131 155.168 C 252.829 154.679,252.071 154.770,251.860 155.319 M249.662 157.106 C 249.662 157.332,245.861 161.321,241.214 165.972 C 233.722 173.470,232.805 174.490,233.115 174.985 C 233.397 175.437,233.377 175.544,233.011 175.544 C 232.357 175.544,232.416 177.232,233.083 177.620 C 233.375 177.790,233.441 177.930,233.233 177.935 C 232.210 177.960,233.604 179.536,242.658 188.587 C 251.656 197.583,252.497 198.344,252.935 197.898 C 253.373 197.454,253.364 197.376,252.831 196.981 C 252.287 196.578,252.323 196.549,253.356 196.549 L 254.464 196.549 254.464 176.597 L 254.464 156.644 252.063 156.670 C 250.245 156.689,249.662 156.795,249.662 157.106 M254.910 158.192 C 254.355 159.645,254.935 196.099,255.514 196.099 C 256.396 196.099,256.470 158.066,255.588 157.896 C 255.299 157.841,254.994 157.974,254.910 158.192 M252.963 176.576 C 252.963 187.503,252.851 195.083,252.687 195.184 C 252.397 195.363,233.758 176.878,233.758 176.412 C 233.758 176.264,233.927 176.144,234.134 176.143 C 234.340 176.143,238.492 172.109,243.361 167.179 C 248.230 162.248,252.382 158.198,252.588 158.177 C 252.885 158.147,252.963 162.007,252.963 176.576 M165.341 179.004 C 165.341 179.247,165.139 179.445,164.891 179.445 C 164.644 179.445,164.441 179.573,164.441 179.729 C 164.441 180.143,163.082 181.545,162.681 181.545 C 162.494 181.545,162.341 181.748,162.341 181.995 C 162.341 182.243,162.138 182.446,161.890 182.446 C 161.643 182.446,161.440 182.574,161.440 182.730 C 161.440 183.144,160.081 184.546,159.681 184.546 C 159.493 184.546,159.340 184.749,159.340 184.996 C 159.340 185.244,159.137 185.446,158.890 185.446 C 158.642 185.446,158.440 185.574,158.440 185.731 C 158.440 186.144,157.080 187.547,156.680 187.547 C 156.492 187.547,156.339 187.749,156.339 187.997 C 156.339 188.245,156.137 188.447,155.889 188.447 C 155.641 188.447,155.439 188.575,155.439 188.732 C 155.439 189.145,154.080 190.548,153.679 190.548 C 153.492 190.548,153.338 190.750,153.338 190.998 C 153.338 191.245,153.136 191.448,152.888 191.448 C 152.641 191.448,152.438 191.576,152.438 191.732 C 152.438 192.146,151.079 193.548,150.678 193.548 C 150.491 193.548,150.338 193.751,150.338 193.998 C 150.338 194.246,150.218 194.449,150.072 194.449 C 149.446 194.449,148.780 195.946,149.314 196.151 C 149.619 196.268,149.919 196.150,150.090 195.845 C 150.242 195.572,150.496 195.349,150.653 195.349 C 151.033 195.349,153.338 193.030,153.338 192.648 C 153.338 192.483,153.473 192.348,153.638 192.348 C 153.803 192.348,154.479 191.808,155.139 191.148 C 155.799 190.488,156.339 189.812,156.339 189.647 C 156.339 189.482,156.542 189.347,156.789 189.347 C 157.037 189.347,157.239 189.145,157.239 188.897 C 157.239 188.650,157.393 188.447,157.580 188.447 C 157.981 188.447,159.340 187.045,159.340 186.631 C 159.340 186.475,159.542 186.347,159.790 186.347 C 160.038 186.347,160.240 186.144,160.240 185.896 C 160.240 185.649,160.393 185.446,160.581 185.446 C 160.981 185.446,162.341 184.044,162.341 183.630 C 162.341 183.474,162.543 183.346,162.791 183.346 C 163.038 183.346,163.241 183.143,163.241 182.896 C 163.241 182.648,163.394 182.446,163.581 182.446 C 163.982 182.446,165.341 181.043,165.341 180.630 C 165.341 180.473,165.544 180.345,165.791 180.345 C 166.066 180.345,166.242 180.065,166.242 179.627 C 166.242 179.232,166.039 178.831,165.791 178.736 C 165.517 178.631,165.341 178.736,165.341 179.004 " stroke="none" fill="#cdc7dc" fill-rule="evenodd"></path><path id="path2" d="M252.436 101.629 C 252.396 101.823,241.969 112.386,229.264 125.101 L 206.165 148.220 217.336 159.407 L 228.507 170.594 240.587 158.511 L 252.667 146.428 252.588 123.852 C 252.545 111.435,252.476 101.434,252.436 101.629 M147.179 123.931 C 147.179 136.227,147.216 141.257,147.262 135.109 C 147.307 128.961,147.307 118.901,147.262 112.753 C 147.216 106.605,147.179 111.635,147.179 123.931 M147.175 158.515 C 147.096 158.721,147.067 166.992,147.111 176.894 L 147.192 194.899 147.264 176.623 L 147.337 158.347 148.012 158.918 L 148.687 159.490 148.116 158.815 C 147.454 158.034,147.369 158.007,147.175 158.515 M216.539 170.526 C 216.641 170.819,217.013 171.207,217.365 171.388 C 217.912 171.669,217.942 171.657,217.568 171.305 C 217.328 171.078,216.956 170.690,216.742 170.443 C 216.403 170.051,216.377 170.061,216.539 170.526 M219.539 173.527 C 219.642 173.820,220.013 174.208,220.365 174.389 C 220.913 174.670,220.942 174.658,220.569 174.305 C 220.329 174.079,219.957 173.691,219.743 173.443 C 219.404 173.051,219.377 173.062,219.539 173.527 M164.811 177.644 C 164.605 177.974,164.540 178.245,164.666 178.245 C 164.793 178.245,165.066 177.974,165.272 177.644 C 165.478 177.314,165.543 177.044,165.416 177.044 C 165.289 177.044,165.017 177.314,164.811 177.644 M220.555 178.748 C 219.890 179.452,219.877 179.504,220.445 179.202 C 220.797 179.015,221.164 178.655,221.261 178.403 C 221.496 177.790,221.431 177.822,220.555 178.748 M162.634 179.901 C 161.909 180.640,161.400 181.245,161.504 181.245 C 161.775 181.245,164.202 178.806,164.067 178.670 C 164.004 178.608,163.360 179.162,162.634 179.901 M217.806 181.545 C 217.264 182.041,216.910 182.446,217.019 182.446 C 217.128 182.446,217.661 182.041,218.203 181.545 C 218.745 181.050,219.099 180.645,218.990 180.645 C 218.881 180.645,218.348 181.050,217.806 181.545 M159.634 182.902 C 158.908 183.641,158.400 184.246,158.503 184.246 C 158.774 184.246,161.201 181.807,161.066 181.671 C 161.004 181.609,160.359 182.163,159.634 182.902 M214.805 184.546 C 214.263 185.041,213.909 185.446,214.018 185.446 C 214.127 185.446,214.660 185.041,215.202 184.546 C 215.744 184.051,216.098 183.646,215.989 183.646 C 215.880 183.646,215.347 184.051,214.805 184.546 M156.633 185.903 C 155.907 186.642,155.399 187.247,155.503 187.247 C 155.773 187.247,158.201 184.807,158.065 184.672 C 158.003 184.610,157.358 185.164,156.633 185.903 M211.805 187.547 C 211.263 188.042,210.908 188.447,211.017 188.447 C 211.126 188.447,211.659 188.042,212.201 187.547 C 212.743 187.052,213.098 186.647,212.989 186.647 C 212.880 186.647,212.347 187.052,211.805 187.547 M153.632 188.904 C 152.907 189.643,152.398 190.248,152.502 190.248 C 152.772 190.248,155.200 187.808,155.064 187.673 C 155.002 187.610,154.358 188.164,153.632 188.904 M208.804 190.548 C 208.262 191.043,207.908 191.448,208.017 191.448 C 208.126 191.448,208.659 191.043,209.201 190.548 C 209.743 190.053,210.097 189.647,209.988 189.647 C 209.879 189.647,209.346 190.053,208.804 190.548 M150.631 191.904 C 149.906 192.643,149.397 193.248,149.501 193.248 C 149.772 193.248,152.199 190.809,152.064 190.673 C 152.001 190.611,151.357 191.165,150.631 191.904 M205.803 193.548 C 205.261 194.044,204.907 194.449,205.016 194.449 C 205.125 194.449,205.658 194.044,206.200 193.548 C 206.742 193.053,207.096 192.648,206.987 192.648 C 206.878 192.648,206.345 193.053,205.803 193.548 M202.802 196.549 C 202.260 197.044,201.906 197.449,202.015 197.449 C 202.124 197.449,202.657 197.044,203.199 196.549 C 203.741 196.054,204.095 195.649,203.986 195.649 C 203.877 195.649,203.344 196.054,202.802 196.549 " stroke="none" fill="#632a93" fill-rule="evenodd"></path><path id="path3" d="M147.346 123.531 C 147.341 135.772,147.255 146.001,147.155 146.262 C 147.055 146.523,147.111 146.737,147.281 146.737 C 147.451 146.737,159.324 158.485,173.666 172.843 C 188.008 187.202,199.906 198.950,200.105 198.950 C 200.305 198.950,205.464 193.946,211.570 187.829 L 222.673 176.709 185.755 139.786 C 165.450 119.479,148.837 102.743,148.837 102.595 C 148.837 102.447,148.641 102.326,148.402 102.326 C 148.163 102.326,147.829 102.089,147.661 101.800 C 147.451 101.440,147.352 108.266,147.346 123.531 M147.337 176.744 L 147.337 195.142 148.012 194.570 C 148.383 194.256,148.771 193.884,148.873 193.745 C 148.975 193.605,152.789 189.751,157.350 185.181 C 161.910 180.610,165.641 176.787,165.641 176.684 C 165.641 176.516,149.475 160.256,147.977 158.918 L 147.337 158.347 147.337 176.744 " stroke="none" fill="#242464" fill-rule="evenodd"></path><path id="path4" d="M147.097 101.185 C 146.495 101.787,146.584 147.337,147.187 147.337 C 147.434 147.337,147.637 147.539,147.637 147.787 C 147.637 148.035,147.790 148.237,147.978 148.237 C 148.378 148.237,149.737 149.640,149.737 150.053 C 149.737 150.210,149.940 150.338,150.188 150.338 C 150.435 150.338,150.638 150.540,150.638 150.788 C 150.638 151.035,150.791 151.238,150.978 151.238 C 151.379 151.238,152.738 152.640,152.738 153.054 C 152.738 153.210,152.941 153.338,153.188 153.338 C 153.436 153.338,153.638 153.541,153.638 153.788 C 153.638 154.036,153.792 154.239,153.979 154.239 C 154.380 154.239,155.739 155.641,155.739 156.054 C 155.739 156.211,155.941 156.339,156.189 156.339 C 156.437 156.339,156.639 156.542,156.639 156.789 C 156.639 157.037,156.792 157.239,156.980 157.239 C 157.380 157.239,158.740 158.642,158.740 159.055 C 158.740 159.212,158.942 159.340,159.190 159.340 C 159.437 159.340,159.640 159.542,159.640 159.790 C 159.640 160.038,159.793 160.240,159.981 160.240 C 160.381 160.240,161.740 161.643,161.740 162.056 C 161.740 162.213,161.943 162.341,162.191 162.341 C 162.438 162.341,162.641 162.543,162.641 162.791 C 162.641 163.038,162.794 163.241,162.981 163.241 C 163.382 163.241,164.741 164.643,164.741 165.057 C 164.741 165.213,164.944 165.341,165.191 165.341 C 165.439 165.341,165.641 165.544,165.641 165.791 C 165.641 166.039,165.795 166.242,165.982 166.242 C 166.383 166.242,167.742 167.644,167.742 168.057 C 167.742 168.214,167.944 168.342,168.192 168.342 C 168.440 168.342,168.642 168.545,168.642 168.792 C 168.642 169.040,168.795 169.242,168.983 169.242 C 169.383 169.242,170.743 170.645,170.743 171.058 C 170.743 171.215,170.945 171.343,171.193 171.343 C 171.440 171.343,171.643 171.545,171.643 171.793 C 171.643 172.041,171.796 172.243,171.984 172.243 C 172.384 172.243,173.743 173.646,173.743 174.059 C 173.743 174.216,173.946 174.344,174.194 174.344 C 174.441 174.344,174.644 174.546,174.644 174.794 C 174.644 175.041,174.797 175.244,174.984 175.244 C 175.385 175.244,176.744 176.646,176.744 177.060 C 176.744 177.216,176.947 177.344,177.194 177.344 C 177.442 177.344,177.644 177.547,177.644 177.794 C 177.644 178.042,177.860 178.245,178.123 178.245 C 178.386 178.245,178.671 178.515,178.758 178.845 C 178.844 179.175,179.102 179.445,179.330 179.445 C 179.558 179.445,179.745 179.647,179.745 179.895 C 179.745 180.143,179.947 180.345,180.195 180.345 C 180.443 180.345,180.645 180.548,180.645 180.795 C 180.645 181.043,180.860 181.245,181.123 181.245 C 181.386 181.245,181.672 181.515,181.759 181.845 C 181.845 182.176,182.102 182.446,182.331 182.446 C 182.559 182.446,182.746 182.648,182.746 182.896 C 182.746 183.143,182.948 183.346,183.196 183.346 C 183.443 183.346,183.646 183.548,183.646 183.796 C 183.646 184.044,183.861 184.246,184.124 184.246 C 184.387 184.246,184.673 184.516,184.759 184.846 C 184.846 185.176,185.103 185.446,185.331 185.446 C 185.560 185.446,185.746 185.649,185.746 185.896 C 185.746 186.144,185.949 186.347,186.197 186.347 C 186.444 186.347,186.647 186.549,186.647 186.797 C 186.647 187.044,186.862 187.247,187.125 187.247 C 187.388 187.247,187.674 187.517,187.760 187.847 C 187.846 188.177,188.104 188.447,188.332 188.447 C 188.560 188.447,188.747 188.650,188.747 188.897 C 188.747 189.145,188.950 189.347,189.197 189.347 C 189.445 189.347,189.647 189.550,189.647 189.797 C 189.647 190.045,189.863 190.248,190.126 190.248 C 190.389 190.248,190.674 190.518,190.761 190.848 C 190.847 191.178,191.105 191.448,191.333 191.448 C 191.561 191.448,191.748 191.650,191.748 191.898 C 191.748 192.146,191.950 192.348,192.198 192.348 C 192.446 192.348,192.648 192.551,192.648 192.798 C 192.648 193.046,192.863 193.248,193.126 193.248 C 193.389 193.248,193.675 193.518,193.762 193.848 C 193.848 194.179,194.105 194.449,194.334 194.449 C 194.562 194.449,194.749 194.651,194.749 194.899 C 194.749 195.146,194.951 195.349,195.199 195.349 C 195.446 195.349,195.649 195.551,195.649 195.799 C 195.649 196.047,195.864 196.249,196.127 196.249 C 196.390 196.249,196.676 196.519,196.762 196.849 C 196.849 197.179,197.106 197.449,197.334 197.449 C 197.563 197.449,197.749 197.652,197.749 197.899 C 197.749 198.147,197.936 198.350,198.165 198.350 C 198.393 198.350,198.650 198.620,198.737 198.950 C 198.831 199.309,199.146 199.550,199.522 199.550 C 199.880 199.550,200.150 199.743,200.150 200.000 C 200.150 200.250,200.417 200.450,200.750 200.450 C 201.080 200.450,201.350 200.252,201.350 200.010 C 201.350 199.556,202.699 198.085,204.186 196.914 C 204.652 196.548,204.957 196.249,204.865 196.249 C 204.648 196.249,206.234 194.663,207.248 193.865 C 207.680 193.526,207.958 193.248,207.866 193.248 C 207.649 193.248,209.235 191.663,210.249 190.865 C 210.681 190.525,210.947 190.248,210.840 190.248 C 210.733 190.248,211.357 189.604,212.225 188.818 C 213.093 188.032,213.871 187.255,213.953 187.093 C 214.035 186.930,214.711 186.257,215.454 185.596 C 216.197 184.936,216.872 184.261,216.954 184.096 C 217.036 183.931,217.779 183.196,218.604 182.463 C 219.430 181.730,220.069 181.086,220.025 181.032 C 219.953 180.943,220.486 180.451,222.686 178.578 C 223.266 178.085,223.429 177.715,223.319 177.141 C 223.201 176.524,148.046 100.825,147.550 100.825 C 147.499 100.825,147.295 100.987,147.097 101.185 M203.970 157.759 L 222.943 176.728 211.709 187.984 C 202.869 196.843,200.361 199.197,199.938 199.036 C 199.642 198.923,187.618 187.047,173.218 172.646 L 147.037 146.461 147.037 124.268 C 147.037 112.061,147.116 101.868,147.213 101.615 C 147.338 101.290,152.871 106.642,166.193 119.973 C 176.535 130.323,193.534 147.326,203.970 157.759 M229.107 124.345 C 215.114 138.377,205.964 147.773,205.906 148.169 C 205.832 148.684,208.186 151.199,216.919 159.933 C 227.174 170.190,229.257 172.020,229.257 170.778 C 229.257 170.632,229.527 170.442,229.857 170.356 C 230.188 170.269,230.458 169.984,230.458 169.721 C 230.458 169.458,230.660 169.242,230.908 169.242 C 231.155 169.242,231.358 169.040,231.358 168.792 C 231.358 168.545,231.560 168.342,231.808 168.342 C 232.056 168.342,232.258 168.155,232.258 167.927 C 232.258 167.699,232.528 167.441,232.858 167.355 C 233.188 167.269,233.458 166.983,233.458 166.720 C 233.458 166.457,233.661 166.242,233.908 166.242 C 234.156 166.242,234.359 166.039,234.359 165.791 C 234.359 165.544,234.561 165.341,234.809 165.341 C 235.056 165.341,235.259 165.139,235.259 164.891 C 235.259 164.644,235.452 164.441,235.689 164.441 C 235.925 164.441,236.204 164.171,236.309 163.841 C 236.414 163.511,236.693 163.241,236.929 163.241 C 237.166 163.241,237.359 163.038,237.359 162.791 C 237.359 162.543,237.562 162.341,237.809 162.341 C 238.057 162.341,238.260 162.138,238.260 161.890 C 238.260 161.643,238.453 161.440,238.689 161.440 C 238.926 161.440,239.205 161.170,239.310 160.840 C 239.415 160.510,239.694 160.240,239.930 160.240 C 240.167 160.240,240.360 160.038,240.360 159.790 C 240.360 159.542,240.563 159.340,240.810 159.340 C 241.058 159.340,241.260 159.137,241.260 158.890 C 241.260 158.642,241.454 158.440,241.690 158.440 C 241.927 158.440,242.206 158.170,242.311 157.839 C 242.415 157.509,242.695 157.239,242.931 157.239 C 243.167 157.239,243.361 157.037,243.361 156.789 C 243.361 156.542,243.563 156.339,243.811 156.339 C 244.059 156.339,244.261 156.137,244.261 155.889 C 244.261 155.641,244.455 155.439,244.691 155.439 C 244.927 155.439,245.207 155.169,245.311 154.839 C 245.416 154.509,245.695 154.239,245.932 154.239 C 246.168 154.239,246.362 154.036,246.362 153.788 C 246.362 153.541,246.564 153.338,246.812 153.338 C 247.059 153.338,247.262 153.136,247.262 152.888 C 247.262 152.641,247.455 152.438,247.692 152.438 C 247.928 152.438,248.207 152.168,248.312 151.838 C 248.417 151.508,248.696 151.238,248.932 151.238 C 249.169 151.238,249.362 151.035,249.362 150.788 C 249.362 150.540,249.565 150.338,249.812 150.338 C 250.060 150.338,250.263 150.135,250.263 149.887 C 250.263 149.640,250.456 149.437,250.692 149.437 C 250.929 149.437,251.208 149.167,251.313 148.837 C 251.418 148.507,251.697 148.237,251.933 148.237 C 252.170 148.237,252.363 148.046,252.363 147.812 C 252.363 147.578,252.498 147.342,252.664 147.287 C 253.162 147.120,253.105 101.289,252.606 101.226 C 252.390 101.198,241.815 111.602,229.107 124.345 M240.647 158.723 C 234.036 165.334,228.579 170.743,228.520 170.743 C 228.162 170.743,206.149 148.394,206.238 148.122 C 206.298 147.938,216.734 137.389,229.430 124.681 L 252.513 101.575 252.590 124.139 L 252.667 146.703 240.647 158.723 M147.097 158.200 C 146.630 158.667,146.571 194.911,147.037 195.199 C 147.202 195.301,147.337 195.646,147.337 195.967 C 147.337 196.349,147.543 196.549,147.937 196.549 C 148.267 196.549,148.537 196.361,148.537 196.131 C 148.537 195.901,148.740 195.635,148.987 195.540 C 149.235 195.445,149.437 195.161,149.437 194.908 C 149.437 194.655,149.640 194.449,149.887 194.449 C 150.135 194.449,150.338 194.246,150.338 193.998 C 150.338 193.751,150.491 193.548,150.678 193.548 C 151.079 193.548,152.438 192.146,152.438 191.732 C 152.438 191.576,152.641 191.448,152.888 191.448 C 153.136 191.448,153.338 191.245,153.338 190.998 C 153.338 190.750,153.492 190.548,153.679 190.548 C 154.080 190.548,155.439 189.145,155.439 188.732 C 155.439 188.575,155.641 188.447,155.889 188.447 C 156.137 188.447,156.339 188.245,156.339 187.997 C 156.339 187.749,156.492 187.547,156.680 187.547 C 157.080 187.547,158.440 186.144,158.440 185.731 C 158.440 185.574,158.642 185.446,158.890 185.446 C 159.137 185.446,159.340 185.244,159.340 184.996 C 159.340 184.749,159.493 184.546,159.681 184.546 C 160.081 184.546,161.440 183.144,161.440 182.730 C 161.440 182.574,161.643 182.446,161.890 182.446 C 162.138 182.446,162.341 182.243,162.341 181.995 C 162.341 181.748,162.494 181.545,162.681 181.545 C 163.082 181.545,164.441 180.143,164.441 179.729 C 164.441 179.573,164.644 179.445,164.891 179.445 C 165.139 179.445,165.341 179.242,165.341 178.995 C 165.341 178.737,165.612 178.545,165.975 178.545 C 166.986 178.545,166.480 176.548,165.170 175.367 C 164.604 174.858,164.141 174.284,164.141 174.092 C 164.141 173.900,163.938 173.743,163.691 173.743 C 163.443 173.743,163.241 173.541,163.241 173.293 C 163.241 173.046,163.038 172.843,162.791 172.843 C 162.543 172.843,162.341 172.641,162.341 172.393 C 162.341 172.146,162.125 171.943,161.862 171.943 C 161.599 171.943,161.314 171.673,161.227 171.343 C 161.141 171.013,160.883 170.743,160.655 170.743 C 160.427 170.743,160.240 170.540,160.240 170.293 C 160.240 170.045,160.038 169.842,159.790 169.842 C 159.542 169.842,159.340 169.656,159.340 169.427 C 159.340 169.199,159.070 168.942,158.740 168.855 C 158.410 168.769,158.140 168.483,158.140 168.220 C 158.140 167.957,157.937 167.742,157.689 167.742 C 157.442 167.742,157.239 167.539,157.239 167.292 C 157.239 167.044,157.037 166.842,156.789 166.842 C 156.542 166.842,156.339 166.648,156.339 166.412 C 156.339 166.175,156.069 165.896,155.739 165.791 C 155.409 165.687,155.139 165.408,155.139 165.171 C 155.139 164.935,154.936 164.741,154.689 164.741 C 154.441 164.741,154.239 164.539,154.239 164.291 C 154.239 164.044,154.036 163.841,153.788 163.841 C 153.541 163.841,153.338 163.648,153.338 163.411 C 153.338 163.175,153.068 162.895,152.738 162.791 C 152.408 162.686,152.138 162.407,152.138 162.170 C 152.138 161.934,151.935 161.740,151.688 161.740 C 151.440 161.740,151.238 161.538,151.238 161.290 C 151.238 161.043,151.035 160.840,150.788 160.840 C 150.540 160.840,150.338 160.638,150.338 160.390 C 150.338 160.143,150.122 159.940,149.859 159.940 C 149.596 159.940,149.311 159.670,149.224 159.340 C 149.138 159.010,148.880 158.740,148.652 158.740 C 148.424 158.740,148.237 158.537,148.237 158.290 C 148.237 157.749,147.597 157.699,147.097 158.200 M165.407 177.407 C 165.135 177.868,164.738 178.245,164.526 178.245 C 164.314 178.245,164.141 178.374,164.141 178.533 C 164.141 178.900,161.785 181.245,161.417 181.245 C 161.265 181.245,161.140 181.375,161.140 181.534 C 161.140 181.901,158.785 184.246,158.416 184.246 C 158.264 184.246,158.140 184.376,158.140 184.535 C 158.140 184.902,155.784 187.247,155.415 187.247 C 155.263 187.247,155.139 187.377,155.139 187.535 C 155.139 187.902,152.783 190.248,152.414 190.248 C 152.262 190.248,152.138 190.377,152.138 190.536 C 152.138 190.903,149.782 193.248,149.414 193.248 C 149.262 193.248,149.133 193.417,149.128 193.623 C 149.115 194.128,147.707 195.128,147.334 194.897 C 146.990 194.684,146.908 158.669,147.251 158.326 C 147.368 158.208,151.613 162.265,156.683 167.341 L 165.902 176.569 165.407 177.407 M243.361 167.179 C 238.492 172.109,234.340 176.143,234.134 176.143 C 233.927 176.144,233.758 176.264,233.758 176.412 C 233.758 176.878,252.397 195.363,252.687 195.184 C 253.146 194.900,253.049 158.131,252.588 158.177 C 252.382 158.198,248.230 162.248,243.361 167.179 M252.663 176.592 L 252.663 194.744 243.586 185.669 C 238.593 180.678,234.627 176.544,234.771 176.482 C 235.254 176.275,237.359 174.047,237.359 173.743 C 237.359 173.578,237.494 173.443,237.659 173.443 C 237.824 173.443,238.500 172.903,239.160 172.243 C 239.820 171.583,240.360 170.908,240.360 170.743 C 240.360 170.578,240.495 170.443,240.660 170.443 C 240.825 170.443,241.500 169.902,242.161 169.242 C 242.821 168.582,243.361 167.907,243.361 167.742 C 243.361 167.577,243.496 167.442,243.661 167.442 C 243.826 167.442,244.501 166.902,245.161 166.242 C 245.821 165.581,246.362 164.906,246.362 164.741 C 246.362 164.576,246.497 164.441,246.662 164.441 C 246.827 164.441,247.502 163.901,248.162 163.241 C 248.822 162.581,249.362 161.905,249.362 161.740 C 249.362 161.575,249.508 161.440,249.686 161.440 C 250.047 161.440,252.363 159.051,252.363 158.678 C 252.363 158.547,252.431 158.440,252.513 158.440 C 252.596 158.440,252.663 166.608,252.663 176.592 " stroke="none" fill="#84549e" fill-rule="evenodd"></path></g></svg>