<svg width="212" height="42" viewBox="0 0 212 42" fill="none" xmlns="http://www.w3.org/2000/svg">
<path d="M54.0904 17.3794V32.8145H49.3318V12.5892H53.7211L53.9262 14.1039H54.0493C54.5476 13.7961 55.0614 13.5147 55.5893 13.2606C56.0805 13.0239 56.587 12.8201 57.1054 12.6506C57.7464 12.4404 58.4077 12.2979 59.0786 12.2256C59.3702 12.1951 59.6632 12.1798 59.9564 12.1797C60.4031 12.1778 60.8493 12.2081 61.2917 12.2706C61.8632 12.3538 62.3822 12.4942 62.8483 12.6914C63.6551 13.0326 64.3047 13.5582 64.797 14.2678H64.92C65.9318 13.6127 67.0326 13.101 68.2223 12.7325C69.4119 12.3639 70.5809 12.1797 71.7295 12.1797C73.1221 12.1797 74.2685 12.446 75.1688 12.9785C75.5365 13.1948 75.8703 13.4636 76.1599 13.7765C76.6399 14.3073 77.0014 14.9341 77.2199 15.6152C77.3936 16.1302 77.513 16.7022 77.5779 17.3315C77.6181 17.7283 77.6377 18.127 77.6366 18.5258V32.8145H72.8782V19.1399C72.88 18.8845 72.8577 18.6295 72.8113 18.3784C72.7058 17.8284 72.475 17.3998 72.1193 17.0928C71.9042 16.9122 71.6576 16.7726 71.392 16.6808C70.9437 16.5188 70.3863 16.4377 69.7194 16.4377C69.0632 16.4377 68.3932 16.5196 67.7094 16.6834C67.2562 16.7906 66.811 16.9294 66.3772 17.0984C66.1895 17.1721 66.0045 17.2521 65.8226 17.3384C65.8497 17.4749 65.8634 17.625 65.8634 17.7888V32.8145H61.105V19.1399C61.1067 18.8845 61.0844 18.6295 61.0382 18.3784C60.9326 17.8284 60.7019 17.3998 60.3461 17.0928C60.1309 16.9122 59.8844 16.7726 59.6188 16.6808C59.1705 16.5188 58.613 16.4377 57.9464 16.4377C57.5723 16.4389 57.1988 16.4683 56.8294 16.5257C56.5915 16.5621 56.3552 16.6078 56.1209 16.6629C55.742 16.7525 55.369 16.8651 55.0039 17.0003C54.6944 17.1144 54.3896 17.2408 54.0904 17.3794Z" fill="#090913"/>
<path d="M77.3084 39.2012V35.1889C77.5545 35.2435 77.8005 35.2777 78.0466 35.2913C78.2928 35.305 78.5391 35.3117 78.7851 35.3117C79.857 35.3117 80.6624 35.1589 81.2004 34.8532C81.3282 34.7817 81.447 34.6952 81.554 34.5953C82.0228 34.1529 82.2745 33.3883 82.3088 32.3017C82.3116 32.2133 82.3129 32.1249 82.3129 32.0363V12.5889H87.0715V32.6096C87.0758 33.2601 87.0195 33.9097 86.9032 34.5499C86.7643 35.2852 86.5397 35.9398 86.2293 36.5138C85.9943 36.9513 85.6976 37.3532 85.3485 37.707C84.6831 38.367 83.8602 38.8471 82.9573 39.1018C82.3815 39.2742 81.7474 39.3822 81.0552 39.4252C80.8183 39.4399 80.5813 39.447 80.3439 39.4469C80.2393 39.4466 80.1344 39.4445 80.0296 39.4408C79.7758 39.432 79.4704 39.4135 79.1133 39.3855C78.87 39.3661 78.627 39.3444 78.3844 39.3199C78.1346 39.2951 77.8704 39.2666 77.5919 39.2345C77.4974 39.2236 77.4027 39.2125 77.3084 39.2012ZM87.1945 5.58781V9.72297H82.1488V5.58781H87.1945Z" fill="#090913"/>
<path d="M91.5427 5.58781H96.3012V32.8143H91.5427V5.58781Z" fill="#090913"/>
<path fill-rule="evenodd" clip-rule="evenodd" d="M118.47 30.4607V31.8962C117.903 32.128 117.33 32.3421 116.75 32.5381C115.951 32.8061 115.211 33.0091 114.528 33.1472C113.379 33.3796 112.202 33.4958 110.997 33.4958C110.015 33.5027 109.035 33.4213 108.068 33.2526C107.019 33.0615 106.09 32.7578 105.28 32.3416C104.365 31.8809 103.562 31.2247 102.929 30.4197C102.343 29.6458 101.886 28.7833 101.573 27.8648C100.876 25.9098 100.527 23.3708 100.527 20.2479C100.521 19.0637 100.593 17.8804 100.741 16.7054C101.092 14.0433 101.872 11.9571 103.083 10.447C103.133 10.3841 103.184 10.322 103.237 10.2607C104.229 9.12043 105.513 8.27117 106.951 7.80394C107.866 7.48812 108.885 7.27594 110.008 7.16738C110.623 7.10925 111.241 7.08078 111.859 7.08207C112.384 7.08177 112.909 7.08697 113.433 7.09766C113.914 7.10777 114.37 7.12281 114.802 7.14277C114.944 7.14921 115.085 7.15632 115.226 7.1641C116.212 7.21879 117.101 7.31449 117.895 7.45121V8.88674C116.992 8.75002 116.068 8.65432 115.124 8.59963C114.683 8.5745 114.243 8.55577 113.802 8.54344C113.35 8.53059 112.873 8.52252 112.371 8.51924C112.2 8.51814 112.03 8.5176 111.859 8.5176C110.948 8.51151 110.038 8.58425 109.14 8.73498C108.182 8.90287 107.33 9.16783 106.584 9.52985C105.72 9.93849 104.956 10.5309 104.345 11.2656C103.77 11.9879 103.321 12.8027 103.019 13.6753C102.482 15.1559 102.176 16.9956 102.104 19.1942C102.092 19.5454 102.087 19.8966 102.087 20.2479C102.087 23.6926 102.512 26.3221 103.363 28.1364C103.568 28.5821 103.822 29.004 104.119 29.3943C105.122 30.6893 106.721 31.5051 108.915 31.8417C109.754 31.9649 110.601 32.0243 111.449 32.0193C112.412 32.0166 113.372 31.926 114.319 31.7486C114.547 31.7065 114.774 31.66 115.001 31.6091C116.219 31.3357 117.375 30.9529 118.47 30.4607Z" fill="#090913"/>
<path fill-rule="evenodd" clip-rule="evenodd" d="M135.754 22.1739V19.795C135.756 19.2645 135.724 18.7344 135.657 18.2082C135.5 17.0357 135.153 16.1262 134.617 15.4798C134.542 15.3896 134.462 15.3035 134.378 15.2219C133.47 14.3411 132.003 13.8968 129.978 13.8889C129.96 13.8888 129.942 13.8888 129.923 13.8889C129.422 13.8884 128.921 13.8989 128.421 13.9205C127.925 13.9423 127.458 13.9755 127.019 14.0201C126.92 14.0303 126.82 14.0412 126.721 14.0529C126.056 14.1325 125.396 14.2466 124.743 14.395C124.429 14.4658 124.116 14.5432 123.805 14.6271V13.2736C124.329 13.1513 124.855 13.0411 125.384 12.9431C125.88 12.8517 126.352 12.7782 126.798 12.7224C126.861 12.7144 126.924 12.7068 126.987 12.6994C127.367 12.6562 127.747 12.6228 128.128 12.5994C128.805 12.5567 129.554 12.5354 130.375 12.5354C131.012 12.5315 131.649 12.5791 132.279 12.6777C132.937 12.7852 133.527 12.9536 134.047 13.183C134.626 13.4303 135.15 13.7886 135.59 14.2375C136.684 15.3717 137.231 17.1955 137.232 19.7089C137.232 19.7103 137.232 19.7116 137.232 19.713V33.207H135.959L135.836 31.0332H135.795C135.096 31.6416 134.182 32.1525 133.055 32.5659C132.807 32.6566 132.557 32.7405 132.305 32.8173C130.827 33.2685 129.307 33.4941 127.747 33.4941C127.19 33.4974 126.633 33.4561 126.082 33.3706C124.831 33.1683 123.86 32.7173 123.169 32.0175C122.436 31.2754 121.98 30.2148 121.799 28.8356C121.739 28.3538 121.709 27.8685 121.711 27.3828C121.707 26.8428 121.754 26.3035 121.851 25.7722C122.089 24.5218 122.631 23.5821 123.477 22.9532C123.9 22.6493 124.366 22.4111 124.861 22.2469C125.782 21.9254 126.944 21.7318 128.345 21.6662C128.72 21.6489 129.096 21.6404 129.472 21.6407C130.512 21.6407 131.531 21.6817 132.531 21.7638C133.152 21.8155 133.772 21.8835 134.39 21.9676C134.846 22.0294 135.3 22.0982 135.754 22.1739ZM135.754 29.8027V23.4454C134.796 23.2813 133.803 23.1514 132.777 23.0557C131.75 22.96 130.676 22.9122 129.554 22.9122C127.172 22.9122 125.502 23.2403 124.544 23.8966C123.985 24.2858 123.571 24.85 123.368 25.5002C123.245 25.8612 123.166 26.265 123.13 26.7118C123.115 26.9078 123.107 27.1043 123.107 27.3008C123.105 27.7421 123.136 28.183 123.201 28.6194C123.272 29.069 123.381 29.4719 123.53 29.8282C123.702 30.2591 123.964 30.6487 124.298 30.9717C124.641 31.2876 125.043 31.5323 125.481 31.6915C126.195 31.9635 127.087 32.0996 128.158 32.0996C129.581 32.0996 131.005 31.8808 132.428 31.4433C133.851 31.0058 134.96 30.459 135.754 29.8027Z" fill="#090913"/>
<path fill-rule="evenodd" clip-rule="evenodd" d="M145.121 32.5098V39.4414H143.643V12.9456H144.874L144.998 14.7913H145.121C146.106 14.053 147.208 13.4925 148.426 13.1097C149.352 12.8227 150.308 12.6436 151.276 12.5761C151.646 12.5488 152.017 12.5353 152.388 12.5355C153.149 12.5297 153.908 12.5992 154.655 12.743C155.514 12.9156 156.268 13.196 156.917 13.5842C157.536 13.9521 158.077 14.4391 158.506 15.0169C158.961 15.6462 159.316 16.3418 159.558 17.0791C160.014 18.4017 160.274 20.0438 160.338 22.0055C160.349 22.335 160.354 22.6646 160.354 22.9943C160.354 26.7677 159.629 29.4611 158.178 31.0743C156.78 32.6288 154.416 33.4343 151.086 33.4909C150.959 33.4931 150.832 33.4942 150.705 33.4942C150.117 33.4954 149.529 33.4694 148.943 33.4163C148.522 33.378 148.103 33.3219 147.687 33.2481C146.995 33.1262 146.313 32.9473 145.65 32.7133C145.472 32.6499 145.296 32.5821 145.121 32.5098ZM145.121 16.0628V31.1153C145.915 31.4435 146.756 31.6895 147.646 31.8536C148.17 31.9489 148.7 32.0153 149.232 32.0525C149.681 32.0845 150.131 32.1003 150.582 32.0997C153.342 32.0997 155.35 31.5795 156.605 30.5391C156.779 30.3955 156.941 30.2385 157.09 30.0694C157.525 29.5574 157.866 28.9724 158.098 28.3415C158.524 27.2365 158.775 25.836 158.851 24.1399C158.868 23.7583 158.876 23.3763 158.876 22.9943C158.876 20.2972 158.529 18.2374 157.836 16.815C157.695 16.5225 157.528 16.2432 157.336 15.9808C156.31 14.5862 154.51 13.889 151.937 13.889C150.65 13.889 149.418 14.0736 148.241 14.4427C147.354 14.7158 146.51 15.1123 145.733 15.6206C145.523 15.7595 145.319 15.907 145.121 16.0628Z" fill="#090913"/>
<path fill-rule="evenodd" clip-rule="evenodd" d="M167.457 12.9491V33.2106H165.979V12.9491H167.457ZM167.539 5.97656V7.86326H165.896V5.97656H167.539Z" fill="#090913"/>
<path fill-rule="evenodd" clip-rule="evenodd" d="M185.156 31.6481V32.9196C184.667 33.1096 184.104 33.2525 183.467 33.3482C183.462 33.3489 183.457 33.3496 183.452 33.3503C182.809 33.446 182.145 33.4938 181.461 33.4938C180.896 33.4969 180.332 33.4596 179.772 33.3823C178.348 33.1769 177.289 32.6877 176.595 31.9147C176.582 31.9004 176.569 31.8859 176.557 31.8713C175.764 30.9555 175.313 29.431 175.204 27.2977C175.187 26.9434 175.178 26.5888 175.179 26.2341V14.2577H171.688V12.9452H175.179L175.466 7.85937H176.657V12.9452H184.91V14.2577H176.657V26.1931C176.655 26.7146 176.678 27.2358 176.727 27.755C176.868 29.1911 177.221 30.2222 177.786 30.8483C178.112 31.1983 178.511 31.471 178.956 31.6465C179.681 31.9484 180.612 32.0993 181.748 32.0993C182.119 32.0987 182.49 32.0831 182.859 32.0526C183.105 32.0325 183.351 32.007 183.596 31.9763C183.789 31.9525 183.981 31.9242 184.172 31.8914C184.538 31.8277 184.849 31.7527 185.103 31.6666C185.121 31.6606 185.139 31.6544 185.156 31.6481Z" fill="#090913"/>
<path fill-rule="evenodd" clip-rule="evenodd" d="M201.658 22.1739V19.795C201.661 19.2645 201.628 18.7344 201.561 18.2082C201.404 17.0357 201.058 16.1262 200.521 15.4798C200.446 15.3896 200.367 15.3035 200.283 15.2219C199.374 14.3411 197.907 13.8968 195.883 13.8889C195.864 13.8888 195.846 13.8888 195.828 13.8889C195.327 13.8884 194.826 13.8989 194.325 13.9205C193.829 13.9423 193.362 13.9755 192.924 14.0201C192.824 14.0303 192.724 14.0412 192.625 14.0529C191.96 14.1325 191.3 14.2466 190.647 14.395C190.333 14.4658 190.02 14.5432 189.71 14.6271V13.2736C190.233 13.1513 190.759 13.0411 191.288 12.9431C191.784 12.8517 192.256 12.7782 192.702 12.7224C192.765 12.7144 192.828 12.7068 192.892 12.6994C193.271 12.6562 193.651 12.6228 194.032 12.5994C194.709 12.5567 195.458 12.5354 196.279 12.5354C196.917 12.5315 197.553 12.5791 198.183 12.6777C198.842 12.7852 199.431 12.9536 199.952 13.183C200.53 13.4303 201.054 13.7886 201.494 14.2375C202.588 15.3717 203.136 17.1955 203.136 19.7089C203.136 19.7103 203.136 19.7116 203.136 19.713V33.207H201.863L201.74 31.0332H201.699C201 31.6416 200.086 32.1525 198.959 32.5659C198.712 32.6566 198.461 32.7405 198.209 32.8173C196.731 33.2685 195.212 33.4941 193.651 33.4941C193.094 33.4974 192.537 33.4561 191.986 33.3706C190.735 33.1683 189.764 32.7173 189.073 32.0175C188.34 31.2754 187.884 30.2148 187.704 28.8356C187.643 28.3538 187.613 27.8685 187.615 27.3828C187.612 26.8428 187.658 26.3035 187.755 25.7722C187.993 24.5218 188.535 23.5821 189.381 22.9532C189.804 22.6493 190.27 22.4111 190.765 22.2469C191.686 21.9254 192.848 21.7318 194.25 21.6662C194.625 21.6489 195 21.6404 195.376 21.6407C196.416 21.6407 197.436 21.6817 198.435 21.7638C199.056 21.8155 199.676 21.8835 200.294 21.9676C200.75 22.0294 201.205 22.0982 201.658 22.1739ZM201.658 29.8027V23.4454C200.7 23.2813 199.708 23.1514 198.681 23.0557C197.655 22.96 196.58 22.9122 195.458 22.9122C193.077 22.9122 191.407 23.2403 190.449 23.8966C189.889 24.2858 189.475 24.85 189.272 25.5002C189.15 25.8612 189.071 26.265 189.035 26.7118C189.019 26.9078 189.011 27.1043 189.012 27.3008C189.009 27.7421 189.04 28.183 189.106 28.6194C189.176 29.069 189.285 29.4719 189.434 29.8282C189.607 30.2591 189.868 30.6487 190.202 30.9717C190.545 31.2876 190.947 31.5323 191.386 31.6915C192.1 31.9635 192.992 32.0996 194.062 32.0996C195.485 32.0996 196.909 31.8808 198.332 31.4433C199.756 31.0058 200.864 30.459 201.658 29.8027Z" fill="#090913"/>
<path fill-rule="evenodd" clip-rule="evenodd" d="M209.541 5.93359H211.019V33.2086H209.541V5.93359Z" fill="#090913"/>
<path d="M19.6391 10.8517L14.0841 13.8052L10.3159 12.0999L15.7329 8.83411L15.7406 6.24114L4.19128 12.2982L4.20058 29.4198L15.6022 35.8771L15.5242 32.6663L7.04706 28.2709L7.07672 13.6568L20.9434 20.5961L34.81 13.6568L34.8395 28.2709L26.3623 32.6663L26.2845 35.8771L37.6862 29.4198L37.6954 12.2982L26.1461 6.24114L26.1538 8.83411L31.5707 12.0999L27.8026 13.8052L22.2476 10.8517L22.4325 0L41.8867 10.4467V31.9342L22.2039 41.8867L22.2151 29.8619L29.9191 26.8627V19.9673L20.9434 24.6488L11.9676 19.9673V26.8627L19.6715 29.8619L19.6827 41.8867L0 31.9342V10.4467L19.4541 0L19.6391 10.8517Z" fill="#090913"/>
</svg>
