<svg viewBox="0 0 1850 500" xmlns="http://www.w3.org/2000/svg">
  <defs></defs>
  <g>
    <path d="M 234.449 130.043 L 168.134 165.15 L 123.15 144.88 L 187.818 106.06 L 187.909 75.238 L 50.035 147.237 L 50.146 350.757 L 186.257 427.514 L 185.326 389.348 L 84.127 337.101 L 84.481 163.386 L 250.02 245.872 L 415.557 163.386 L 415.91 337.101 L 314.71 389.348 L 313.781 427.514 L 449.893 350.757 L 450.003 147.237 L 312.129 75.238 L 312.221 106.06 L 376.887 144.88 L 331.904 165.15 L 265.589 130.043 L 267.797 1.051 L 500.038 125.229 L 500.038 380.645 L 265.068 498.948 L 265.201 356.012 L 357.17 320.362 L 357.17 238.398 L 250.02 294.045 L 142.868 238.398 L 142.868 320.362 L 234.836 356.012 L 234.97 498.948 L 0 380.645 L 0 125.229 L 232.241 1.051 L 234.449 130.043 Z" style="fill: midnightblue; stroke: none;"></path>
    <path d="M 628.755 210.747 L 628.755 326.851 L 593 326.851 L 593 174.714 L 625.98 174.714 L 627.521 186.108 L 628.446 186.108 C 632.19 183.793 636.051 181.676 640.017 179.765 C 643.708 177.984 647.514 176.451 651.409 175.176 C 656.225 173.595 661.194 172.523 666.235 171.979 C 668.426 171.75 670.628 171.635 672.831 171.634 C 676.187 171.62 679.54 171.848 682.864 172.318 C 687.158 172.944 691.058 174 694.56 175.483 C 700.622 178.05 705.503 182.003 709.202 187.341 L 710.126 187.341 C 717.729 182.413 726 178.564 734.939 175.792 C 743.877 173.02 752.661 171.634 761.291 171.634 C 771.755 171.634 780.369 173.637 787.133 177.643 C 789.896 179.27 792.404 181.292 794.58 183.645 C 798.187 187.638 800.903 192.353 802.545 197.476 C 803.85 201.35 804.747 205.653 805.235 210.386 C 805.537 213.371 805.684 216.37 805.676 219.37 L 805.676 326.851 L 769.922 326.851 L 769.922 223.989 C 769.936 222.068 769.768 220.15 769.42 218.261 C 768.627 214.124 766.893 210.9 764.22 208.591 C 762.604 207.232 760.751 206.182 758.755 205.492 C 755.387 204.273 751.199 203.663 746.188 203.663 C 741.257 203.663 736.223 204.279 731.085 205.511 C 727.68 206.318 724.335 207.362 721.075 208.633 C 719.665 209.187 718.275 209.789 716.908 210.438 C 717.112 211.465 717.215 212.594 717.215 213.826 L 717.215 219.37 L 717.215 326.851 L 681.461 326.851 L 681.461 223.989 C 681.474 222.068 681.306 220.15 680.959 218.261 C 680.166 214.124 678.432 210.9 675.759 208.591 C 674.142 207.232 672.29 206.182 670.294 205.492 C 666.926 204.273 662.737 203.663 657.728 203.663 C 654.917 203.672 652.111 203.893 649.335 204.325 C 647.548 204.599 645.772 204.943 644.012 205.357 C 641.165 206.031 638.362 206.878 635.619 207.895 C 633.293 208.753 631.003 209.704 628.755 210.747 Z" id="0" vector-effect="non-scaling-stroke" style=""></path>
    <path d="M 803.211 374.894 L 803.211 344.713 C 805.06 345.124 806.909 345.381 808.758 345.483 C 810.608 345.586 812.458 345.637 814.307 345.637 C 822.361 345.637 828.412 344.487 832.455 342.188 C 833.415 341.65 834.308 340.999 835.112 340.248 C 838.634 336.92 840.525 331.169 840.783 322.995 C 840.804 322.33 840.814 321.665 840.814 320.999 L 840.814 174.714 L 876.569 174.714 L 876.569 325.311 C 876.601 330.204 876.178 335.091 875.304 339.906 C 874.261 345.437 872.573 350.361 870.241 354.679 C 868.475 357.97 866.246 360.993 863.623 363.654 C 858.623 368.619 852.44 372.23 845.656 374.146 C 841.329 375.443 836.565 376.255 831.364 376.579 C 829.584 376.689 827.803 376.743 826.019 376.742 C 825.233 376.74 824.445 376.724 823.658 376.696 C 821.751 376.63 819.456 376.491 816.773 376.28 C 814.945 376.134 813.119 375.971 811.296 375.787 C 809.419 375.6 807.434 375.386 805.341 375.144 C 804.631 375.062 803.92 374.979 803.211 374.894 Z M 877.493 122.051 L 877.493 153.156 L 839.581 153.156 L 839.581 122.051 L 877.493 122.051 Z" id="1" vector-effect="non-scaling-stroke" style=""></path>
    <path d="M 910.165 122.051 L 945.919 122.051 L 945.919 326.851 L 910.165 326.851 L 910.165 122.051 Z" id="path-10" vector-effect="non-scaling-stroke" style=""></path>
  </g>
  <g id="svgGroup" stroke-linecap="round" fill-rule="evenodd" font-size="9pt" stroke="#000" stroke-width="0.25mm" fill="black" style="stroke: rgb(0, 0, 0); stroke-width: 0.25mm; fill: black;" transform="matrix(2.923108, 0, 0, 2.923108, 975.765869, 130.590546)">
    <path d="M 43.701 59.8 L 43.701 63.3 A 71.676 71.676 0 0 1 39.511 64.865 Q 36.595 65.845 34.101 66.35 Q 29.901 67.2 25.501 67.2 A 39.84 39.84 0 0 1 18.367 66.607 Q 14.536 65.908 11.577 64.386 A 17.025 17.025 0 0 1 5.851 59.7 A 22.141 22.141 0 0 1 2.55 53.471 Q 0.001 46.321 0.001 34.9 A 66.429 66.429 0 0 1 0.523 26.263 Q 1.804 16.527 6.226 11.004 A 19.465 19.465 0 0 1 6.601 10.55 A 20.304 20.304 0 0 1 15.647 4.56 Q 18.988 3.405 23.092 3.008 A 46.854 46.854 0 0 1 27.601 2.8 A 182.744 182.744 0 0 1 31.434 2.838 Q 33.19 2.875 34.768 2.948 A 107.888 107.888 0 0 1 35.801 3 Q 39.401 3.2 42.301 3.7 L 42.301 7.2 Q 39.001 6.7 35.551 6.5 A 110.918 110.918 0 0 0 32.331 6.363 Q 30.682 6.316 28.846 6.304 A 192.68 192.68 0 0 0 27.601 6.3 A 38.435 38.435 0 0 0 20.978 6.83 Q 17.478 7.444 14.752 8.768 A 15.962 15.962 0 0 0 9.301 13 A 19.836 19.836 0 0 0 6.072 18.875 Q 4.107 24.29 3.842 32.331 A 78.082 78.082 0 0 0 3.801 34.9 Q 3.801 47.498 6.909 54.133 A 16.285 16.285 0 0 0 8.751 57.2 Q 12.414 61.936 20.43 63.167 A 40.768 40.768 0 0 0 26.601 63.6 A 38.48 38.48 0 0 0 33.591 62.94 A 43.93 43.93 0 0 0 35.251 62.6 Q 39.701 61.6 43.701 59.8 Z" id="path-3" vector-effect="non-scaling-stroke"></path>
    <path d="M 85.801 39.6 L 85.801 33.8 A 29.335 29.335 0 0 0 85.564 29.931 Q 84.992 25.643 83.032 23.279 A 7.914 7.914 0 0 0 82.451 22.65 Q 79.131 19.429 71.735 19.4 A 34.373 34.373 0 0 0 71.601 19.4 A 83.077 83.077 0 0 0 67.942 19.477 Q 66.131 19.557 64.529 19.72 A 47.619 47.619 0 0 0 63.801 19.8 A 46.823 46.823 0 0 0 58.984 20.634 A 55.544 55.544 0 0 0 56.701 21.2 L 56.701 17.9 A 84.983 84.983 0 0 1 60.545 17.094 Q 62.359 16.76 63.989 16.556 A 49.711 49.711 0 0 1 64.451 16.5 A 53.46 53.46 0 0 1 67.228 16.256 Q 69.701 16.1 72.701 16.1 A 28.825 28.825 0 0 1 77.338 16.447 Q 79.743 16.84 81.645 17.679 A 11.708 11.708 0 0 1 85.401 20.25 Q 89.399 24.398 89.401 33.59 A 43.064 43.064 0 0 1 89.401 33.6 L 89.401 66.5 L 86.301 66.5 L 86.001 61.2 L 85.901 61.2 Q 83.346 63.425 79.228 64.937 A 34.812 34.812 0 0 1 77.401 65.55 Q 72.001 67.2 66.301 67.2 A 25.442 25.442 0 0 1 62.245 66.899 Q 57.675 66.159 55.151 63.6 Q 52.474 60.886 51.816 55.842 A 27.408 27.408 0 0 1 51.601 52.3 A 21.07 21.07 0 0 1 51.941 48.373 Q 52.81 43.8 55.901 41.5 A 12.548 12.548 0 0 1 59.271 39.778 Q 62.637 38.602 67.758 38.362 A 58.616 58.616 0 0 1 70.501 38.3 Q 74.301 38.3 77.951 38.6 A 87.159 87.159 0 0 1 82.479 39.097 A 109.161 109.161 0 0 1 85.801 39.6 Z M 85.801 58.2 L 85.801 42.7 Q 82.301 42.1 78.551 41.75 Q 74.801 41.4 70.701 41.4 Q 62.001 41.4 58.501 43.8 A 7.482 7.482 0 0 0 55.635 47.71 Q 55.189 49.03 55.057 50.664 A 17.778 17.778 0 0 0 55.001 52.1 A 20.918 20.918 0 0 0 55.23 55.315 Q 55.487 56.959 56.03 58.262 A 8.042 8.042 0 0 0 57.901 61.05 A 8.569 8.569 0 0 0 60.783 62.805 Q 63.391 63.8 67.301 63.8 Q 72.501 63.8 77.701 62.2 Q 82.901 60.6 85.801 58.2 Z" id="path-4" vector-effect="non-scaling-stroke"></path>
    <path d="M 108.601 64.8 L 108.601 81.7 L 105.001 81.7 L 105.001 17.1 L 108.001 17.1 L 108.301 21.6 L 108.601 21.6 Q 112.201 18.9 116.651 17.5 A 30.621 30.621 0 0 1 123.591 16.199 A 36.533 36.533 0 0 1 126.301 16.1 A 28.034 28.034 0 0 1 131.82 16.606 Q 134.959 17.237 137.329 18.657 A 13.279 13.279 0 0 1 141.201 22.15 A 18.409 18.409 0 0 1 143.763 27.178 Q 145.428 32.015 145.662 39.189 A 73.918 73.918 0 0 1 145.701 41.6 Q 145.701 55.4 140.401 61.3 Q 135.294 66.985 123.129 67.192 A 54.62 54.62 0 0 1 122.201 67.2 A 46.492 46.492 0 0 1 117.91 67.01 A 36.463 36.463 0 0 1 114.851 66.6 A 31.056 31.056 0 0 1 109.891 65.296 A 27.68 27.68 0 0 1 108.601 64.8 Z M 108.601 24.7 L 108.601 61.4 Q 111.501 62.6 114.751 63.2 A 35.405 35.405 0 0 0 118.613 63.685 A 45.437 45.437 0 0 0 121.901 63.8 Q 131.984 63.8 136.57 59.995 A 10.454 10.454 0 0 0 137.751 58.85 A 13.875 13.875 0 0 0 140.205 54.637 Q 141.763 50.596 142.041 44.393 A 62.509 62.509 0 0 0 142.101 41.6 Q 142.101 31.736 139.567 26.534 A 13.131 13.131 0 0 0 138.351 24.5 Q 134.601 19.4 125.201 19.4 Q 120.501 19.4 116.201 20.75 A 24.089 24.089 0 0 0 110.092 23.622 A 22.14 22.14 0 0 0 108.601 24.7 Z" id="path-5" vector-effect="non-scaling-stroke"></path>
    <path d="M 163.001 17.1 L 163.001 66.5 L 159.401 66.5 L 159.401 17.1 L 163.001 17.1 Z M 163.201 0.1 L 163.201 4.7 L 159.201 4.7 L 159.201 0.1 L 163.201 0.1 Z" id="path-6" vector-effect="non-scaling-stroke"></path>
    <path d="M 206.101 62.7 L 206.101 65.8 Q 204.315 66.495 201.987 66.845 A 26.522 26.522 0 0 1 201.951 66.85 Q 199.601 67.2 197.101 67.2 A 28.883 28.883 0 0 1 192.988 66.928 Q 187.784 66.177 185.251 63.35 A 8.085 8.085 0 0 1 185.157 63.244 Q 182.261 59.895 181.864 52.093 A 51.065 51.065 0 0 1 181.801 49.5 L 181.801 20.3 L 173.301 20.3 L 173.301 17.1 L 181.801 17.1 L 182.501 4.7 L 185.401 4.7 L 185.401 17.1 L 205.501 17.1 L 205.501 20.3 L 185.401 20.3 L 185.401 49.4 A 39.245 39.245 0 0 0 185.571 53.208 Q 186.086 58.46 188.151 60.75 A 7.806 7.806 0 0 0 191.001 62.696 Q 193.65 63.8 197.801 63.8 A 33.549 33.549 0 0 0 200.507 63.686 A 41.466 41.466 0 0 0 202.301 63.5 A 29.888 29.888 0 0 0 203.703 63.293 Q 205.043 63.06 205.971 62.745 A 8.769 8.769 0 0 0 206.101 62.7 Z" id="path-7" vector-effect="non-scaling-stroke"></path>
    <path d="M 246.301 39.6 L 246.301 33.8 A 29.335 29.335 0 0 0 246.064 29.931 Q 245.492 25.643 243.532 23.279 A 7.914 7.914 0 0 0 242.951 22.65 Q 239.631 19.429 232.235 19.4 A 34.373 34.373 0 0 0 232.101 19.4 A 83.077 83.077 0 0 0 228.442 19.477 Q 226.631 19.557 225.029 19.72 A 47.619 47.619 0 0 0 224.301 19.8 A 46.823 46.823 0 0 0 219.484 20.634 A 55.544 55.544 0 0 0 217.201 21.2 L 217.201 17.9 A 84.983 84.983 0 0 1 221.045 17.094 Q 222.859 16.76 224.489 16.556 A 49.711 49.711 0 0 1 224.951 16.5 A 53.46 53.46 0 0 1 227.728 16.256 Q 230.201 16.1 233.201 16.1 A 28.825 28.825 0 0 1 237.838 16.447 Q 240.243 16.84 242.145 17.679 A 11.708 11.708 0 0 1 245.901 20.25 Q 249.899 24.398 249.901 33.59 A 43.064 43.064 0 0 1 249.901 33.6 L 249.901 66.5 L 246.801 66.5 L 246.501 61.2 L 246.401 61.2 Q 243.846 63.425 239.728 64.937 A 34.812 34.812 0 0 1 237.901 65.55 Q 232.501 67.2 226.801 67.2 A 25.442 25.442 0 0 1 222.745 66.899 Q 218.175 66.159 215.651 63.6 Q 212.974 60.886 212.316 55.842 A 27.408 27.408 0 0 1 212.101 52.3 A 21.07 21.07 0 0 1 212.441 48.373 Q 213.31 43.8 216.401 41.5 A 12.548 12.548 0 0 1 219.771 39.778 Q 223.137 38.602 228.258 38.362 A 58.616 58.616 0 0 1 231.001 38.3 Q 234.801 38.3 238.451 38.6 A 87.159 87.159 0 0 1 242.979 39.097 A 109.161 109.161 0 0 1 246.301 39.6 Z M 246.301 58.2 L 246.301 42.7 Q 242.801 42.1 239.051 41.75 Q 235.301 41.4 231.201 41.4 Q 222.501 41.4 219.001 43.8 A 7.482 7.482 0 0 0 216.135 47.71 Q 215.689 49.03 215.557 50.664 A 17.778 17.778 0 0 0 215.501 52.1 A 20.918 20.918 0 0 0 215.73 55.315 Q 215.987 56.959 216.53 58.262 A 8.042 8.042 0 0 0 218.401 61.05 A 8.569 8.569 0 0 0 221.283 62.805 Q 223.891 63.8 227.801 63.8 Q 233.001 63.8 238.201 62.2 Q 243.401 60.6 246.301 58.2 Z" id="path-8" vector-effect="non-scaling-stroke"></path>
    <path d="M 265.501 0 L 269.101 0 L 269.101 66.5 L 265.501 66.5 L 265.501 0 Z" id="path-9" vector-effect="non-scaling-stroke"></path>
  </g>
</svg>