<svg xmlns="http://www.w3.org/2000/svg" width="600" height="140" viewBox="0 0 675 140" fill="none">
  <g clip-path="url(#clip0_1011_71486)" transform="matrix(1.148957, 0, 0, 1.148957, -1203.757446, -792.560486)" style="">
    <path d="M1254.56 783.233H1263.64V748.191C1263.64 738.467 1258.8 733.562 1249.84 733.562C1246.56 733.632 1243.34 734.488 1240.47 736.057C1237.59 737.626 1235.13 739.863 1233.31 742.578C1232.51 739.778 1230.75 737.346 1228.34 735.7C1225.93 734.054 1223.02 733.298 1220.11 733.562C1217.06 733.687 1214.08 734.469 1211.37 735.855C1208.66 737.24 1206.28 739.195 1204.4 741.585V734.753H1195.47V783.233H1204.52V748.616C1205.84 746.627 1207.59 744.96 1209.65 743.743C1211.71 742.525 1214.02 741.788 1216.41 741.585C1222.55 741.585 1224.94 745.299 1224.94 750.913V783.233H1233.99V748.503C1235.33 746.497 1237.12 744.828 1239.22 743.628C1241.32 742.428 1243.67 741.729 1246.08 741.585C1252.03 741.585 1254.62 745.299 1254.62 750.913L1254.56 783.233ZM1282.5 726.531C1284.01 726.531 1285.46 725.934 1286.52 724.87C1287.59 723.807 1288.19 722.365 1288.19 720.861C1288.15 719.368 1287.54 717.947 1286.48 716.891C1285.42 715.835 1284 715.226 1282.5 715.19C1280.98 715.204 1279.52 715.8 1278.43 716.856C1277.34 717.912 1276.7 719.346 1276.64 720.861C1276.65 722.4 1277.28 723.871 1278.37 724.954C1279.47 726.037 1280.95 726.644 1282.5 726.644V726.531ZM1287.11 734.639H1278.06V787.032C1278.06 792.703 1274.93 795.169 1270.81 795.169C1269.67 795.192 1268.54 795.058 1267.45 794.772L1266.34 802.285C1268.16 802.712 1270.02 802.912 1271.89 802.881C1281.76 802.881 1287.08 796.955 1287.08 787.032L1287.11 734.639ZM1301.59 783.233H1310.64V716.296H1301.59V783.233Z" fill="black"/>
    <path d="M1365.09 784.423C1369.86 784.515 1374.58 783.482 1378.87 781.408C1383.17 779.333 1386.9 776.277 1389.78 772.487L1384.95 769.482C1382.63 772.548 1379.62 775.026 1376.16 776.716C1372.7 778.405 1368.89 779.259 1365.03 779.207C1349.41 779.207 1337.24 767.072 1337.24 749.806C1337.24 732.541 1349.41 720.406 1365.03 720.406C1368.89 720.354 1372.7 721.207 1376.16 722.897C1379.62 724.586 1382.63 727.065 1384.95 730.131L1389.78 727.04C1386.89 723.279 1383.15 720.247 1378.87 718.189C1374.58 716.131 1369.87 715.103 1365.12 715.19C1346.28 715.19 1331.29 729.365 1331.29 749.806C1331.29 770.248 1346.26 784.423 1365.09 784.423ZM1432.12 783.233H1437.35V749.211C1437.35 738.381 1429.5 733.675 1419.63 733.675C1416.1 733.545 1412.58 734.206 1409.34 735.609C1406.1 737.012 1403.22 739.122 1400.91 741.783L1403.75 745.412C1405.57 743.141 1407.88 741.317 1410.51 740.083C1413.15 738.849 1416.03 738.237 1418.95 738.296C1426.2 738.296 1432.03 742.208 1432.03 749.41V759.247C1429.96 756.955 1427.41 755.147 1424.56 753.951C1421.71 752.755 1418.62 752.202 1415.53 752.33C1407 752.33 1398.46 758 1398.46 768.376C1398.47 770.57 1398.92 772.739 1399.79 774.754C1400.66 776.768 1401.93 778.586 1403.53 780.096C1405.12 781.607 1407.01 782.78 1409.07 783.543C1411.14 784.306 1413.33 784.644 1415.53 784.537C1418.62 784.655 1421.7 784.097 1424.55 782.902C1427.4 781.707 1429.96 779.903 1432.03 777.619L1432.12 783.233ZM1432.12 773.678C1430.35 775.838 1428.11 777.56 1425.56 778.711C1423.01 779.862 1420.23 780.41 1417.44 780.312C1409.36 780.312 1404.12 775.181 1404.12 768.376C1404.12 761.572 1409.36 756.327 1417.44 756.327C1420.24 756.25 1423.02 756.816 1425.56 757.982C1428.11 759.147 1430.35 760.88 1432.12 763.046V773.678ZM1458.95 801.689V775.408C1460.84 778.153 1463.36 780.406 1466.31 781.975C1469.25 783.544 1472.53 784.384 1475.87 784.423C1488.85 784.423 1497.61 774.387 1497.61 758.907C1497.61 743.427 1488.85 733.533 1475.87 733.533C1472.56 733.558 1469.29 734.369 1466.35 735.896C1463.41 737.424 1460.87 739.626 1458.95 742.322V734.752H1453.71V801.689H1458.95ZM1491.98 758.936C1491.98 770.673 1485.83 779.717 1474.91 779.717C1471.72 779.627 1468.61 778.777 1465.82 777.238C1463.03 775.698 1460.66 773.515 1458.89 770.871V746.886C1460.68 744.294 1463.07 742.168 1465.86 740.688C1468.65 739.208 1471.75 738.416 1474.91 738.381C1485.83 738.267 1491.98 747.198 1491.98 758.936ZM1513.77 726.53C1514.78 726.445 1515.72 725.986 1516.41 725.243C1517.09 724.5 1517.47 723.528 1517.47 722.518C1517.47 721.509 1517.09 720.537 1516.41 719.794C1515.72 719.051 1514.78 718.591 1513.77 718.507C1513.21 718.46 1512.65 718.529 1512.12 718.709C1511.59 718.89 1511.11 719.178 1510.7 719.555C1510.29 719.932 1509.96 720.39 1509.73 720.9C1509.51 721.41 1509.39 721.961 1509.39 722.518C1509.39 723.076 1509.51 723.627 1509.73 724.137C1509.96 724.647 1510.29 725.105 1510.7 725.482C1511.11 725.859 1511.59 726.147 1512.12 726.327C1512.65 726.508 1513.21 726.577 1513.77 726.53ZM1511.15 783.233H1516.39V734.752H1511.15V783.233ZM1543.25 784.423C1544.75 784.522 1546.27 784.306 1547.69 783.788C1549.11 783.271 1550.41 782.464 1551.5 781.418L1549.5 777.392C1548.8 778.123 1547.96 778.706 1547.02 779.105C1546.09 779.505 1545.09 779.713 1544.07 779.717C1540.63 779.717 1539.03 776.882 1539.03 773.083V739.487H1548.88V734.752H1539.03V721.512H1533.69V734.752H1525.63V739.487H1533.69V773.877C1533.69 780.511 1536.82 784.423 1543.25 784.423ZM1591.33 783.233H1596.56V749.211C1596.56 738.381 1588.71 733.675 1578.84 733.675C1575.31 733.545 1571.79 734.206 1568.55 735.609C1565.31 737.012 1562.43 739.122 1560.12 741.783L1562.96 745.412C1564.78 743.137 1567.09 741.311 1569.73 740.076C1572.38 738.842 1575.27 738.233 1578.18 738.296C1585.41 738.296 1591.27 742.208 1591.27 749.41V759.247C1589.2 756.932 1586.64 755.101 1583.78 753.885C1580.92 752.67 1577.82 752.1 1574.71 752.216C1566.18 752.216 1557.64 757.887 1557.64 768.263C1557.65 770.455 1558.1 772.623 1558.98 774.635C1559.85 776.648 1561.12 778.464 1562.71 779.974C1564.31 781.484 1566.19 782.656 1568.26 783.421C1570.32 784.186 1572.51 784.527 1574.71 784.423C1577.81 784.542 1580.89 783.984 1583.74 782.789C1586.6 781.594 1589.16 779.791 1591.24 777.506L1591.33 783.233ZM1591.33 773.678C1589.55 775.837 1587.3 777.558 1584.75 778.709C1582.2 779.859 1579.42 780.408 1576.62 780.312C1568.57 780.312 1563.33 775.181 1563.33 768.376C1563.33 761.572 1568.57 756.327 1576.62 756.327C1579.42 756.255 1582.2 756.822 1584.75 757.987C1587.3 759.152 1589.55 760.882 1591.33 763.046V773.678ZM1612.92 783.233H1618.15V716.295H1612.92V783.233Z" fill="black"/>
    <path d="M1167.87 750.487C1167.94 762.276 1164.49 773.821 1157.97 783.656C1151.45 793.492 1142.14 801.176 1131.23 805.734C1120.32 810.293 1108.29 811.52 1096.68 809.262C1085.07 807.003 1074.39 801.36 1066 793.047C1057.61 784.734 1051.89 774.126 1049.56 762.568C1047.22 751.009 1048.39 739.021 1052.9 728.122C1057.41 717.223 1065.07 707.905 1074.9 701.347C1084.73 694.79 1096.3 691.29 1108.13 691.289C1115.95 691.263 1123.7 692.774 1130.94 695.736C1138.18 698.697 1144.76 703.051 1150.31 708.549C1155.86 714.047 1160.27 720.58 1163.28 727.776C1166.29 734.972 1167.85 742.689 1167.87 750.487Z" fill="#007AC1"/>
  </g>
  <defs>
    <clipPath id="clip0_1011_71486">
      <rect width="2666.54" height="1500" fill="black" transform="translate(0 0.827148)"/>
    </clipPath>
  </defs>
</svg>
