
<svg xmlns="http://www.w3.org/2000/svg" version="1.1" viewBox="0 0 853 204" width="1100.0pt" height="204.0pt">
  <path d="M 76.97 3.10 C 106.94 2.89 137.12 3.05 167.05 3.22 C 171.20 3.30 175.29 4.74 177.71 8.29 C 180.70 12.64 180.89 17.91 180.88 23.00 C 180.81 29.66 180.95 36.33 180.82 42.99 C 180.62 49.23 177.71 55.86 172.28 59.27 C 169.68 60.97 166.98 60.66 164.01 60.74 C 157.75 60.69 151.50 60.74 145.24 60.68 C 145.60 68.78 145.32 76.89 145.45 85.00 C 145.36 86.83 145.68 89.01 144.64 90.57 C 138.33 91.15 131.84 90.80 125.50 90.70 C 125.07 81.00 125.38 71.25 125.32 61.53 C 120.83 61.23 116.30 61.55 111.82 61.14 C 110.14 59.89 108.93 57.89 107.70 56.21 C 104.89 52.04 101.81 48.01 99.18 43.72 C 98.36 42.50 98.41 41.24 98.28 39.83 C 118.52 39.82 138.77 39.96 159.00 40.00 C 159.00 34.00 159.00 28.00 159.00 22.00 C 134.23 21.88 109.05 22.46 84.38 21.49 C 82.65 19.95 81.33 17.88 79.99 16.00 C 77.31 12.02 74.40 8.29 71.97 4.18 C 73.70 3.35 75.04 3.07 76.97 3.10 Z" fill="#fff"/>
  <path d="M 293.00 3.08 C 322.00 2.89 351.01 3.07 380.02 3.02 C 384.35 2.95 388.59 4.06 391.37 7.60 C 394.87 12.24 395.41 18.36 395.05 23.97 C 394.43 31.96 395.21 40.02 394.59 48.00 C 393.67 55.17 388.56 60.10 381.78 62.08 C 393.96 74.19 406.60 85.82 418.70 98.01 C 427.29 107.09 436.50 115.60 444.75 124.99 C 433.93 125.01 423.12 125.00 412.31 124.99 C 403.12 116.01 393.91 107.05 384.80 98.00 C 379.17 92.37 373.28 86.99 367.78 81.24 C 363.37 75.94 358.27 71.48 353.45 66.55 C 351.98 65.21 350.27 63.21 348.22 62.92 C 344.44 62.57 340.59 62.81 336.80 62.78 C 336.76 71.46 336.82 80.14 336.76 88.82 C 336.22 89.33 335.67 89.84 335.13 90.35 C 328.79 90.35 322.45 90.34 316.10 90.35 C 315.57 89.74 315.03 89.13 314.49 88.52 C 314.51 72.68 314.50 56.84 314.50 41.00 C 334.00 41.00 353.50 41.00 373.00 41.00 C 373.00 34.67 373.00 28.33 373.00 22.00 C 349.66 22.04 326.33 22.02 302.99 22.03 C 301.54 21.97 299.91 22.10 298.52 21.61 C 296.90 20.22 295.64 18.32 294.40 16.58 C 291.52 12.34 288.43 8.29 285.81 3.88 C 288.20 3.27 290.54 3.06 293.00 3.08 Z" fill="#fff"/>
  <path d="M 422.95 3.00 C 453.03 2.99 482.96 3.01 513.02 3.03 C 517.70 3.04 522.64 4.69 525.13 8.92 C 527.97 13.60 527.79 18.69 527.94 23.97 C 495.42 24.02 462.91 24.02 430.39 23.97 C 426.14 17.64 422.28 11.06 418.65 4.35 C 420.09 3.48 421.20 2.90 422.95 3.00 Z" fill="#fff"/>
  <path d="M 546.91 3.21 C 573.93 2.87 600.97 3.14 628.00 3.05 C 633.99 3.14 640.04 2.97 646.01 3.53 C 645.57 8.51 641.76 13.03 639.42 17.41 C 637.16 20.87 635.98 25.19 633.30 28.29 C 624.42 28.85 615.34 28.35 606.42 28.50 C 606.43 48.43 606.39 68.37 606.44 88.30 C 605.89 89.01 605.33 89.72 604.78 90.42 C 598.24 90.48 591.71 90.44 585.17 90.46 C 584.59 89.80 584.00 89.14 583.42 88.48 C 583.42 68.49 583.43 48.50 583.42 28.51 C 574.50 28.50 565.58 28.55 556.67 28.48 C 552.24 20.72 547.70 13.01 543.36 5.21 C 544.53 4.01 545.05 3.05 546.91 3.21 Z" fill="#fff"/>
  <path d="M 677.96 3.18 C 695.65 3.18 713.32 3.20 731.01 3.17 C 735.66 3.15 740.23 3.87 743.50 7.48 C 746.95 11.59 747.90 16.76 747.93 21.99 C 747.93 38.00 747.93 54.00 747.93 70.01 C 747.91 75.79 746.76 81.33 742.60 85.59 C 739.28 89.12 734.73 90.31 730.01 90.36 C 714.68 90.36 699.33 90.32 684.00 90.37 C 680.45 90.35 677.15 90.55 673.70 89.54 C 669.88 88.52 666.75 85.77 664.70 82.46 C 662.16 78.24 661.63 72.82 661.68 68.00 C 661.73 57.99 661.69 47.97 661.71 37.95 C 666.51 36.25 671.02 36.89 676.00 36.76 C 678.92 36.69 681.52 37.07 684.31 37.88 C 684.37 46.99 684.26 56.11 684.37 65.22 C 698.04 65.21 711.72 65.21 725.39 65.22 C 725.23 51.50 725.91 37.69 724.92 24.00 C 703.80 23.98 682.69 24.05 661.58 23.96 C 661.74 18.57 662.30 12.24 665.88 7.91 C 668.94 4.23 673.36 3.19 677.96 3.18 Z" fill="#fff"/>
  <path d="M 231.20 3.55 C 238.56 3.55 245.92 3.55 253.28 3.55 C 266.65 31.42 280.03 59.29 293.41 87.16 C 292.89 87.96 292.38 88.77 291.86 89.57 C 275.33 89.58 258.80 89.56 242.27 89.58 C 241.68 89.04 241.09 88.50 240.50 87.96 C 240.58 82.62 240.31 77.26 240.60 71.93 C 240.47 70.32 242.61 69.63 243.93 69.73 C 248.88 69.62 253.83 69.77 258.78 69.71 C 253.21 57.90 247.76 46.03 242.23 34.20 C 233.64 52.66 225.02 71.11 216.44 89.57 C 208.48 89.57 200.53 89.58 192.57 89.57 C 192.07 88.76 191.56 87.96 191.06 87.16 C 204.44 59.29 217.83 31.43 231.20 3.55 Z" fill="#fff"/>
  <path d="M 430.19 34.56 C 450.23 34.18 470.43 34.51 490.50 34.40 C 490.41 41.46 490.51 48.52 490.47 55.57 C 476.84 55.59 463.20 55.60 449.57 55.57 C 449.54 60.69 449.77 65.91 449.31 71.01 C 469.55 70.97 489.81 70.95 510.04 71.00 C 511.14 71.13 513.20 70.87 513.84 72.00 C 516.18 75.13 517.99 78.67 520.12 81.96 C 521.47 84.25 523.32 86.78 523.77 89.43 C 519.62 90.22 515.22 89.82 511.00 89.98 C 487.99 89.94 464.96 90.15 441.95 89.76 C 438.79 89.73 435.89 88.61 433.80 86.19 C 430.35 82.11 430.04 76.08 430.08 70.99 C 430.44 58.86 430.05 46.66 430.19 34.56 Z" fill="#fff"/>
  <g id="svgg" transform="matrix(1, 0, 0.013142, 1.273072, 846.742065, 181.465942)" style="">
    <path id="path0" d="M110.097 23.978 C 110.048 24.058,109.406 24.175,108.670 24.240 C 107.935 24.304,107.333 24.424,107.333 24.506 C 107.333 24.589,107.216 24.611,107.072 24.556 C 106.928 24.501,106.647 24.530,106.447 24.622 C 106.247 24.713,105.738 24.948,105.315 25.144 C 104.893 25.340,104.467 25.500,104.369 25.500 C 104.271 25.500,104.090 25.600,103.968 25.723 C 103.845 25.845,103.386 26.146,102.947 26.391 C 102.508 26.636,102.041 26.929,101.908 27.043 C 101.229 27.625,99.500 29.363,99.498 29.466 C 99.497 29.530,99.346 29.771,99.163 30.000 C 98.550 30.769,98.000 31.679,98.000 31.924 C 98.000 32.057,97.931 32.167,97.846 32.167 C 97.762 32.167,97.603 32.436,97.495 32.766 C 97.386 33.096,97.193 33.565,97.066 33.808 C 96.939 34.051,96.835 34.377,96.834 34.532 C 96.834 34.687,96.762 34.858,96.674 34.912 C 96.586 34.966,96.554 35.113,96.602 35.238 C 96.650 35.364,96.614 35.513,96.523 35.569 C 96.431 35.626,96.304 36.271,96.240 37.003 C 96.176 37.735,96.062 38.333,95.987 38.333 C 95.912 38.333,95.850 39.683,95.850 41.333 C 95.849 42.983,95.909 44.333,95.984 44.333 C 96.058 44.333,96.169 44.942,96.232 45.686 C 96.294 46.429,96.454 47.251,96.589 47.511 C 96.723 47.771,96.833 48.104,96.833 48.251 C 96.833 48.398,96.978 48.836,97.154 49.223 C 97.331 49.611,97.527 50.132,97.589 50.381 C 97.652 50.630,97.762 50.833,97.833 50.833 C 97.905 50.833,98.015 51.039,98.078 51.290 C 98.142 51.541,98.244 51.785,98.305 51.832 C 98.367 51.878,98.623 52.217,98.873 52.583 C 99.124 52.950,99.632 53.550,100.002 53.917 C 100.373 54.283,100.948 54.865,101.281 55.208 C 101.614 55.552,101.987 55.833,102.110 55.833 C 102.233 55.833,102.333 55.910,102.333 56.004 C 102.333 56.098,102.521 56.246,102.750 56.333 C 102.979 56.420,103.167 56.581,103.167 56.690 C 103.167 56.800,103.214 56.841,103.273 56.783 C 103.331 56.724,103.583 56.822,103.833 57.000 C 104.083 57.178,104.335 57.276,104.394 57.217 C 104.452 57.159,104.500 57.193,104.500 57.292 C 104.500 57.392,104.744 57.526,105.042 57.589 C 105.340 57.653,105.658 57.761,105.750 57.829 C 105.987 58.004,107.400 58.333,107.917 58.333 C 108.157 58.333,108.311 58.401,108.260 58.484 C 108.017 58.877,116.060 58.932,116.313 58.540 C 116.370 58.452,116.792 58.319,117.250 58.246 C 118.479 58.049,118.475 58.050,119.138 57.735 C 119.475 57.575,119.844 57.445,119.958 57.445 C 120.073 57.444,120.167 57.378,120.167 57.296 C 120.167 57.214,120.242 57.193,120.333 57.250 C 120.425 57.307,120.500 57.282,120.500 57.195 C 120.500 57.107,120.688 56.989,120.917 56.932 C 121.146 56.874,121.333 56.753,121.333 56.663 C 121.333 56.574,121.474 56.500,121.646 56.500 C 121.818 56.500,122.054 56.386,122.170 56.246 C 122.286 56.106,122.414 56.025,122.454 56.065 C 122.995 56.606,123.527 52.134,123.066 50.930 C 122.935 50.590,122.797 50.598,122.369 50.969 C 122.178 51.135,121.817 51.416,121.569 51.594 C 121.320 51.771,120.979 52.046,120.812 52.204 C 120.645 52.362,120.318 52.539,120.085 52.598 C 119.853 52.656,119.607 52.789,119.540 52.894 C 118.871 53.926,110.342 55.548,110.334 54.644 C 110.334 54.586,109.902 54.485,109.375 54.420 C 108.848 54.355,108.342 54.244,108.250 54.175 C 108.158 54.105,107.839 53.966,107.541 53.866 C 105.653 53.231,102.708 50.251,102.388 48.651 C 102.335 48.384,102.236 48.167,102.169 48.167 C 102.101 48.167,101.949 47.698,101.831 47.125 C 101.713 46.552,101.549 45.996,101.467 45.889 C 101.277 45.645,101.040 41.969,101.113 40.417 C 101.222 38.106,101.365 36.833,101.514 36.833 C 101.598 36.833,101.667 36.684,101.667 36.502 C 101.667 36.016,102.050 34.667,102.188 34.667 C 102.253 34.667,102.356 34.441,102.417 34.165 C 102.606 33.304,104.374 30.847,104.721 30.962 C 104.796 30.988,104.815 30.939,104.763 30.854 C 104.527 30.472,107.779 28.697,108.972 28.556 C 109.441 28.500,109.790 28.398,109.747 28.328 C 109.704 28.259,110.342 28.149,111.166 28.083 C 112.811 27.953,115.333 28.115,115.333 28.351 C 115.333 28.433,115.525 28.500,115.760 28.500 C 116.253 28.500,117.711 28.841,117.833 28.985 C 117.879 29.039,118.404 29.324,119.000 29.618 C 120.367 30.293,120.932 30.642,121.511 31.167 C 123.187 32.686,123.130 32.736,123.157 29.708 C 123.178 27.375,123.161 27.237,122.824 27.000 C 122.629 26.862,122.314 26.619,122.126 26.458 C 121.937 26.298,121.687 26.167,121.570 26.167 C 121.453 26.167,121.258 26.069,121.137 25.949 C 120.936 25.750,120.274 25.484,118.667 24.955 C 118.346 24.850,118.046 24.720,118.000 24.668 C 117.954 24.615,117.804 24.579,117.667 24.588 C 117.529 24.597,117.338 24.546,117.241 24.475 C 117.144 24.404,116.450 24.295,115.699 24.233 C 114.948 24.170,114.333 24.055,114.333 23.976 C 114.333 23.788,110.213 23.790,110.097 23.978 M209.905 24.019 C 209.855 24.100,209.534 24.167,209.193 24.167 C 208.852 24.167,208.163 24.282,207.661 24.424 C 207.160 24.565,206.471 24.752,206.131 24.840 C 205.790 24.927,205.257 25.142,204.945 25.317 C 204.634 25.492,204.200 25.736,203.981 25.859 C 203.762 25.983,203.452 26.189,203.292 26.317 C 203.131 26.446,203.000 26.509,203.000 26.457 C 203.000 26.334,201.996 27.209,201.019 28.185 C 200.156 29.046,199.506 29.848,199.502 30.054 C 199.501 30.129,199.406 30.295,199.292 30.423 C 198.748 31.029,198.657 31.183,198.751 31.335 C 198.807 31.426,198.775 31.500,198.680 31.500 C 198.584 31.500,198.459 31.688,198.402 31.917 C 198.344 32.146,198.233 32.333,198.155 32.333 C 198.077 32.333,197.929 32.643,197.827 33.022 C 197.725 33.401,197.578 33.832,197.500 33.980 C 197.220 34.510,196.815 36.044,196.897 36.260 C 196.943 36.380,196.905 36.504,196.812 36.535 C 196.718 36.566,196.600 37.460,196.547 38.546 C 196.494 39.621,196.396 40.500,196.330 40.500 C 196.265 40.500,196.201 40.912,196.189 41.417 C 196.178 41.921,196.232 42.333,196.310 42.333 C 196.387 42.333,196.493 43.244,196.544 44.356 C 196.595 45.469,196.703 46.425,196.783 46.481 C 196.862 46.537,196.921 46.696,196.912 46.833 C 196.903 46.971,196.948 47.158,197.010 47.250 C 197.073 47.342,197.176 47.773,197.239 48.208 C 197.302 48.644,197.410 49.000,197.479 49.000 C 197.547 49.000,197.700 49.375,197.817 49.833 C 197.935 50.292,198.099 50.667,198.182 50.667 C 198.265 50.667,198.333 50.774,198.333 50.905 C 198.333 51.036,198.451 51.261,198.595 51.405 C 198.739 51.549,198.811 51.667,198.754 51.667 C 198.698 51.667,198.899 51.997,199.201 52.400 C 199.503 52.803,199.900 53.341,200.083 53.596 C 200.467 54.128,201.013 54.667,201.170 54.667 C 201.229 54.667,201.376 54.852,201.497 55.078 C 201.618 55.304,201.781 55.449,201.858 55.401 C 201.936 55.353,202.000 55.383,202.000 55.467 C 202.000 55.635,203.921 57.000,204.158 57.000 C 204.239 57.000,204.331 57.058,204.361 57.128 C 204.460 57.356,206.624 58.193,207.365 58.290 C 207.760 58.341,208.137 58.466,208.202 58.567 C 208.383 58.845,215.699 58.821,215.792 58.542 C 215.830 58.427,216.034 58.333,216.245 58.333 C 216.794 58.333,219.168 57.515,219.692 57.145 C 219.936 56.974,220.184 56.833,220.243 56.833 C 220.303 56.833,220.591 56.609,220.884 56.334 C 221.177 56.060,221.486 55.835,221.570 55.834 C 221.705 55.833,223.331 54.200,223.989 53.404 C 224.900 52.302,226.333 49.660,226.333 49.083 C 226.333 48.946,226.396 48.833,226.472 48.833 C 226.548 48.833,226.692 48.440,226.791 47.958 C 226.891 47.477,227.058 46.783,227.164 46.417 C 227.484 45.307,227.559 38.994,227.273 37.333 C 226.965 35.549,226.666 34.298,226.497 34.083 C 226.425 33.992,226.276 33.579,226.166 33.167 C 226.056 32.754,225.917 32.379,225.858 32.333 C 225.798 32.287,225.528 31.819,225.256 31.292 C 224.984 30.765,224.700 30.333,224.626 30.333 C 224.551 30.333,224.440 30.205,224.380 30.049 C 224.255 29.722,223.848 29.227,222.952 28.312 C 222.605 27.957,222.380 27.666,222.452 27.666 C 222.524 27.666,222.358 27.522,222.083 27.348 C 221.808 27.173,221.321 26.798,221.000 26.515 C 220.679 26.232,220.323 26.001,220.208 26.000 C 220.094 26.000,220.000 25.925,220.000 25.833 C 220.000 25.742,219.921 25.667,219.825 25.667 C 219.729 25.667,219.340 25.517,218.961 25.333 C 218.581 25.150,218.191 25.000,218.094 24.999 C 217.996 24.998,217.699 24.885,217.434 24.746 C 217.168 24.607,216.912 24.532,216.866 24.579 C 216.819 24.626,216.689 24.587,216.576 24.494 C 216.464 24.401,215.857 24.279,215.228 24.223 C 214.598 24.167,213.996 24.053,213.890 23.969 C 213.644 23.776,210.027 23.822,209.905 24.019 M269.667 23.990 C 269.667 24.087,269.417 24.167,269.111 24.167 C 268.426 24.167,266.643 24.504,266.417 24.677 C 266.325 24.746,265.969 24.856,265.625 24.920 C 265.281 24.985,265.000 25.096,265.000 25.167 C 265.000 25.239,264.826 25.341,264.613 25.394 C 264.400 25.448,263.879 25.756,263.456 26.079 C 263.033 26.402,262.624 26.667,262.547 26.667 C 262.470 26.667,262.286 26.798,262.137 26.958 C 261.988 27.119,261.577 27.521,261.225 27.852 C 260.526 28.508,259.833 29.288,259.833 29.418 C 259.833 29.463,259.702 29.645,259.542 29.821 C 259.004 30.413,258.829 30.655,258.663 31.037 C 258.572 31.246,258.278 31.804,258.009 32.277 C 257.741 32.750,257.470 33.406,257.408 33.735 C 257.347 34.064,257.238 34.333,257.167 34.333 C 257.096 34.333,256.985 34.690,256.919 35.125 C 256.854 35.560,256.754 35.992,256.697 36.083 C 256.168 36.929,256.033 44.286,256.513 46.083 C 256.611 46.450,256.773 47.125,256.873 47.583 C 256.972 48.042,257.105 48.454,257.168 48.500 C 257.231 48.546,257.334 48.808,257.398 49.083 C 257.569 49.817,258.844 52.327,259.290 52.809 C 259.502 53.038,259.821 53.460,259.999 53.748 C 260.176 54.036,260.512 54.373,260.744 54.497 C 260.977 54.621,261.167 54.814,261.167 54.926 C 261.167 55.037,261.359 55.254,261.594 55.409 C 261.830 55.563,262.155 55.815,262.317 55.969 C 262.675 56.309,263.110 56.601,263.667 56.873 C 263.896 56.985,264.131 57.144,264.190 57.226 C 264.248 57.309,264.391 57.317,264.507 57.246 C 264.639 57.164,264.677 57.182,264.608 57.294 C 264.542 57.400,264.702 57.518,265.000 57.583 C 265.277 57.644,265.725 57.805,265.997 57.940 C 266.268 58.075,266.773 58.231,267.120 58.285 C 267.466 58.340,267.804 58.467,267.869 58.567 C 268.034 58.821,275.359 58.820,275.683 58.567 C 275.811 58.466,276.385 58.287,276.958 58.169 C 277.531 58.051,278.000 57.890,278.000 57.811 C 278.000 57.731,278.093 57.667,278.206 57.667 C 278.518 57.667,280.231 56.783,280.383 56.543 C 280.457 56.428,280.625 56.333,280.758 56.333 C 280.891 56.333,281.000 56.275,281.000 56.203 C 281.000 56.131,281.206 55.950,281.458 55.801 C 282.193 55.366,284.167 53.244,284.167 52.889 C 284.167 52.767,284.223 52.666,284.292 52.666 C 284.476 52.664,285.833 50.301,285.833 49.982 C 285.833 49.890,285.977 49.500,286.152 49.116 C 286.327 48.731,286.525 48.117,286.592 47.750 C 286.660 47.383,286.772 47.046,286.841 47.000 C 287.188 46.771,287.644 39.491,287.337 39.083 C 287.268 38.992,287.161 38.282,287.099 37.506 C 287.037 36.729,286.923 36.054,286.847 36.006 C 286.770 35.957,286.653 35.579,286.586 35.167 C 286.520 34.754,286.367 34.192,286.247 33.917 C 286.127 33.642,285.943 33.140,285.838 32.802 C 285.734 32.465,285.596 32.165,285.532 32.136 C 285.469 32.107,285.199 31.671,284.934 31.167 C 284.010 29.414,280.927 26.167,280.186 26.167 C 280.078 26.167,279.950 26.065,279.903 25.940 C 279.855 25.816,279.520 25.617,279.158 25.497 C 278.796 25.378,278.500 25.225,278.500 25.159 C 278.500 25.092,278.219 24.985,277.875 24.920 C 277.531 24.856,277.154 24.725,277.038 24.628 C 276.921 24.531,276.780 24.498,276.724 24.554 C 276.668 24.609,276.482 24.580,276.310 24.488 C 275.492 24.050,269.667 23.614,269.667 23.990 M306.765 23.976 C 306.717 24.054,306.108 24.161,305.412 24.213 C 304.716 24.266,304.057 24.379,303.948 24.465 C 303.839 24.551,303.581 24.606,303.375 24.588 C 303.169 24.570,303.000 24.610,303.000 24.676 C 303.000 24.742,302.719 24.849,302.375 24.913 C 302.031 24.977,301.675 25.088,301.583 25.160 C 301.492 25.231,301.135 25.380,300.792 25.491 C 300.448 25.602,300.167 25.754,300.167 25.830 C 300.167 25.906,299.960 26.049,299.708 26.148 C 298.948 26.448,298.169 26.946,298.282 27.060 C 298.341 27.119,298.308 27.167,298.208 27.167 C 297.994 27.167,295.693 29.419,295.333 29.981 C 295.196 30.196,294.962 30.532,294.815 30.728 C 294.667 30.923,294.493 31.252,294.428 31.458 C 294.364 31.665,294.253 31.833,294.182 31.833 C 294.111 31.833,293.958 32.152,293.843 32.542 C 293.727 32.931,293.572 33.325,293.499 33.417 C 293.335 33.622,292.928 35.030,292.976 35.226 C 292.996 35.304,292.936 35.459,292.844 35.570 C 292.752 35.681,292.627 36.217,292.566 36.761 C 292.505 37.305,292.396 37.826,292.324 37.918 C 292.141 38.152,292.122 44.619,292.303 44.731 C 292.385 44.782,292.500 45.348,292.560 45.991 C 292.619 46.633,292.818 47.538,293.001 48.002 C 293.184 48.466,293.333 48.993,293.333 49.173 C 293.333 49.353,293.393 49.500,293.465 49.500 C 293.538 49.500,293.688 49.837,293.798 50.250 C 293.908 50.663,294.065 51.000,294.146 51.000 C 294.227 51.000,294.393 51.244,294.514 51.542 C 294.636 51.840,294.814 52.171,294.910 52.277 C 295.274 52.684,295.856 53.485,295.849 53.570 C 295.829 53.801,297.550 55.334,298.670 56.083 C 299.081 56.358,299.454 56.628,299.500 56.685 C 299.683 56.909,300.596 57.283,300.792 57.213 C 300.906 57.172,301.000 57.210,301.000 57.297 C 301.000 57.486,302.095 57.912,303.250 58.173 C 303.708 58.276,304.264 58.449,304.484 58.556 C 305.022 58.817,313.293 58.830,313.464 58.570 C 313.530 58.470,314.144 58.298,314.828 58.187 C 315.513 58.076,316.113 57.920,316.162 57.841 C 316.211 57.762,316.533 57.644,316.877 57.580 C 317.222 57.515,317.781 57.321,318.120 57.148 C 318.460 56.975,318.834 56.833,318.952 56.833 C 319.070 56.833,319.167 56.767,319.167 56.686 C 319.167 56.605,319.298 56.495,319.458 56.441 C 319.763 56.338,320.498 55.925,321.237 55.441 L 321.670 55.157 321.627 47.787 L 321.583 40.417 315.500 40.417 L 309.417 40.417 309.370 42.458 L 309.323 44.500 312.995 44.500 L 316.667 44.500 316.667 48.849 C 316.667 53.058,316.656 53.201,316.333 53.285 C 316.150 53.333,316.000 53.426,316.000 53.493 C 316.000 53.603,314.813 54.034,314.417 54.069 C 314.325 54.077,314.202 54.149,314.144 54.229 C 314.086 54.309,313.504 54.413,312.852 54.460 C 312.200 54.507,311.667 54.591,311.667 54.647 C 311.666 54.704,310.616 54.758,309.333 54.769 C 308.050 54.779,307.000 54.733,307.000 54.667 C 307.000 54.601,306.582 54.504,306.072 54.451 C 305.561 54.398,305.025 54.256,304.880 54.136 C 304.734 54.015,304.608 53.947,304.599 53.985 C 304.530 54.281,301.822 52.871,301.149 52.188 C 301.002 52.039,300.702 51.753,300.482 51.553 C 300.263 51.353,299.985 51.070,299.865 50.924 C 299.472 50.448,298.167 47.791,298.167 47.470 C 298.167 47.297,298.058 46.896,297.925 46.578 C 297.698 46.034,297.285 42.605,297.294 41.333 C 297.303 40.094,297.702 36.747,297.847 36.694 C 297.931 36.664,298.000 36.459,298.000 36.239 C 298.000 35.703,298.373 34.333,298.518 34.333 C 298.626 34.333,299.037 33.333,298.991 33.182 C 298.979 33.144,299.089 33.047,299.235 32.965 C 299.381 32.883,299.500 32.745,299.500 32.658 C 299.500 32.571,299.631 32.361,299.792 32.192 C 299.952 32.023,300.233 31.673,300.417 31.415 C 300.887 30.752,301.120 30.537,301.501 30.416 C 301.684 30.358,301.833 30.248,301.833 30.172 C 301.833 29.992,302.894 29.366,303.424 29.233 C 303.649 29.177,303.833 29.073,303.833 29.002 C 303.833 28.848,305.145 28.500,305.727 28.500 C 305.953 28.500,306.169 28.410,306.205 28.300 C 306.296 28.029,312.011 28.000,312.349 28.270 C 312.478 28.372,313.090 28.549,313.708 28.664 C 314.327 28.778,314.833 28.938,314.833 29.019 C 314.833 29.100,314.912 29.167,315.009 29.167 C 315.213 29.167,316.632 29.767,317.000 30.009 C 317.137 30.099,317.494 30.285,317.792 30.422 C 318.090 30.559,318.333 30.745,318.333 30.836 C 318.333 30.926,318.436 31.000,318.562 31.000 C 318.687 31.000,319.173 31.305,319.642 31.678 C 320.798 32.599,320.833 32.541,320.833 29.718 C 320.833 26.970,320.858 27.026,319.356 26.309 C 318.931 26.106,318.528 25.859,318.461 25.761 C 318.394 25.664,318.337 25.649,318.336 25.729 C 318.334 25.809,318.240 25.797,318.125 25.702 C 318.010 25.607,317.635 25.477,317.292 25.413 C 316.948 25.349,316.667 25.238,316.667 25.167 C 316.667 25.095,316.385 24.985,316.042 24.920 C 315.698 24.856,315.342 24.745,315.250 24.674 C 315.043 24.512,312.715 24.167,311.836 24.167 C 311.479 24.167,311.140 24.092,311.083 24.000 C 310.957 23.796,306.890 23.773,306.765 23.976 M380.417 23.999 C 380.233 24.078,379.732 24.149,379.302 24.155 C 378.497 24.167,375.793 24.946,375.694 25.194 C 375.664 25.271,375.541 25.333,375.421 25.333 C 375.081 25.333,373.475 26.474,372.872 27.144 C 372.572 27.477,372.140 27.951,371.913 28.198 C 371.686 28.444,371.500 28.685,371.500 28.734 C 371.500 28.783,371.313 29.233,371.083 29.734 C 370.854 30.235,370.667 30.871,370.667 31.146 C 370.667 31.422,370.597 31.690,370.512 31.742 C 370.321 31.861,370.306 35.463,370.497 35.581 C 370.573 35.628,370.687 36.042,370.750 36.500 C 370.813 36.958,370.927 37.333,371.002 37.333 C 371.078 37.333,371.191 37.565,371.253 37.848 C 371.361 38.340,373.210 40.500,373.523 40.500 C 373.604 40.500,373.978 40.723,374.354 40.996 C 374.731 41.269,375.293 41.540,375.603 41.598 C 375.913 41.656,376.167 41.765,376.167 41.840 C 376.167 41.915,376.579 42.068,377.083 42.181 C 377.587 42.294,378.000 42.440,378.000 42.505 C 378.000 42.570,378.394 42.675,378.875 42.738 C 379.356 42.801,380.125 42.955,380.583 43.080 C 381.042 43.205,381.867 43.358,382.417 43.420 C 382.967 43.482,383.492 43.592,383.583 43.665 C 383.675 43.738,384.181 43.886,384.708 43.994 C 385.235 44.102,385.667 44.254,385.667 44.332 C 385.667 44.410,385.897 44.524,386.178 44.586 C 386.459 44.648,386.730 44.804,386.779 44.932 C 386.829 45.061,386.943 45.167,387.033 45.167 C 387.276 45.167,388.167 46.050,388.167 46.291 C 388.167 46.406,388.242 46.500,388.333 46.500 C 388.425 46.500,388.500 46.597,388.500 46.717 C 388.500 46.836,388.588 47.021,388.695 47.129 C 389.074 47.508,389.200 51.143,388.826 50.912 C 388.761 50.872,388.662 51.066,388.606 51.344 C 388.463 52.059,386.744 53.754,385.996 53.916 C 385.677 53.985,385.372 54.112,385.317 54.199 C 384.915 54.829,377.136 54.809,376.667 54.176 C 376.621 54.114,376.152 53.963,375.625 53.839 C 375.098 53.715,374.667 53.559,374.667 53.492 C 374.667 53.425,374.412 53.323,374.100 53.264 C 373.788 53.206,373.442 53.047,373.330 52.912 C 373.218 52.777,373.055 52.667,372.969 52.667 C 372.883 52.667,372.405 52.474,371.906 52.238 C 370.467 51.557,370.477 51.542,370.479 54.318 C 370.481 56.854,370.523 56.992,371.282 56.997 C 371.483 56.999,371.694 57.076,371.752 57.169 C 371.809 57.263,371.921 57.299,372.000 57.250 C 372.079 57.201,372.188 57.233,372.242 57.321 C 372.297 57.409,372.677 57.531,373.087 57.593 C 373.498 57.654,373.833 57.765,373.833 57.838 C 373.833 57.912,374.508 58.068,375.333 58.185 C 376.158 58.302,376.833 58.443,376.833 58.499 C 376.833 58.806,385.766 58.873,385.965 58.567 C 386.030 58.467,386.446 58.336,386.889 58.277 C 387.332 58.218,387.969 58.052,388.305 57.908 C 389.606 57.351,390.372 56.926,390.452 56.717 C 390.498 56.598,390.629 56.500,390.743 56.500 C 390.912 56.500,392.114 55.281,392.634 54.583 C 392.989 54.107,393.460 53.182,393.569 52.747 C 393.637 52.475,393.781 52.199,393.888 52.133 C 394.019 52.052,394.102 51.167,394.142 49.446 C 394.213 46.384,393.889 45.051,392.637 43.250 C 392.237 42.675,391.093 41.500,390.932 41.500 C 390.827 41.500,390.617 41.369,390.465 41.208 C 390.071 40.790,389.700 40.500,389.560 40.500 C 389.493 40.500,389.134 40.360,388.761 40.188 C 388.388 40.017,387.821 39.785,387.500 39.672 C 387.179 39.559,386.767 39.403,386.583 39.326 C 385.933 39.053,382.521 38.350,381.792 38.340 C 381.540 38.336,381.333 38.271,381.333 38.194 C 381.333 38.118,381.240 38.049,381.125 38.041 C 380.400 37.992,378.697 37.584,378.421 37.394 C 378.240 37.269,377.971 37.167,377.822 37.167 C 377.289 37.167,375.857 35.773,375.721 35.122 C 375.667 34.868,375.569 34.626,375.503 34.585 C 375.379 34.509,375.424 33.089,375.587 31.934 C 375.637 31.577,375.826 31.078,376.006 30.825 C 376.186 30.572,376.333 30.290,376.333 30.199 C 376.333 30.057,377.244 29.403,377.747 29.184 C 377.837 29.145,378.008 29.016,378.127 28.896 C 378.247 28.777,378.623 28.628,378.964 28.566 C 379.304 28.503,379.637 28.369,379.702 28.268 C 379.881 27.991,385.532 28.014,385.625 28.292 C 385.663 28.406,385.880 28.500,386.107 28.500 C 386.651 28.500,388.041 28.840,388.242 29.023 C 388.329 29.102,388.540 29.167,388.711 29.167 C 388.882 29.167,389.431 29.354,389.932 29.583 C 390.433 29.813,390.916 30.000,391.005 30.000 C 391.094 30.000,391.167 30.063,391.167 30.139 C 391.167 30.215,391.260 30.278,391.375 30.279 C 391.490 30.280,391.752 30.335,391.958 30.402 L 392.333 30.522 392.333 28.111 L 392.333 25.699 391.808 25.516 C 391.520 25.416,391.145 25.333,390.975 25.333 C 390.805 25.333,390.667 25.266,390.667 25.183 C 390.667 25.100,390.217 24.981,389.667 24.917 C 389.117 24.853,388.667 24.745,388.667 24.678 C 388.667 24.611,388.573 24.551,388.458 24.544 C 388.344 24.538,387.725 24.452,387.083 24.353 C 386.442 24.254,385.598 24.172,385.208 24.170 C 384.819 24.168,384.500 24.101,384.500 24.021 C 384.500 23.831,380.850 23.811,380.417 23.999 M36.250 24.666 C 36.192 24.760,36.162 25.698,36.183 26.751 L 36.222 28.667 42.194 28.667 L 48.167 28.667 48.167 43.417 L 48.167 58.167 50.667 58.167 L 53.167 58.167 53.167 43.417 L 53.167 28.667 59.083 28.667 L 65.000 28.667 65.000 26.587 L 65.000 24.507 50.678 24.502 C 41.124 24.498,36.320 24.553,36.250 24.666 M68.946 24.610 C 68.884 24.672,68.833 32.247,68.833 41.444 L 68.833 58.167 79.833 58.167 L 90.833 58.167 90.833 56.083 C 90.833 54.937,90.777 54.009,90.708 54.020 C 90.640 54.031,86.777 54.031,82.125 54.020 L 73.667 54.000 73.667 48.167 L 73.667 42.333 81.667 42.333 L 89.667 42.333 89.667 40.333 L 89.667 38.333 81.667 38.333 L 73.667 38.333 73.667 33.500 L 73.667 28.667 82.005 28.667 L 90.344 28.667 90.297 26.625 L 90.250 24.583 79.654 24.540 C 73.826 24.517,69.007 24.548,68.946 24.610 M129.667 41.346 L 129.667 58.167 132.083 58.167 L 134.500 58.167 134.500 50.250 L 134.500 42.333 142.500 42.333 L 150.500 42.333 150.500 50.250 L 150.500 58.167 153.000 58.167 L 155.500 58.167 155.500 41.327 L 155.500 24.486 153.000 24.509 L 150.500 24.531 150.500 31.432 L 150.500 38.333 142.502 38.333 L 134.504 38.333 134.460 31.458 L 134.417 24.583 132.042 24.554 L 129.667 24.525 129.667 41.346 M164.000 41.341 L 164.000 58.167 166.417 58.167 L 168.833 58.167 168.846 44.625 C 168.854 37.177,168.902 31.196,168.955 31.333 C 169.007 31.471,169.095 31.621,169.150 31.667 C 169.205 31.712,169.538 32.313,169.891 33.000 C 171.798 36.721,172.169 37.432,172.287 37.591 C 172.358 37.687,172.642 38.212,172.917 38.758 C 173.192 39.304,173.454 39.787,173.500 39.833 C 173.546 39.879,173.794 40.367,174.053 40.917 C 174.311 41.467,174.592 42.029,174.679 42.167 C 174.765 42.304,174.927 42.604,175.039 42.833 C 175.152 43.063,175.282 43.288,175.330 43.333 C 175.378 43.379,175.785 44.148,176.236 45.042 C 176.686 45.935,177.108 46.667,177.172 46.667 C 177.237 46.667,177.385 47.004,177.500 47.417 C 177.615 47.829,177.768 48.167,177.839 48.167 C 177.909 48.167,178.052 48.373,178.155 48.625 C 178.374 49.162,179.401 51.089,179.624 51.381 C 179.708 51.492,179.880 51.846,180.004 52.167 C 180.129 52.487,180.273 52.788,180.324 52.833 C 180.375 52.879,180.642 53.367,180.917 53.917 C 181.192 54.467,181.468 54.956,181.531 55.003 C 181.679 55.116,182.062 56.045,182.027 56.208 C 182.012 56.277,182.063 56.333,182.140 56.333 C 182.256 56.333,182.681 57.037,182.744 57.333 C 182.918 58.148,182.999 58.167,186.423 58.167 L 189.667 58.167 189.667 41.349 L 189.667 24.532 187.250 24.509 L 184.833 24.486 184.833 37.910 C 184.833 45.293,184.770 51.333,184.693 51.333 C 184.616 51.333,184.454 51.033,184.333 50.667 C 184.212 50.300,184.065 50.000,184.007 50.000 C 183.948 50.000,183.805 49.737,183.689 49.417 C 183.573 49.096,183.408 48.833,183.323 48.833 C 183.237 48.833,183.167 48.689,183.167 48.512 C 183.167 48.335,183.062 48.085,182.933 47.957 C 182.805 47.829,182.458 47.205,182.162 46.570 C 181.867 45.936,181.571 45.379,181.505 45.333 C 181.439 45.288,181.334 45.044,181.272 44.792 C 181.211 44.540,181.093 44.333,181.010 44.333 C 180.927 44.333,180.773 44.071,180.667 43.750 C 180.561 43.429,180.411 43.167,180.334 43.167 C 180.256 43.167,180.144 42.943,180.084 42.669 C 180.024 42.395,179.918 42.136,179.850 42.093 C 179.781 42.051,179.469 41.506,179.157 40.883 C 178.845 40.260,178.551 39.712,178.503 39.667 C 178.405 39.573,177.768 38.299,177.503 37.667 C 177.407 37.438,177.185 37.025,177.009 36.750 C 176.833 36.475,176.330 35.537,175.891 34.667 C 175.453 33.796,175.004 32.990,174.894 32.877 C 174.784 32.763,174.607 32.407,174.501 32.085 C 174.394 31.763,174.244 31.500,174.167 31.500 C 174.090 31.500,173.978 31.280,173.919 31.012 C 173.860 30.743,173.709 30.438,173.583 30.333 C 173.458 30.229,173.306 29.924,173.247 29.655 C 173.188 29.386,173.076 29.167,172.998 29.167 C 172.919 29.167,172.760 28.904,172.644 28.583 C 172.528 28.262,172.385 28.000,172.327 28.000 C 172.268 28.000,172.121 27.700,172.000 27.333 C 171.879 26.967,171.717 26.667,171.640 26.667 C 171.563 26.667,171.500 26.560,171.500 26.429 C 171.500 26.298,171.398 26.089,171.274 25.964 C 171.149 25.840,170.948 25.462,170.826 25.126 L 170.605 24.514 167.302 24.515 L 164.000 24.516 164.000 41.341 M234.167 41.349 L 234.167 58.167 244.838 58.167 L 255.510 58.167 255.463 56.125 L 255.417 54.083 247.292 54.040 L 239.167 53.997 239.167 39.242 L 239.167 24.486 236.667 24.509 L 234.167 24.531 234.167 41.349 M329.615 24.607 C 329.552 24.670,329.500 32.249,329.500 41.449 L 329.500 58.176 331.958 58.129 L 334.417 58.083 334.417 41.333 L 334.417 24.583 332.074 24.537 C 330.785 24.512,329.679 24.543,329.615 24.607 M343.111 24.611 C 343.050 24.672,343.000 32.247,343.000 41.444 L 343.000 58.167 353.922 58.167 L 364.844 58.167 364.797 56.125 L 364.750 54.083 356.375 54.040 L 348.000 53.997 348.000 48.165 L 348.000 42.333 355.917 42.333 L 363.833 42.333 363.833 40.333 L 363.833 38.333 355.917 38.333 L 348.000 38.333 348.000 33.500 L 348.000 28.667 356.250 28.667 L 364.500 28.667 364.500 26.583 L 364.500 24.500 353.861 24.500 C 348.010 24.500,343.172 24.550,343.111 24.611 M214.631 28.309 C 214.666 28.414,214.851 28.500,215.042 28.500 C 215.476 28.500,217.500 29.472,217.500 29.681 C 217.500 29.765,217.583 29.833,217.683 29.833 C 217.892 29.833,219.493 31.347,219.497 31.549 C 219.499 31.621,219.650 31.842,219.833 32.038 C 220.017 32.235,220.167 32.487,220.167 32.597 C 220.167 32.707,220.279 32.841,220.417 32.894 C 220.554 32.946,220.667 33.133,220.667 33.308 C 220.667 33.483,220.779 33.719,220.917 33.833 C 221.054 33.947,221.167 34.152,221.167 34.287 C 221.167 34.422,221.276 34.769,221.411 35.058 C 222.182 36.719,222.794 44.430,222.171 44.637 C 222.077 44.669,221.998 44.932,221.996 45.222 C 221.991 45.820,221.734 47.084,221.514 47.583 C 221.037 48.672,220.430 49.928,220.346 50.000 C 220.293 50.046,220.137 50.308,220.000 50.583 C 219.706 51.172,217.744 53.120,217.304 53.259 C 217.137 53.312,217.000 53.412,217.000 53.481 C 217.000 53.682,215.341 54.307,214.167 54.549 C 212.548 54.882,209.036 54.665,208.442 54.195 C 208.336 54.112,207.969 53.953,207.625 53.842 C 207.281 53.731,207.000 53.572,207.000 53.487 C 207.000 53.403,206.906 53.333,206.792 53.333 C 206.494 53.333,205.045 52.072,204.457 51.301 C 203.653 50.247,203.333 49.749,203.333 49.551 C 203.333 49.431,203.270 49.333,203.193 49.333 C 203.062 49.333,202.630 48.134,202.675 47.895 C 202.686 47.836,202.612 47.736,202.511 47.674 C 202.410 47.611,202.244 47.078,202.143 46.488 C 202.041 45.899,201.874 45.311,201.771 45.183 C 201.535 44.889,201.514 38.198,201.747 37.833 C 201.835 37.696,201.928 37.433,201.953 37.250 C 202.048 36.559,202.382 35.244,202.503 35.083 C 202.572 34.992,202.680 34.673,202.744 34.375 C 202.808 34.077,202.923 33.833,203.000 33.833 C 203.078 33.833,203.230 33.562,203.340 33.231 C 203.449 32.899,203.661 32.492,203.811 32.326 C 203.961 32.159,204.271 31.782,204.500 31.486 C 204.729 31.191,205.053 30.829,205.219 30.683 C 205.386 30.537,205.798 30.173,206.136 29.875 C 206.474 29.577,206.832 29.334,206.933 29.333 C 207.033 29.333,207.282 29.189,207.485 29.013 C 207.688 28.837,208.150 28.642,208.511 28.582 C 208.871 28.521,209.167 28.407,209.167 28.329 C 209.167 27.977,214.514 27.958,214.631 28.309 M274.481 28.295 C 274.537 28.381,274.862 28.503,275.203 28.566 C 275.544 28.628,275.932 28.789,276.066 28.923 C 276.200 29.057,276.416 29.167,276.546 29.167 C 276.676 29.167,276.937 29.298,277.127 29.458 C 277.864 30.082,278.098 30.267,278.495 30.545 C 278.722 30.704,278.850 30.833,278.781 30.833 C 278.649 30.833,278.768 30.989,279.543 31.833 C 279.796 32.108,280.123 32.633,280.269 33.000 C 280.416 33.367,280.603 33.667,280.685 33.667 C 280.766 33.667,280.833 33.800,280.833 33.963 C 280.833 34.126,280.936 34.407,281.062 34.588 C 281.294 34.922,281.722 36.510,282.027 38.167 C 282.268 39.474,282.125 45.486,281.849 45.657 C 281.733 45.729,281.644 45.854,281.650 45.935 C 281.680 46.296,281.253 48.000,281.133 48.000 C 281.060 48.000,281.000 48.111,281.000 48.246 C 281.000 48.526,280.086 50.281,279.733 50.680 C 279.605 50.825,279.500 50.998,279.500 51.066 C 279.500 51.579,276.286 54.000,275.605 54.000 C 275.455 54.000,275.333 54.063,275.333 54.140 C 275.333 54.408,273.405 54.718,271.625 54.736 C 270.640 54.746,269.833 54.706,269.833 54.649 C 269.833 54.591,269.537 54.504,269.174 54.455 C 268.436 54.356,266.833 53.682,266.833 53.470 C 266.833 53.395,266.730 53.333,266.604 53.333 C 266.477 53.333,266.279 53.219,266.163 53.079 C 266.047 52.940,265.924 52.854,265.889 52.889 C 265.728 53.050,263.667 50.703,263.667 50.358 C 263.667 50.268,263.608 50.169,263.535 50.139 C 263.321 50.048,262.522 48.584,262.440 48.130 C 262.398 47.899,262.281 47.569,262.179 47.397 C 261.655 46.502,261.006 38.667,261.457 38.667 C 261.533 38.667,261.607 38.498,261.620 38.292 C 261.670 37.536,262.069 35.500,262.168 35.500 C 262.224 35.500,262.366 35.125,262.484 34.667 C 262.601 34.208,262.766 33.833,262.849 33.833 C 262.932 33.833,263.000 33.709,263.000 33.557 C 263.000 33.406,263.188 33.036,263.417 32.735 C 263.646 32.435,263.834 32.128,263.834 32.053 C 263.838 31.574,266.622 29.167,267.172 29.167 C 267.261 29.167,267.333 29.097,267.333 29.012 C 267.333 28.927,267.746 28.765,268.250 28.652 C 268.754 28.539,269.167 28.388,269.167 28.317 C 269.167 27.999,274.275 27.978,274.481 28.295 " stroke="none" fill="#d4d4d4" fill-rule="evenodd"></path>
    <path id="path1" d="M0.333 39.847 L 0.333 74.333 3.333 74.333 L 6.333 74.333 6.333 39.828 L 6.333 5.322 3.333 5.341 L 0.333 5.360 0.333 39.847 M370.398 54.250 C 370.398 55.442,370.425 55.907,370.457 55.285 C 370.489 54.662,370.489 53.687,370.457 53.118 C 370.424 52.549,370.398 53.058,370.398 54.250 M111.542 54.786 C 111.794 54.824,112.206 54.824,112.458 54.786 C 112.710 54.748,112.504 54.717,112.000 54.717 C 111.496 54.717,111.290 54.748,111.542 54.786 M308.208 54.786 C 308.460 54.824,308.873 54.824,309.125 54.786 C 309.377 54.748,309.171 54.717,308.667 54.717 C 308.162 54.717,307.956 54.748,308.208 54.786 " stroke="none" fill="#b4c4dc" fill-rule="evenodd"></path>
    <path id="path2" d="" stroke="none" fill="#d8ccd8" fill-rule="evenodd"></path>
    <path id="path3" d="" stroke="none" fill="#d8ccd8" fill-rule="evenodd"></path>
    <path id="path4" d="" stroke="none" fill="#d8ccd8" fill-rule="evenodd"></path>
  </g>
  <!-- <path d="M 0.00 98.00 C 128.27 98.00 256.53 98.00 384.80 98.00 C 393.91 107.05 403.12 116.01 412.31 124.99 C 274.87 125.01 137.44 124.99 0.00 125.00 L 0.00 98.00 Z" fill="#064195" /> -->
  <!-- <path d="M 418.70 98.01 C 563.46 97.98 708.23 98.01 853.00 98.00 L 853.00 125.00 C 716.92 124.99 580.83 125.02 444.75 124.99 C 436.50 115.60 427.29 107.09 418.70 98.01 Z" fill="#064195" /> -->
</svg>



