<svg xmlns="http://www.w3.org/2000/svg" version="1.1" viewBox="0 0 1250 160" width="1250" height="160">
  <path d="M 15.633 36.105 C 45.603 35.895 75.783 36.055 105.713 36.225 C 109.863 36.305 113.953 37.745 116.373 41.295 C 119.363 45.645 119.553 50.915 119.543 56.005 C 119.473 62.665 119.613 69.335 119.483 75.995 C 119.283 82.235 116.373 88.865 110.943 92.275 C 108.343 93.975 105.643 93.665 102.673 93.745 C 96.413 93.695 90.163 93.745 83.903 93.685 C 84.263 101.785 83.983 109.895 84.113 118.005 C 84.023 119.835 84.343 122.015 83.303 123.575 C 76.993 124.155 70.503 123.805 64.163 123.705 C 63.733 114.005 64.043 104.255 63.983 94.535 C 59.493 94.235 54.963 94.555 50.483 94.145 C 48.803 92.895 47.593 90.895 46.363 89.215 C 43.553 85.045 40.473 81.015 37.843 76.725 C 37.023 75.505 37.073 74.245 36.943 72.835 C 57.183 72.825 77.433 72.965 97.663 73.005 C 97.663 67.005 97.663 61.005 97.663 55.005 C 72.893 54.885 47.713 55.465 23.043 54.495 C 21.313 52.955 19.993 50.885 18.653 49.005 C 15.973 45.025 13.063 41.295 10.633 37.185 C 12.363 36.355 13.703 36.075 15.633 36.105 Z" fill="#fff"></path>
  <path d="M 231.663 36.085 C 260.663 35.895 289.673 36.075 318.683 36.025 C 323.013 35.955 327.253 37.065 330.033 40.605 C 333.533 45.245 334.073 51.365 333.713 56.975 C 333.093 64.965 333.873 73.025 333.253 81.005 C 332.333 88.175 327.223 93.105 320.443 95.085 C 332.623 107.195 345.263 118.825 357.363 131.015 C 365.953 140.095 375.163 148.605 383.413 157.995 C 372.593 158.015 361.783 158.005 350.973 157.995 C 341.783 149.015 332.573 140.055 323.463 131.005 C 317.833 125.375 311.943 119.995 306.443 114.245 C 302.033 108.945 296.933 104.485 292.113 99.555 C 290.643 98.215 288.933 96.215 286.883 95.925 C 283.103 95.575 279.253 95.815 275.463 95.785 C 275.423 104.465 275.483 113.145 275.423 121.825 C 274.883 122.335 274.333 122.845 273.793 123.355 C 267.453 123.355 261.113 123.345 254.763 123.355 C 254.233 122.745 253.693 122.135 253.153 121.525 C 253.173 105.685 253.163 89.845 253.163 74.005 C 272.663 74.005 292.163 74.005 311.663 74.005 C 311.663 67.675 311.663 61.335 311.663 55.005 C 288.323 55.045 264.993 55.025 241.653 55.035 C 240.203 54.975 238.573 55.105 237.183 54.615 C 235.563 53.225 234.303 51.325 233.063 49.585 C 230.183 45.345 227.093 41.295 224.473 36.885 C 226.863 36.275 229.203 36.065 231.663 36.085 Z" fill="#fff"></path>
  <path d="M 361.613 36.005 C 391.693 35.995 421.623 36.015 451.683 36.035 C 456.363 36.045 461.303 37.695 463.793 41.925 C 466.633 46.605 466.453 51.695 466.603 56.975 C 434.083 57.025 401.573 57.025 369.053 56.975 C 364.803 50.645 360.943 44.065 357.313 37.355 C 358.753 36.485 359.863 35.905 361.613 36.005 Z" fill="#fff"></path>
  <path d="M 485.573 36.215 C 512.593 35.875 539.633 36.145 566.663 36.055 C 572.653 36.145 578.703 35.975 584.673 36.535 C 584.233 41.515 580.423 46.035 578.083 50.415 C 575.823 53.875 574.643 58.195 571.963 61.295 C 563.083 61.855 554.003 61.355 545.083 61.505 C 545.093 81.435 545.053 101.375 545.103 121.305 C 544.553 122.015 543.993 122.725 543.443 123.425 C 536.903 123.485 530.373 123.445 523.833 123.465 C 523.253 122.805 522.663 122.145 522.083 121.485 C 522.083 101.495 522.093 81.505 522.083 61.515 C 513.163 61.505 504.243 61.555 495.333 61.485 C 490.903 53.725 486.363 46.015 482.023 38.215 C 483.193 37.015 483.713 36.055 485.573 36.215 Z" fill="#fff"></path>
  <path d="M 616.623 36.185 C 634.313 36.185 651.983 36.205 669.673 36.175 C 674.323 36.155 678.893 36.875 682.163 40.485 C 685.613 44.595 686.563 49.765 686.593 54.995 C 686.593 71.005 686.593 87.005 686.593 103.015 C 686.573 108.795 685.423 114.335 681.263 118.595 C 677.943 122.125 673.393 123.315 668.673 123.365 C 653.343 123.365 637.993 123.325 622.663 123.375 C 619.113 123.355 615.813 123.555 612.363 122.545 C 608.543 121.525 605.413 118.775 603.363 115.465 C 600.823 111.245 600.293 105.825 600.343 101.005 C 600.393 90.995 600.353 80.975 600.373 70.955 C 605.173 69.255 609.683 69.895 614.663 69.765 C 617.583 69.695 620.183 70.075 622.973 70.885 C 623.033 79.995 622.923 89.115 623.033 98.225 C 636.703 98.215 650.383 98.215 664.053 98.225 C 663.893 84.505 664.573 70.695 663.583 57.005 C 642.463 56.985 621.353 57.055 600.243 56.965 C 600.403 51.575 600.963 45.245 604.543 40.915 C 607.603 37.235 612.023 36.195 616.623 36.185 Z" fill="#fff"></path>
  <path d="M 169.863 36.555 C 177.223 36.555 184.583 36.555 191.943 36.555 C 205.313 64.425 218.693 92.295 232.073 120.165 C 231.553 120.965 231.043 121.775 230.523 122.575 C 213.993 122.585 197.463 122.565 180.933 122.585 C 180.343 122.045 179.753 121.505 179.163 120.965 C 179.243 115.625 178.973 110.265 179.263 104.935 C 179.133 103.325 181.273 102.635 182.593 102.735 C 187.543 102.625 192.493 102.775 197.443 102.715 C 191.873 90.905 186.423 79.035 180.893 67.205 C 172.303 85.665 163.683 104.115 155.103 122.575 C 147.143 122.575 139.193 122.585 131.233 122.575 C 130.733 121.765 130.223 120.965 129.723 120.165 C 143.103 92.295 156.493 64.435 169.863 36.555 Z" fill="#fff"></path>
  <path d="M 368.853 67.565 C 388.893 67.185 409.093 67.515 429.163 67.405 C 429.073 74.465 429.173 81.525 429.133 88.575 C 415.503 88.595 401.863 88.605 388.233 88.575 C 388.203 93.695 388.433 98.915 387.973 104.015 C 408.213 103.975 428.473 103.955 448.703 104.005 C 449.803 104.135 451.863 103.875 452.503 105.005 C 454.843 108.135 456.653 111.675 458.783 114.965 C 460.133 117.255 461.983 119.785 462.433 122.435 C 458.283 123.225 453.883 122.825 449.663 122.985 C 426.653 122.945 403.623 123.155 380.613 122.765 C 377.453 122.735 374.553 121.615 372.463 119.195 C 369.013 115.115 368.703 109.085 368.743 103.995 C 369.103 91.865 368.713 79.665 368.853 67.565 Z" fill="#fff"></path>
  <path id="path0" d="M 880.251 53.277 C 880.189 53.378 879.378 53.526 878.448 53.608 C 877.519 53.688 876.757 53.841 876.757 53.944 C 876.757 54.05 876.609 54.077 876.427 54.007 C 876.246 53.937 875.89 53.974 875.637 54.091 C 875.385 54.206 874.741 54.503 874.207 54.751 C 873.673 54.999 873.134 55.201 873.011 55.201 C 872.887 55.201 872.658 55.328 872.504 55.482 C 872.348 55.637 871.768 56.018 871.214 56.327 C 870.658 56.637 870.068 57.007 869.9 57.151 C 869.042 57.887 866.856 60.083 866.854 60.214 C 866.853 60.294 866.661 60.599 866.43 60.889 C 865.656 61.861 864.96 63.012 864.96 63.321 C 864.96 63.49 864.873 63.629 864.765 63.629 C 864.659 63.629 864.459 63.969 864.322 64.385 C 864.184 64.802 863.94 65.396 863.78 65.702 C 863.619 66.009 863.487 66.421 863.486 66.618 C 863.486 66.814 863.395 67.029 863.284 67.098 C 863.173 67.166 863.132 67.352 863.193 67.511 C 863.254 67.67 863.208 67.857 863.093 67.929 C 862.977 68.001 862.816 68.815 862.735 69.741 C 862.655 70.667 862.51 71.423 862.416 71.423 C 862.32 71.423 862.243 73.129 862.243 75.215 C 862.241 77.301 862.317 79.007 862.412 79.007 C 862.505 79.007 862.646 79.777 862.725 80.717 C 862.804 81.656 863.006 82.695 863.176 83.023 C 863.346 83.352 863.485 83.773 863.485 83.959 C 863.485 84.145 863.668 84.699 863.891 85.188 C 864.114 85.678 864.362 86.337 864.441 86.652 C 864.52 86.966 864.659 87.223 864.749 87.223 C 864.84 87.223 864.979 87.483 865.059 87.801 C 865.14 88.118 865.269 88.427 865.346 88.486 C 865.423 88.544 865.748 88.973 866.064 89.435 C 866.38 89.899 867.023 90.657 867.491 91.122 C 867.96 91.584 868.686 92.32 869.108 92.753 C 869.529 93.188 870 93.544 870.156 93.544 C 870.311 93.544 870.437 93.64 870.437 93.759 C 870.437 93.878 870.675 94.066 870.965 94.175 C 871.254 94.285 871.492 94.488 871.492 94.626 C 871.492 94.766 871.55 94.817 871.625 94.744 C 871.698 94.669 872.017 94.794 872.333 95.018 C 872.65 95.244 872.967 95.367 873.042 95.293 C 873.115 95.22 873.176 95.263 873.176 95.387 C 873.176 95.514 873.485 95.683 873.861 95.763 C 874.238 95.844 874.64 95.981 874.757 96.066 C 875.056 96.288 876.842 96.703 877.495 96.703 C 877.799 96.703 877.994 96.79 877.93 96.894 C 877.622 97.391 887.789 97.46 888.109 96.966 C 888.181 96.854 888.715 96.686 889.294 96.593 C 890.846 96.344 890.842 96.345 891.68 95.948 C 892.105 95.745 892.572 95.581 892.717 95.581 C 892.861 95.58 892.98 95.496 892.98 95.393 C 892.98 95.29 893.076 95.263 893.19 95.334 C 893.307 95.406 893.401 95.375 893.401 95.265 C 893.401 95.154 893.639 95.005 893.928 94.933 C 894.218 94.859 894.454 94.706 894.454 94.593 C 894.454 94.479 894.633 94.386 894.849 94.386 C 895.067 94.386 895.365 94.243 895.512 94.066 C 895.659 93.888 895.821 93.786 895.871 93.837 C 896.555 94.521 897.228 88.868 896.644 87.345 C 896.48 86.915 896.305 86.926 895.764 87.395 C 895.523 87.604 895.066 87.96 894.753 88.185 C 894.438 88.409 894.007 88.757 893.796 88.956 C 893.585 89.156 893.171 89.379 892.877 89.454 C 892.583 89.527 892.272 89.696 892.188 89.828 C 891.342 91.133 880.561 93.183 880.55 92.04 C 880.55 91.968 880.005 91.84 879.339 91.758 C 878.672 91.675 878.033 91.534 877.916 91.448 C 877.801 91.359 877.397 91.183 877.021 91.056 C 874.633 90.254 870.911 86.487 870.507 84.465 C 870.44 84.127 870.315 83.853 870.23 83.853 C 870.143 83.853 869.952 83.26 869.802 82.535 C 869.653 81.812 869.447 81.108 869.342 80.974 C 869.102 80.665 868.803 76.018 868.895 74.057 C 869.033 71.136 869.213 69.527 869.402 69.527 C 869.508 69.527 869.595 69.338 869.595 69.108 C 869.595 68.493 870.079 66.788 870.253 66.788 C 870.336 66.788 870.467 66.503 870.544 66.154 C 870.782 65.066 873.017 61.959 873.455 62.105 C 873.551 62.138 873.574 62.076 873.509 61.968 C 873.211 61.486 877.322 59.242 878.829 59.064 C 879.422 58.993 879.864 58.864 879.809 58.775 C 879.755 58.688 880.561 58.55 881.603 58.466 C 883.682 58.302 886.87 58.506 886.87 58.804 C 886.87 58.908 887.113 58.993 887.41 58.993 C 888.033 58.993 889.876 59.424 890.03 59.605 C 890.088 59.674 890.752 60.034 891.505 60.407 C 893.233 61.259 893.947 61.7 894.679 62.364 C 896.798 64.284 896.725 64.348 896.76 60.52 C 896.787 57.57 896.765 57.396 896.339 57.097 C 896.093 56.922 895.694 56.616 895.456 56.411 C 895.217 56.209 894.902 56.043 894.754 56.043 C 894.606 56.043 894.359 55.92 894.207 55.768 C 893.953 55.517 893.116 55.181 891.084 54.512 C 890.678 54.38 890.299 54.215 890.242 54.15 C 890.183 54.082 889.994 54.036 889.82 54.047 C 889.646 54.06 889.405 53.995 889.281 53.905 C 889.159 53.815 888.282 53.677 887.332 53.599 C 886.383 53.519 885.606 53.374 885.606 53.274 C 885.606 53.037 880.398 53.039 880.251 53.277 M 1006.414 53.328 C 1006.351 53.431 1005.945 53.516 1005.514 53.516 C 1005.083 53.516 1004.213 53.661 1003.578 53.841 C 1002.945 54.018 1002.073 54.255 1001.644 54.366 C 1001.213 54.476 1000.54 54.749 1000.145 54.97 C 999.752 55.191 999.203 55.499 998.926 55.654 C 998.649 55.811 998.258 56.071 998.056 56.233 C 997.851 56.397 997.687 56.476 997.687 56.41 C 997.687 56.255 996.417 57.36 995.182 58.595 C 994.091 59.683 993.27 60.697 993.264 60.957 C 993.263 61.052 993.143 61.261 992.999 61.424 C 992.311 62.189 992.196 62.384 992.315 62.576 C 992.385 62.692 992.345 62.785 992.225 62.785 C 992.104 62.785 991.946 63.023 991.874 63.312 C 991.801 63.602 991.661 63.838 991.562 63.838 C 991.463 63.838 991.276 64.23 991.147 64.709 C 991.018 65.188 990.833 65.732 990.734 65.92 C 990.379 66.589 989.868 68.529 989.971 68.802 C 990.029 68.953 989.981 69.11 989.864 69.15 C 989.746 69.189 989.596 70.319 989.529 71.692 C 989.462 73.051 989.338 74.161 989.255 74.161 C 989.172 74.161 989.091 74.682 989.077 75.32 C 989.062 75.958 989.131 76.478 989.229 76.478 C 989.327 76.478 989.461 77.63 989.526 79.036 C 989.59 80.443 989.726 81.651 989.827 81.722 C 989.927 81.793 990.001 81.994 989.99 82.166 C 989.979 82.341 990.036 82.578 990.115 82.694 C 990.194 82.81 990.324 83.356 990.404 83.905 C 990.484 84.456 990.62 84.906 990.707 84.906 C 990.793 84.906 990.986 85.38 991.134 85.958 C 991.284 86.54 991.491 87.013 991.596 87.013 C 991.701 87.013 991.786 87.149 991.786 87.314 C 991.786 87.48 991.936 87.764 992.118 87.947 C 992.3 88.128 992.391 88.277 992.319 88.277 C 992.249 88.277 992.502 88.695 992.884 89.204 C 993.266 89.714 993.768 90.393 993.999 90.715 C 994.485 91.389 995.175 92.07 995.373 92.07 C 995.447 92.07 995.633 92.303 995.786 92.589 C 995.94 92.875 996.145 93.058 996.243 92.997 C 996.341 92.937 996.422 92.975 996.422 93.08 C 996.422 93.294 998.85 95.018 999.15 95.018 C 999.253 95.018 999.368 95.092 999.406 95.181 C 999.532 95.469 1002.267 96.527 1003.204 96.649 C 1003.703 96.713 1004.179 96.871 1004.262 96.999 C 1004.491 97.351 1013.738 97.32 1013.856 96.968 C 1013.904 96.822 1014.162 96.703 1014.429 96.703 C 1015.122 96.703 1018.124 95.67 1018.786 95.202 C 1019.094 94.985 1019.408 94.807 1019.482 94.807 C 1019.559 94.807 1019.922 94.524 1020.292 94.177 C 1020.663 93.83 1021.053 93.546 1021.16 93.545 C 1021.33 93.544 1023.385 91.479 1024.218 90.473 C 1025.369 89.08 1027.18 85.741 1027.18 85.01 C 1027.18 84.838 1027.259 84.695 1027.356 84.695 C 1027.452 84.695 1027.634 84.198 1027.76 83.589 C 1027.886 82.981 1028.096 82.104 1028.231 81.641 C 1028.635 80.238 1028.73 72.257 1028.369 70.158 C 1027.98 67.903 1027.602 66.321 1027.387 66.05 C 1027.297 65.935 1027.108 65.413 1026.969 64.892 C 1026.83 64.37 1026.655 63.896 1026.58 63.838 C 1026.504 63.78 1026.163 63.188 1025.819 62.522 C 1025.476 61.856 1025.117 61.31 1025.022 61.31 C 1024.928 61.31 1024.788 61.148 1024.712 60.951 C 1024.553 60.538 1024.04 59.912 1022.906 58.755 C 1022.468 58.306 1022.184 57.938 1022.275 57.938 C 1022.366 57.938 1022.156 57.757 1021.808 57.537 C 1021.46 57.316 1020.845 56.841 1020.439 56.484 C 1020.033 56.126 1019.583 55.834 1019.439 55.832 C 1019.294 55.832 1019.175 55.738 1019.175 55.621 C 1019.175 55.507 1019.075 55.412 1018.954 55.412 C 1018.833 55.412 1018.341 55.222 1017.862 54.99 C 1017.381 54.759 1016.888 54.569 1016.766 54.567 C 1016.642 54.566 1016.267 54.423 1015.931 54.247 C 1015.595 54.072 1015.272 53.977 1015.213 54.036 C 1015.154 54.096 1014.99 54.046 1014.846 53.928 C 1014.705 53.812 1013.938 53.657 1013.143 53.586 C 1012.347 53.516 1011.586 53.372 1011.451 53.265 C 1011.141 53.022 1006.569 53.079 1006.414 53.328 M 1081.957 53.292 C 1081.957 53.415 1081.641 53.516 1081.255 53.516 C 1080.388 53.516 1078.134 53.942 1077.848 54.161 C 1077.733 54.247 1077.283 54.386 1076.848 54.467 C 1076.413 54.55 1076.058 54.69 1076.058 54.78 C 1076.058 54.871 1075.838 55 1075.569 55.067 C 1075.299 55.135 1074.641 55.524 1074.106 55.932 C 1073.572 56.341 1073.054 56.676 1072.957 56.676 C 1072.859 56.676 1072.627 56.841 1072.438 57.044 C 1072.25 57.247 1071.731 57.755 1071.286 58.174 C 1070.402 59.003 1069.526 59.989 1069.526 60.153 C 1069.526 60.21 1069.361 60.44 1069.158 60.662 C 1068.478 61.411 1068.257 61.717 1068.047 62.199 C 1067.933 62.464 1067.56 63.17 1067.22 63.767 C 1066.882 64.365 1066.539 65.194 1066.461 65.61 C 1066.383 66.026 1066.247 66.366 1066.157 66.366 C 1066.067 66.366 1065.927 66.817 1065.843 67.367 C 1065.761 67.917 1065.634 68.463 1065.562 68.579 C 1064.893 69.648 1064.723 78.948 1065.33 81.218 C 1065.453 81.683 1065.659 82.535 1065.784 83.114 C 1065.91 83.696 1066.078 84.216 1066.158 84.274 C 1066.238 84.332 1066.368 84.664 1066.448 85.01 C 1066.665 85.938 1068.276 89.111 1068.84 89.721 C 1069.107 90.011 1069.511 90.544 1069.736 90.907 C 1069.96 91.272 1070.384 91.698 1070.678 91.854 C 1070.972 92.011 1071.212 92.256 1071.212 92.397 C 1071.212 92.537 1071.456 92.811 1071.752 93.008 C 1072.05 93.202 1072.461 93.52 1072.666 93.715 C 1073.118 94.145 1073.668 94.514 1074.373 94.858 C 1074.662 95 1074.959 95.201 1075.033 95.304 C 1075.108 95.41 1075.288 95.42 1075.434 95.33 C 1075.601 95.226 1075.649 95.248 1075.562 95.391 C 1075.479 95.524 1075.681 95.673 1076.058 95.755 C 1076.408 95.833 1076.974 96.036 1077.318 96.207 C 1077.661 96.378 1078.299 96.574 1078.737 96.643 C 1079.175 96.712 1079.602 96.873 1079.684 96.999 C 1079.893 97.32 1089.152 97.319 1089.561 96.999 C 1089.723 96.871 1090.449 96.645 1091.174 96.497 C 1091.897 96.348 1092.491 96.143 1092.491 96.043 C 1092.491 95.942 1092.608 95.862 1092.751 95.862 C 1093.145 95.862 1095.31 94.744 1095.503 94.441 C 1095.596 94.296 1095.808 94.175 1095.977 94.175 C 1096.145 94.175 1096.283 94.103 1096.283 94.011 C 1096.283 93.92 1096.543 93.691 1096.862 93.503 C 1097.791 92.953 1100.286 90.271 1100.286 89.822 C 1100.286 89.668 1100.357 89.54 1100.444 89.54 C 1100.676 89.537 1102.392 86.551 1102.392 86.147 C 1102.392 86.031 1102.573 85.538 1102.794 85.053 C 1103.017 84.566 1103.267 83.79 1103.351 83.326 C 1103.437 82.862 1103.579 82.436 1103.666 82.378 C 1104.105 82.089 1104.682 72.886 1104.293 72.371 C 1104.206 72.255 1104.07 71.358 1103.992 70.377 C 1103.914 69.394 1103.769 68.542 1103.674 68.481 C 1103.576 68.419 1103.428 67.941 1103.343 67.421 C 1103.26 66.898 1103.067 66.188 1102.916 65.84 C 1102.763 65.492 1102.531 64.858 1102.398 64.431 C 1102.267 64.005 1102.092 63.625 1102.011 63.589 C 1101.932 63.552 1101.591 63.002 1101.255 62.364 C 1100.087 60.148 1096.191 56.043 1095.254 56.043 C 1095.117 56.043 1094.956 55.915 1094.896 55.757 C 1094.836 55.6 1094.411 55.349 1093.954 55.197 C 1093.497 55.046 1093.122 54.853 1093.122 54.77 C 1093.122 54.685 1092.768 54.55 1092.332 54.467 C 1091.897 54.386 1091.421 54.221 1091.275 54.098 C 1091.126 53.976 1090.948 53.934 1090.877 54.005 C 1090.807 54.074 1090.571 54.037 1090.355 53.922 C 1089.32 53.368 1081.957 52.817 1081.957 53.292 M 1128.851 53.274 C 1128.791 53.373 1128.021 53.508 1127.14 53.574 C 1126.261 53.641 1125.428 53.784 1125.29 53.893 C 1125.152 54.001 1124.826 54.071 1124.566 54.047 C 1124.305 54.025 1124.092 54.075 1124.092 54.16 C 1124.092 54.243 1123.736 54.377 1123.302 54.459 C 1122.867 54.54 1122.417 54.68 1122.3 54.771 C 1122.186 54.861 1121.735 55.049 1121.301 55.19 C 1120.867 55.33 1120.511 55.522 1120.511 55.618 C 1120.511 55.713 1120.249 55.894 1119.931 56.02 C 1118.97 56.399 1117.985 57.028 1118.128 57.173 C 1118.203 57.247 1118.16 57.308 1118.035 57.308 C 1117.764 57.308 1114.855 60.154 1114.401 60.865 C 1114.227 61.137 1113.932 61.561 1113.746 61.809 C 1113.558 62.056 1113.338 62.472 1113.256 62.732 C 1113.176 62.994 1113.035 63.206 1112.946 63.206 C 1112.856 63.206 1112.662 63.61 1112.517 64.102 C 1112.37 64.594 1112.174 65.092 1112.082 65.208 C 1111.874 65.468 1111.36 67.247 1111.421 67.495 C 1111.447 67.594 1111.37 67.79 1111.254 67.93 C 1111.138 68.07 1110.98 68.748 1110.903 69.436 C 1110.825 70.122 1110.688 70.781 1110.596 70.898 C 1110.365 71.194 1110.342 79.368 1110.571 79.51 C 1110.674 79.575 1110.82 80.289 1110.895 81.103 C 1110.97 81.914 1111.221 83.058 1111.452 83.645 C 1111.684 84.231 1111.872 84.897 1111.872 85.125 C 1111.872 85.353 1111.948 85.538 1112.039 85.538 C 1112.131 85.538 1112.321 85.964 1112.46 86.486 C 1112.599 87.009 1112.798 87.434 1112.9 87.434 C 1113.002 87.434 1113.212 87.742 1113.365 88.119 C 1113.519 88.496 1113.745 88.915 1113.866 89.048 C 1114.326 89.563 1115.062 90.575 1115.053 90.683 C 1115.027 90.975 1117.202 92.912 1118.618 93.859 C 1119.138 94.207 1119.61 94.548 1119.667 94.621 C 1119.899 94.904 1121.053 95.376 1121.301 95.287 C 1121.445 95.236 1121.563 95.284 1121.563 95.394 C 1121.563 95.633 1122.948 96.171 1124.408 96.501 C 1124.987 96.631 1125.69 96.85 1125.968 96.986 C 1126.648 97.316 1137.103 97.331 1137.318 97.003 C 1137.403 96.877 1138.179 96.659 1139.043 96.519 C 1139.909 96.379 1140.667 96.181 1140.729 96.082 C 1140.791 95.982 1141.198 95.833 1141.633 95.752 C 1142.07 95.67 1142.776 95.424 1143.204 95.205 C 1143.634 94.987 1144.107 94.807 1144.256 94.807 C 1144.406 94.807 1144.528 94.724 1144.528 94.622 C 1144.528 94.519 1144.694 94.38 1144.896 94.312 C 1145.281 94.182 1146.211 93.659 1147.144 93.048 L 1147.692 92.689 L 1147.638 83.372 L 1147.582 74.057 L 1139.892 74.057 L 1132.204 74.057 L 1132.144 76.636 L 1132.085 79.218 L 1136.726 79.218 L 1141.368 79.218 L 1141.368 84.715 C 1141.368 90.036 1141.354 90.216 1140.946 90.323 C 1140.715 90.383 1140.525 90.501 1140.525 90.585 C 1140.525 90.724 1139.024 91.27 1138.523 91.313 C 1138.408 91.324 1138.252 91.414 1138.179 91.515 C 1138.105 91.617 1137.37 91.749 1136.545 91.808 C 1135.721 91.868 1135.048 91.973 1135.048 92.044 C 1135.047 92.117 1133.719 92.184 1132.097 92.199 C 1130.476 92.211 1129.149 92.153 1129.149 92.07 C 1129.149 91.987 1128.62 91.863 1127.975 91.797 C 1127.329 91.73 1126.651 91.55 1126.468 91.399 C 1126.284 91.245 1126.125 91.16 1126.113 91.207 C 1126.026 91.582 1122.603 89.799 1121.752 88.936 C 1121.567 88.748 1121.187 88.386 1120.909 88.133 C 1120.632 87.88 1120.281 87.522 1120.129 87.338 C 1119.632 86.736 1117.983 83.378 1117.983 82.972 C 1117.983 82.753 1117.845 82.246 1117.677 81.844 C 1117.39 81.157 1116.868 76.823 1116.879 75.215 C 1116.89 73.649 1117.395 69.418 1117.578 69.351 C 1117.685 69.312 1117.771 69.053 1117.771 68.775 C 1117.771 68.097 1118.243 66.366 1118.426 66.366 C 1118.563 66.366 1119.083 65.102 1119.024 64.911 C 1119.009 64.863 1119.148 64.741 1119.333 64.637 C 1119.517 64.533 1119.667 64.359 1119.667 64.249 C 1119.667 64.139 1119.833 63.873 1120.036 63.66 C 1120.239 63.446 1120.594 63.004 1120.827 62.677 C 1121.421 61.839 1121.716 61.568 1122.197 61.415 C 1122.428 61.341 1122.617 61.202 1122.617 61.107 C 1122.617 60.879 1123.957 60.088 1124.628 59.92 C 1124.912 59.849 1125.144 59.718 1125.144 59.628 C 1125.144 59.433 1126.804 58.993 1127.539 58.993 C 1127.825 58.993 1128.097 58.88 1128.143 58.74 C 1128.258 58.397 1135.482 58.361 1135.909 58.702 C 1136.073 58.831 1136.846 59.055 1137.627 59.2 C 1138.41 59.344 1139.05 59.546 1139.05 59.649 C 1139.05 59.751 1139.149 59.835 1139.272 59.835 C 1139.53 59.835 1141.324 60.594 1141.788 60.9 C 1141.962 61.015 1142.413 61.249 1142.79 61.422 C 1143.166 61.596 1143.473 61.83 1143.473 61.946 C 1143.473 62.059 1143.604 62.153 1143.763 62.153 C 1143.921 62.153 1144.536 62.538 1145.128 63.011 C 1146.59 64.174 1146.634 64.101 1146.634 60.532 C 1146.634 57.059 1146.665 57.129 1144.767 56.223 C 1144.23 55.967 1143.72 55.654 1143.635 55.531 C 1143.551 55.408 1143.479 55.389 1143.478 55.49 C 1143.474 55.591 1143.356 55.577 1143.211 55.457 C 1143.065 55.335 1142.592 55.172 1142.157 55.091 C 1141.723 55.01 1141.368 54.87 1141.368 54.78 C 1141.368 54.689 1141.011 54.55 1140.578 54.467 C 1140.142 54.386 1139.692 54.246 1139.577 54.156 C 1139.314 53.952 1136.373 53.516 1135.261 53.516 C 1134.81 53.516 1134.381 53.421 1134.309 53.305 C 1134.15 53.047 1129.009 53.017 1128.851 53.274 M 1221.951 53.304 C 1221.719 53.403 1221.085 53.493 1220.542 53.501 C 1219.524 53.516 1216.106 54.501 1215.981 54.814 C 1215.943 54.911 1215.788 54.99 1215.636 54.99 C 1215.206 54.99 1213.177 56.432 1212.414 57.279 C 1212.034 57.699 1211.489 58.298 1211.202 58.611 C 1210.915 58.922 1210.68 59.226 1210.68 59.289 C 1210.68 59.351 1210.444 59.92 1210.153 60.552 C 1209.864 61.186 1209.627 61.99 1209.627 62.337 C 1209.627 62.686 1209.538 63.025 1209.43 63.091 C 1209.189 63.242 1209.17 67.794 1209.413 67.944 C 1209.508 68.003 1209.653 68.526 1209.732 69.105 C 1209.812 69.684 1209.956 70.158 1210.05 70.158 C 1210.146 70.158 1210.289 70.451 1210.367 70.809 C 1210.504 71.432 1212.841 74.161 1213.237 74.161 C 1213.339 74.161 1213.813 74.443 1214.287 74.789 C 1214.764 75.134 1215.474 75.476 1215.866 75.549 C 1216.259 75.623 1216.579 75.76 1216.579 75.855 C 1216.579 75.95 1217.1 76.144 1217.737 76.286 C 1218.374 76.429 1218.896 76.614 1218.896 76.696 C 1218.896 76.778 1219.394 76.911 1220.002 76.991 C 1220.61 77.071 1221.582 77.265 1222.161 77.423 C 1222.741 77.581 1223.784 77.774 1224.48 77.853 C 1225.174 77.931 1225.839 78.07 1225.953 78.162 C 1226.07 78.254 1226.709 78.442 1227.376 78.578 C 1228.042 78.714 1228.587 78.907 1228.587 79.006 C 1228.587 79.105 1228.878 79.248 1229.234 79.327 C 1229.589 79.405 1229.931 79.602 1229.993 79.764 C 1230.056 79.927 1230.201 80.06 1230.314 80.06 C 1230.621 80.06 1231.748 81.177 1231.748 81.482 C 1231.748 81.627 1231.843 81.746 1231.958 81.746 C 1232.074 81.746 1232.169 81.869 1232.169 82.02 C 1232.169 82.171 1232.28 82.404 1232.415 82.541 C 1232.894 83.02 1233.054 87.614 1232.58 87.323 C 1232.498 87.272 1232.374 87.518 1232.303 87.869 C 1232.121 88.772 1229.949 90.915 1229.004 91.12 C 1228.601 91.207 1228.215 91.368 1228.145 91.478 C 1227.637 92.274 1217.805 92.249 1217.211 91.449 C 1217.153 91.371 1216.56 91.18 1215.894 91.023 C 1215.227 90.866 1214.683 90.669 1214.683 90.584 C 1214.683 90.5 1214.36 90.371 1213.966 90.296 C 1213.572 90.223 1213.135 90.022 1212.993 89.852 C 1212.851 89.68 1212.646 89.542 1212.537 89.542 C 1212.428 89.542 1211.824 89.297 1211.193 88.999 C 1209.374 88.138 1209.387 88.119 1209.389 91.629 C 1209.391 94.834 1209.445 95.008 1210.404 95.015 C 1210.658 95.017 1210.925 95.115 1210.999 95.232 C 1211.071 95.351 1211.212 95.396 1211.312 95.334 C 1211.412 95.273 1211.55 95.313 1211.618 95.424 C 1211.688 95.535 1212.168 95.69 1212.686 95.769 C 1213.206 95.845 1213.629 95.985 1213.629 96.078 C 1213.629 96.171 1214.483 96.369 1215.525 96.517 C 1216.568 96.664 1217.421 96.842 1217.421 96.913 C 1217.421 97.301 1228.713 97.386 1228.964 96.999 C 1229.046 96.873 1229.572 96.708 1230.132 96.632 C 1230.692 96.558 1231.498 96.349 1231.922 96.166 C 1233.567 95.462 1234.535 94.925 1234.636 94.661 C 1234.694 94.511 1234.86 94.386 1235.004 94.386 C 1235.218 94.386 1236.737 92.846 1237.395 91.963 C 1237.843 91.362 1238.439 90.193 1238.576 89.643 C 1238.662 89.298 1238.844 88.95 1238.98 88.866 C 1239.145 88.764 1239.25 87.645 1239.301 85.469 C 1239.39 81.6 1238.981 79.915 1237.398 77.638 C 1236.893 76.911 1235.447 75.426 1235.243 75.426 C 1235.11 75.426 1234.844 75.26 1234.653 75.057 C 1234.154 74.528 1233.685 74.161 1233.508 74.161 C 1233.424 74.161 1232.971 73.984 1232.498 73.768 C 1232.027 73.551 1231.31 73.258 1230.905 73.115 C 1230.499 72.972 1229.979 72.775 1229.745 72.677 C 1228.924 72.333 1224.611 71.444 1223.689 71.432 C 1223.37 71.426 1223.109 71.344 1223.109 71.247 C 1223.109 71.15 1222.991 71.064 1222.846 71.054 C 1221.93 70.991 1219.777 70.476 1219.428 70.236 C 1219.199 70.078 1218.859 69.949 1218.671 69.949 C 1217.998 69.949 1216.188 68.186 1216.015 67.364 C 1215.947 67.043 1215.823 66.736 1215.74 66.685 C 1215.583 66.588 1215.64 64.793 1215.846 63.334 C 1215.91 62.883 1216.149 62.252 1216.375 61.932 C 1216.603 61.611 1216.789 61.256 1216.789 61.14 C 1216.789 60.961 1217.94 60.134 1218.576 59.858 C 1218.69 59.809 1218.906 59.645 1219.057 59.493 C 1219.208 59.343 1219.684 59.154 1220.115 59.076 C 1220.544 58.996 1220.965 58.827 1221.048 58.7 C 1221.274 58.35 1228.417 58.378 1228.535 58.73 C 1228.583 58.874 1228.857 58.993 1229.144 58.993 C 1229.832 58.993 1231.589 59.423 1231.843 59.654 C 1231.953 59.754 1232.219 59.835 1232.436 59.835 C 1232.652 59.835 1233.346 60.072 1233.979 60.362 C 1234.612 60.652 1235.222 60.889 1235.336 60.889 C 1235.448 60.889 1235.54 60.969 1235.54 61.065 C 1235.54 61.16 1235.658 61.24 1235.803 61.241 C 1235.948 61.242 1236.279 61.312 1236.54 61.397 L 1237.014 61.549 L 1237.014 58.501 L 1237.014 55.452 L 1236.35 55.221 C 1235.987 55.094 1235.512 54.99 1235.298 54.99 C 1235.082 54.99 1234.908 54.905 1234.908 54.8 C 1234.908 54.695 1234.34 54.544 1233.644 54.464 C 1232.948 54.383 1232.38 54.246 1232.38 54.162 C 1232.38 54.077 1232.261 54.001 1232.116 53.992 C 1231.971 53.985 1231.189 53.876 1230.378 53.751 C 1229.567 53.626 1228.501 53.522 1228.007 53.519 C 1227.516 53.517 1227.112 53.433 1227.112 53.332 C 1227.112 53.092 1222.499 53.066 1221.951 53.304 M 786.904 54.146 C 786.831 54.265 786.793 55.451 786.82 56.782 L 786.869 59.204 L 794.418 59.204 L 801.968 59.204 L 801.968 77.849 L 801.968 96.493 L 805.129 96.493 L 808.288 96.493 L 808.288 77.849 L 808.288 59.204 L 815.767 59.204 L 823.246 59.204 L 823.246 56.575 L 823.246 53.945 L 805.142 53.94 C 793.066 53.934 786.993 54.004 786.904 54.146 M 828.234 54.075 C 828.155 54.154 828.091 63.73 828.091 75.355 L 828.091 96.493 L 841.996 96.493 L 855.901 96.493 L 855.901 93.859 C 855.901 92.411 855.83 91.238 855.742 91.252 C 855.657 91.265 850.773 91.265 844.893 91.252 L 834.201 91.226 L 834.201 83.853 L 834.201 76.478 L 844.314 76.478 L 854.426 76.478 L 854.426 73.95 L 854.426 71.423 L 844.314 71.423 L 834.201 71.423 L 834.201 65.313 L 834.201 59.204 L 844.742 59.204 L 855.282 59.204 L 855.223 56.622 L 855.163 54.042 L 841.77 53.987 C 834.403 53.958 828.311 53.997 828.234 54.075 M 904.989 75.231 L 904.989 96.493 L 908.043 96.493 L 911.098 96.493 L 911.098 86.486 L 911.098 76.478 L 921.21 76.478 L 931.323 76.478 L 931.323 86.486 L 931.323 96.493 L 934.483 96.493 L 937.643 96.493 L 937.643 75.207 L 937.643 53.918 L 934.483 53.948 L 931.323 53.976 L 931.323 62.699 L 931.323 71.423 L 921.214 71.423 L 911.103 71.423 L 911.048 62.732 L 910.993 54.042 L 907.991 54.005 L 904.989 53.968 L 904.989 75.231 M 948.388 75.225 L 948.388 96.493 L 951.443 96.493 L 954.497 96.493 L 954.514 79.376 C 954.524 69.961 954.584 62.401 954.652 62.574 C 954.717 62.748 954.828 62.938 954.897 62.996 C 954.967 63.053 955.389 63.813 955.834 64.681 C 958.245 69.384 958.714 70.284 958.863 70.485 C 958.953 70.606 959.312 71.269 959.66 71.959 C 960.007 72.65 960.339 73.26 960.396 73.319 C 960.454 73.377 960.768 73.993 961.096 74.689 C 961.421 75.384 961.777 76.094 961.887 76.268 C 961.996 76.442 962.2 76.821 962.341 77.111 C 962.485 77.401 962.649 77.685 962.709 77.743 C 962.77 77.801 963.285 78.772 963.855 79.903 C 964.424 81.032 964.958 81.957 965.038 81.957 C 965.12 81.957 965.308 82.383 965.452 82.905 C 965.598 83.426 965.791 83.853 965.881 83.853 C 965.97 83.853 966.15 84.114 966.28 84.432 C 966.558 85.11 967.856 87.547 968.137 87.916 C 968.244 88.056 968.461 88.504 968.617 88.909 C 968.776 89.314 968.957 89.694 969.022 89.752 C 969.086 89.809 969.424 90.426 969.772 91.122 C 970.12 91.817 970.469 92.434 970.548 92.494 C 970.736 92.637 971.219 93.811 971.175 94.017 C 971.156 94.105 971.22 94.175 971.318 94.175 C 971.465 94.175 972.002 95.065 972.082 95.44 C 972.302 96.47 972.404 96.493 976.732 96.493 L 980.833 96.493 L 980.833 75.235 L 980.833 53.977 L 977.777 53.948 L 974.722 53.918 L 974.722 70.888 C 974.722 80.22 974.642 87.856 974.545 87.856 C 974.448 87.856 974.243 87.476 974.09 87.013 C 973.936 86.55 973.751 86.17 973.678 86.17 C 973.603 86.17 973.423 85.837 973.276 85.433 C 973.13 85.027 972.921 84.695 972.813 84.695 C 972.705 84.695 972.616 84.513 972.616 84.289 C 972.616 84.066 972.484 83.749 972.32 83.588 C 972.158 83.426 971.72 82.638 971.346 81.834 C 970.972 81.033 970.599 80.329 970.516 80.27 C 970.432 80.214 970.299 79.906 970.221 79.587 C 970.143 79.268 969.994 79.007 969.89 79.007 C 969.784 79.007 969.59 78.676 969.455 78.27 C 969.322 77.864 969.132 77.533 969.035 77.533 C 968.936 77.533 968.795 77.25 968.719 76.903 C 968.643 76.557 968.51 76.229 968.423 76.175 C 968.336 76.122 967.942 75.434 967.547 74.646 C 967.153 73.858 966.781 73.165 966.72 73.109 C 966.597 72.99 965.791 71.379 965.457 70.58 C 965.335 70.291 965.054 69.769 964.832 69.421 C 964.61 69.073 963.974 67.888 963.418 66.788 C 962.865 65.687 962.298 64.669 962.158 64.525 C 962.019 64.382 961.796 63.932 961.661 63.524 C 961.527 63.117 961.337 62.785 961.24 62.785 C 961.142 62.785 961.001 62.507 960.927 62.168 C 960.851 61.828 960.661 61.442 960.501 61.31 C 960.343 61.178 960.151 60.792 960.076 60.453 C 960.002 60.113 959.861 59.835 959.762 59.835 C 959.662 59.835 959.461 59.503 959.314 59.097 C 959.167 58.692 958.987 58.361 958.914 58.361 C 958.839 58.361 958.654 57.982 958.5 57.518 C 958.347 57.055 958.143 56.676 958.045 56.676 C 957.948 56.676 957.868 56.54 957.868 56.375 C 957.868 56.209 957.739 55.946 957.582 55.788 C 957.425 55.63 957.17 55.153 957.017 54.728 L 956.737 53.954 L 952.561 53.955 L 948.388 53.957 L 948.388 75.225 M 1037.083 75.235 L 1037.083 96.493 L 1050.572 96.493 L 1064.062 96.493 L 1064.003 93.913 L 1063.944 91.331 L 1053.674 91.276 L 1043.403 91.223 L 1043.403 72.572 L 1043.403 53.918 L 1040.244 53.948 L 1037.083 53.976 L 1037.083 75.235 M 1157.734 54.072 C 1157.656 54.152 1157.589 63.732 1157.589 75.361 L 1157.589 96.505 L 1160.696 96.445 L 1163.805 96.388 L 1163.805 75.215 L 1163.805 54.042 L 1160.843 53.983 C 1159.214 53.952 1157.816 53.991 1157.734 54.072 M 1174.794 54.077 C 1174.717 54.154 1174.654 63.73 1174.654 75.355 L 1174.654 96.493 L 1188.46 96.493 L 1202.266 96.493 L 1202.206 93.913 L 1202.147 91.331 L 1191.561 91.276 L 1180.975 91.223 L 1180.975 83.85 L 1180.975 76.478 L 1190.981 76.478 L 1200.988 76.478 L 1200.988 73.95 L 1200.988 71.423 L 1190.981 71.423 L 1180.975 71.423 L 1180.975 65.313 L 1180.975 59.204 L 1191.403 59.204 L 1201.832 59.204 L 1201.832 56.57 L 1201.832 53.936 L 1188.383 53.936 C 1180.987 53.936 1174.872 54 1174.794 54.077 M 1012.388 58.752 C 1012.432 58.884 1012.667 58.993 1012.908 58.993 C 1013.456 58.993 1016.014 60.221 1016.014 60.486 C 1016.014 60.592 1016.12 60.678 1016.247 60.678 C 1016.51 60.678 1018.534 62.592 1018.539 62.847 C 1018.542 62.938 1018.733 63.217 1018.964 63.465 C 1019.196 63.714 1019.386 64.033 1019.386 64.172 C 1019.386 64.311 1019.528 64.48 1019.702 64.548 C 1019.875 64.613 1020.019 64.849 1020.019 65.07 C 1020.019 65.291 1020.16 65.59 1020.334 65.735 C 1020.508 65.878 1020.65 66.137 1020.65 66.308 C 1020.65 66.478 1020.788 66.917 1020.959 67.283 C 1021.934 69.382 1022.707 79.129 1021.919 79.391 C 1021.8 79.431 1021.7 79.764 1021.698 80.13 C 1021.691 80.886 1021.367 82.484 1021.089 83.114 C 1020.486 84.491 1019.719 86.08 1019.612 86.17 C 1019.545 86.228 1019.349 86.56 1019.175 86.908 C 1018.803 87.651 1016.323 90.114 1015.768 90.29 C 1015.557 90.356 1015.383 90.483 1015.383 90.571 C 1015.383 90.824 1013.286 91.614 1011.802 91.92 C 1009.755 92.341 1005.316 92.067 1004.565 91.473 C 1004.432 91.368 1003.967 91.166 1003.533 91.026 C 1003.098 90.886 1002.742 90.685 1002.742 90.577 C 1002.742 90.472 1002.623 90.383 1002.479 90.383 C 1002.102 90.383 1000.271 88.789 999.528 87.814 C 998.511 86.482 998.107 85.853 998.107 85.603 C 998.107 85.451 998.028 85.327 997.93 85.327 C 997.764 85.327 997.219 83.811 997.275 83.509 C 997.289 83.435 997.195 83.308 997.068 83.23 C 996.94 83.15 996.731 82.476 996.603 81.731 C 996.474 80.986 996.263 80.243 996.133 80.081 C 995.834 79.709 995.807 71.252 996.102 70.79 C 996.213 70.617 996.331 70.285 996.363 70.053 C 996.483 69.18 996.905 67.517 997.058 67.314 C 997.145 67.199 997.282 66.796 997.362 66.419 C 997.443 66.042 997.589 65.735 997.687 65.735 C 997.784 65.735 997.977 65.391 998.116 64.973 C 998.253 64.553 998.521 64.039 998.711 63.83 C 998.9 63.619 999.293 63.142 999.583 62.767 C 999.872 62.395 1000.282 61.937 1000.491 61.753 C 1000.702 61.568 1001.223 61.108 1001.65 60.731 C 1002.078 60.354 1002.53 60.047 1002.658 60.046 C 1002.785 60.046 1003.099 59.864 1003.356 59.641 C 1003.611 59.419 1004.196 59.172 1004.653 59.096 C 1005.107 59.02 1005.482 58.875 1005.482 58.776 C 1005.482 58.332 1012.24 58.307 1012.388 58.752 M 1088.042 58.734 C 1088.113 58.843 1088.524 58.996 1088.954 59.076 C 1089.386 59.154 1089.877 59.359 1090.046 59.528 C 1090.215 59.697 1090.488 59.835 1090.653 59.835 C 1090.817 59.835 1091.147 60.001 1091.387 60.203 C 1092.319 60.992 1092.614 61.227 1093.116 61.578 C 1093.403 61.779 1093.564 61.942 1093.478 61.942 C 1093.311 61.942 1093.461 62.139 1094.441 63.206 C 1094.76 63.554 1095.174 64.218 1095.358 64.681 C 1095.545 65.146 1095.781 65.525 1095.885 65.525 C 1095.987 65.525 1096.072 65.692 1096.072 65.898 C 1096.072 66.105 1096.202 66.459 1096.361 66.688 C 1096.654 67.111 1097.195 69.118 1097.581 71.213 C 1097.885 72.864 1097.704 80.464 1097.355 80.68 C 1097.21 80.772 1097.096 80.929 1097.104 81.032 C 1097.142 81.488 1096.603 83.642 1096.451 83.642 C 1096.358 83.642 1096.283 83.782 1096.283 83.952 C 1096.283 84.307 1095.127 86.525 1094.681 87.03 C 1094.519 87.213 1094.387 87.432 1094.387 87.518 C 1094.387 88.166 1090.324 91.226 1089.463 91.226 C 1089.273 91.226 1089.119 91.306 1089.119 91.403 C 1089.119 91.742 1086.682 92.134 1084.432 92.157 C 1083.187 92.169 1082.167 92.119 1082.167 92.047 C 1082.167 91.973 1081.793 91.863 1081.334 91.801 C 1080.401 91.676 1078.375 90.824 1078.375 90.556 C 1078.375 90.462 1078.244 90.383 1078.085 90.383 C 1077.925 90.383 1077.674 90.239 1077.528 90.062 C 1077.382 89.886 1077.226 89.777 1077.182 89.822 C 1076.978 90.025 1074.373 87.059 1074.373 86.623 C 1074.373 86.509 1074.299 86.384 1074.205 86.346 C 1073.935 86.231 1072.925 84.38 1072.822 83.807 C 1072.768 83.514 1072.62 83.098 1072.492 82.88 C 1071.829 81.749 1071.009 71.845 1071.579 71.845 C 1071.676 71.845 1071.769 71.631 1071.785 71.37 C 1071.848 70.415 1072.353 67.842 1072.478 67.842 C 1072.548 67.842 1072.728 67.367 1072.877 66.788 C 1073.025 66.208 1073.234 65.735 1073.338 65.735 C 1073.444 65.735 1073.53 65.577 1073.53 65.386 C 1073.53 65.194 1073.767 64.727 1074.056 64.346 C 1074.346 63.966 1074.584 63.579 1074.584 63.484 C 1074.589 62.878 1078.108 59.835 1078.803 59.835 C 1078.915 59.835 1079.006 59.748 1079.006 59.64 C 1079.006 59.533 1079.529 59.328 1080.166 59.185 C 1080.802 59.042 1081.325 58.852 1081.325 58.762 C 1081.325 58.36 1087.782 58.333 1088.042 58.734" stroke="none" fill="#d4d4d4" fill-rule="evenodd" style=""></path>
  <path id="path1" d="M 732.284 79.343 L 732.284 155.699 L 735.273 155.699 L 738.263 155.699 L 738.263 79.301 L 738.263 2.9 L 735.273 2.941 L 732.284 2.984 L 732.284 79.343 M 1101.075 111.232 C 1101.075 113.871 1101.102 114.901 1101.134 113.524 C 1101.166 112.146 1101.166 109.986 1101.134 108.725 C 1101.101 107.465 1101.075 108.593 1101.075 111.232 M 843.11 112.419 C 843.361 112.503 843.772 112.503 844.023 112.419 C 844.274 112.336 844.069 112.267 843.566 112.267 C 843.064 112.267 842.859 112.336 843.11 112.419 M 1039.099 112.419 C 1039.351 112.503 1039.762 112.503 1040.013 112.419 C 1040.264 112.336 1040.059 112.267 1039.557 112.267 C 1039.054 112.267 1038.848 112.336 1039.099 112.419" stroke="none" fill="#b4c4dc" fill-rule="evenodd" style=""></path>
  <path id="path2" d="" stroke="none" fill="#d8ccd8" fill-rule="evenodd"></path>
  <path id="path3" d="" stroke="none" fill="#d8ccd8" fill-rule="evenodd"></path>
  <path id="path4" d="" stroke="none" fill="#d8ccd8" fill-rule="evenodd"></path>
</svg>
