<svg xmlns="http://www.w3.org/2000/svg" version="1.1" viewBox="0 0 1151.985 123.445" width="1151.985" height="123.445">
  <path d="M 15.633 1.105 C 45.603 0.895 75.783 1.055 105.713 1.225 C 109.863 1.305 113.953 2.745 116.373 6.295 C 119.363 10.645 119.553 15.915 119.543 21.005 C 119.473 27.665 119.613 34.335 119.483 40.995 C 119.283 47.235 116.373 53.865 110.943 57.275 C 108.343 58.975 105.643 58.665 102.673 58.745 C 96.413 58.695 90.163 58.745 83.903 58.685 C 84.263 66.785 83.983 74.895 84.113 83.005 C 84.023 84.835 84.343 87.015 83.303 88.575 C 76.993 89.155 70.503 88.805 64.163 88.705 C 63.733 79.005 64.043 69.255 63.983 59.535 C 59.493 59.235 54.963 59.555 50.483 59.145 C 48.803 57.895 47.593 55.895 46.363 54.215 C 43.553 50.045 40.473 46.015 37.843 41.725 C 37.023 40.505 37.073 39.245 36.943 37.835 C 57.183 37.825 77.433 37.965 97.663 38.005 C 97.663 32.005 97.663 26.005 97.663 20.005 C 72.893 19.885 47.713 20.465 23.043 19.495 C 21.313 17.955 19.993 15.885 18.653 14.005 C 15.973 10.025 13.063 6.295 10.633 2.185 C 12.363 1.355 13.703 1.075 15.633 1.105 Z" fill="#fff"></path>
  <path d="M 231.663 1.085 C 260.663 0.895 289.673 1.075 318.683 1.025 C 323.013 0.955 327.253 2.065 330.033 5.605 C 333.533 10.245 334.073 16.365 333.713 21.975 C 333.093 29.965 333.873 38.025 333.253 46.005 C 332.333 53.175 327.223 58.105 320.443 60.085 C 332.623 72.195 345.263 83.825 357.363 96.015 C 365.953 105.095 375.163 113.605 383.413 122.995 C 372.593 123.015 361.783 123.005 350.973 122.995 C 341.783 114.015 332.573 105.055 323.463 96.005 C 317.833 90.375 311.943 84.995 306.443 79.245 C 302.033 73.945 296.933 69.485 292.113 64.555 C 290.643 63.215 288.933 61.215 286.883 60.925 C 283.103 60.575 279.253 60.815 275.463 60.785 C 275.423 69.465 275.483 78.145 275.423 86.825 C 274.883 87.335 274.333 87.845 273.793 88.355 C 267.453 88.355 261.113 88.345 254.763 88.355 C 254.233 87.745 253.693 87.135 253.153 86.525 C 253.173 70.685 253.163 54.845 253.163 39.005 C 272.663 39.005 292.163 39.005 311.663 39.005 C 311.663 32.675 311.663 26.335 311.663 20.005 C 288.323 20.045 264.993 20.025 241.653 20.035 C 240.203 19.975 238.573 20.105 237.183 19.615 C 235.563 18.225 234.303 16.325 233.063 14.585 C 230.183 10.345 227.093 6.295 224.473 1.885 C 226.863 1.275 229.203 1.065 231.663 1.085 Z" fill="#fff"></path>
  <path d="M 361.613 1.005 C 391.693 0.995 421.623 1.015 451.683 1.035 C 456.363 1.045 461.303 2.695 463.793 6.925 C 466.633 11.605 466.453 16.695 466.603 21.975 C 434.083 22.025 401.573 22.025 369.053 21.975 C 364.803 15.645 360.943 9.065 357.313 2.355 C 358.753 1.485 359.863 0.905 361.613 1.005 Z" fill="#fff"></path>
  <path d="M 485.573 1.215 C 512.593 0.875 539.633 1.145 566.663 1.055 C 572.653 1.145 578.703 0.975 584.673 1.535 C 584.233 6.515 580.423 11.035 578.083 15.415 C 575.823 18.875 574.643 23.195 571.963 26.295 C 563.083 26.855 554.003 26.355 545.083 26.505 C 545.093 46.435 545.053 66.375 545.103 86.305 C 544.553 87.015 543.993 87.725 543.443 88.425 C 536.903 88.485 530.373 88.445 523.833 88.465 C 523.253 87.805 522.663 87.145 522.083 86.485 C 522.083 66.495 522.093 46.505 522.083 26.515 C 513.163 26.505 504.243 26.555 495.333 26.485 C 490.903 18.725 486.363 11.015 482.023 3.215 C 483.193 2.015 483.713 1.055 485.573 1.215 Z" fill="#fff"></path>
  <path d="M 616.623 1.185 C 634.313 1.185 651.983 1.205 669.673 1.175 C 674.323 1.155 678.893 1.875 682.163 5.485 C 685.613 9.595 686.563 14.765 686.593 19.995 C 686.593 36.005 686.593 52.005 686.593 68.015 C 686.573 73.795 685.423 79.335 681.263 83.595 C 677.943 87.125 673.393 88.315 668.673 88.365 C 653.343 88.365 637.993 88.325 622.663 88.375 C 619.113 88.355 615.813 88.555 612.363 87.545 C 608.543 86.525 605.413 83.775 603.363 80.465 C 600.823 76.245 600.293 70.825 600.343 66.005 C 600.393 55.995 600.353 45.975 600.373 35.955 C 605.173 34.255 609.683 34.895 614.663 34.765 C 617.583 34.695 620.183 35.075 622.973 35.885 C 623.033 44.995 622.923 54.115 623.033 63.225 C 636.703 63.215 650.383 63.215 664.053 63.225 C 663.893 49.505 664.573 35.695 663.583 22.005 C 642.463 21.985 621.353 22.055 600.243 21.965 C 600.403 16.575 600.963 10.245 604.543 5.915 C 607.603 2.235 612.023 1.195 616.623 1.185 Z" fill="#fff"></path>
  <path d="M 169.863 1.555 C 177.223 1.555 184.583 1.555 191.943 1.555 C 205.313 29.425 218.693 57.295 232.073 85.165 C 231.553 85.965 231.043 86.775 230.523 87.575 C 213.993 87.585 197.463 87.565 180.933 87.585 C 180.343 87.045 179.753 86.505 179.163 85.965 C 179.243 80.625 178.973 75.265 179.263 69.935 C 179.133 68.325 181.273 67.635 182.593 67.735 C 187.543 67.625 192.493 67.775 197.443 67.715 C 191.873 55.905 186.423 44.035 180.893 32.205 C 172.303 50.665 163.683 69.115 155.103 87.575 C 147.143 87.575 139.193 87.585 131.233 87.575 C 130.733 86.765 130.223 85.965 129.723 85.165 C 143.103 57.295 156.493 29.435 169.863 1.555 Z" fill="#fff"></path>
  <path d="M 368.853 32.565 C 388.893 32.185 409.093 32.515 429.163 32.405 C 429.073 39.465 429.173 46.525 429.133 53.575 C 415.503 53.595 401.863 53.605 388.233 53.575 C 388.203 58.695 388.433 63.915 387.973 69.015 C 408.213 68.975 428.473 68.955 448.703 69.005 C 449.803 69.135 451.863 68.875 452.503 70.005 C 454.843 73.135 456.653 76.675 458.783 79.965 C 460.133 82.255 461.983 84.785 462.433 87.435 C 458.283 88.225 453.883 87.825 449.663 87.985 C 426.653 87.945 403.623 88.155 380.613 87.765 C 377.453 87.735 374.553 86.615 372.463 84.195 C 369.013 80.115 368.703 74.085 368.743 68.995 C 369.103 56.865 368.713 44.665 368.853 32.565 Z" fill="#fff"></path>
  <path id="path0" d="M 831.946 40.919 C 831.891 41.009 831.168 41.141 830.339 41.214 C 829.511 41.286 828.832 41.422 828.832 41.514 C 828.832 41.608 828.7 41.632 828.538 41.57 C 828.376 41.508 828.059 41.541 827.834 41.645 C 827.609 41.747 827.035 42.012 826.559 42.233 C 826.083 42.454 825.603 42.634 825.493 42.634 C 825.382 42.634 825.178 42.747 825.041 42.885 C 824.902 43.023 824.385 43.362 823.891 43.638 C 823.396 43.914 822.87 44.244 822.72 44.372 C 821.955 45.028 820.007 46.986 820.005 47.102 C 820.004 47.174 819.833 47.446 819.627 47.704 C 818.937 48.57 818.317 49.596 818.317 49.872 C 818.317 50.022 818.239 50.146 818.143 50.146 C 818.049 50.146 817.87 50.449 817.748 50.82 C 817.625 51.192 817.408 51.721 817.265 51.994 C 817.122 52.268 817.004 52.635 817.003 52.81 C 817.003 52.985 816.922 53.177 816.823 53.238 C 816.724 53.299 816.688 53.465 816.742 53.606 C 816.796 53.748 816.755 53.915 816.653 53.979 C 816.549 54.043 816.406 54.769 816.334 55.594 C 816.262 56.419 816.133 57.093 816.049 57.093 C 815.964 57.093 815.895 58.614 815.895 60.473 C 815.893 62.332 815.961 63.853 816.046 63.853 C 816.129 63.853 816.254 64.539 816.325 65.377 C 816.395 66.214 816.575 67.14 816.727 67.433 C 816.878 67.726 817.002 68.101 817.002 68.267 C 817.002 68.433 817.165 68.926 817.364 69.362 C 817.563 69.799 817.784 70.386 817.854 70.667 C 817.925 70.947 818.049 71.176 818.129 71.176 C 818.21 71.176 818.334 71.408 818.405 71.691 C 818.477 71.974 818.592 72.249 818.661 72.302 C 818.73 72.354 819.019 72.736 819.301 73.148 C 819.583 73.561 820.156 74.237 820.573 74.651 C 820.991 75.063 821.638 75.719 822.014 76.105 C 822.389 76.493 822.809 76.81 822.948 76.81 C 823.086 76.81 823.199 76.896 823.199 77.002 C 823.199 77.108 823.411 77.275 823.669 77.373 C 823.927 77.471 824.139 77.652 824.139 77.775 C 824.139 77.899 824.191 77.945 824.258 77.88 C 824.323 77.813 824.607 77.924 824.889 78.124 C 825.171 78.325 825.454 78.435 825.521 78.369 C 825.586 78.304 825.64 78.342 825.64 78.453 C 825.64 78.566 825.915 78.717 826.251 78.788 C 826.587 78.86 826.945 78.982 827.049 79.058 C 827.316 79.256 828.908 79.626 829.49 79.626 C 829.761 79.626 829.934 79.703 829.877 79.796 C 829.603 80.239 838.665 80.301 838.95 79.86 C 839.014 79.76 839.49 79.611 840.006 79.528 C 841.39 79.306 841.386 79.307 842.133 78.953 C 842.512 78.772 842.928 78.626 843.057 78.626 C 843.186 78.625 843.292 78.55 843.292 78.458 C 843.292 78.366 843.377 78.342 843.479 78.406 C 843.583 78.47 843.667 78.442 843.667 78.344 C 843.667 78.245 843.879 78.112 844.137 78.048 C 844.395 77.982 844.606 77.846 844.606 77.745 C 844.606 77.644 844.765 77.561 844.958 77.561 C 845.152 77.561 845.418 77.433 845.549 77.275 C 845.68 77.117 845.824 77.026 845.869 77.071 C 846.478 77.681 847.078 72.642 846.558 71.285 C 846.411 70.902 846.255 70.911 845.773 71.329 C 845.558 71.516 845.151 71.833 844.872 72.034 C 844.591 72.233 844.207 72.543 844.019 72.721 C 843.831 72.899 843.462 73.098 843.2 73.165 C 842.938 73.23 842.661 73.38 842.586 73.498 C 841.832 74.661 832.222 76.488 832.213 75.47 C 832.213 75.405 831.727 75.291 831.133 75.218 C 830.539 75.144 829.969 75.019 829.865 74.942 C 829.762 74.863 829.402 74.706 829.067 74.593 C 826.939 73.878 823.621 70.52 823.261 68.718 C 823.201 68.417 823.09 68.172 823.014 68.172 C 822.937 68.172 822.766 67.644 822.633 66.998 C 822.5 66.353 822.316 65.726 822.223 65.606 C 822.009 65.331 821.742 61.189 821.824 59.441 C 821.947 56.837 822.108 55.403 822.276 55.403 C 822.371 55.403 822.448 55.235 822.448 55.03 C 822.448 54.482 822.88 52.962 823.035 52.962 C 823.109 52.962 823.225 52.708 823.294 52.397 C 823.506 51.427 825.498 48.658 825.889 48.788 C 825.974 48.817 825.995 48.762 825.937 48.666 C 825.671 48.236 829.335 46.236 830.679 46.077 C 831.207 46.014 831.601 45.899 831.552 45.82 C 831.504 45.742 832.222 45.619 833.151 45.544 C 835.004 45.398 837.846 45.58 837.846 45.846 C 837.846 45.938 838.062 46.014 838.327 46.014 C 838.882 46.014 840.525 46.398 840.662 46.56 C 840.714 46.621 841.306 46.942 841.977 47.274 C 843.517 48.034 844.154 48.427 844.806 49.019 C 846.695 50.73 846.63 50.787 846.661 47.375 C 846.685 44.746 846.665 44.591 846.286 44.324 C 846.066 44.168 845.711 43.895 845.499 43.713 C 845.286 43.533 845.005 43.385 844.873 43.385 C 844.741 43.385 844.521 43.275 844.385 43.14 C 844.159 42.916 843.413 42.616 841.602 42.02 C 841.24 41.902 840.902 41.755 840.851 41.697 C 840.799 41.637 840.63 41.596 840.475 41.606 C 840.32 41.617 840.105 41.559 839.995 41.479 C 839.886 41.399 839.104 41.276 838.258 41.206 C 837.412 41.135 836.719 41.006 836.719 40.917 C 836.719 40.705 832.077 40.707 831.946 40.919 M 944.398 40.965 C 944.342 41.057 943.98 41.132 943.596 41.132 C 943.212 41.132 942.436 41.262 941.87 41.422 C 941.306 41.58 940.529 41.791 940.146 41.89 C 939.762 41.988 939.162 42.231 938.81 42.428 C 938.46 42.625 937.971 42.9 937.724 43.038 C 937.477 43.178 937.128 43.41 936.948 43.554 C 936.766 43.7 936.619 43.771 936.619 43.712 C 936.619 43.574 935.487 44.559 934.387 45.659 C 933.414 46.629 932.682 47.533 932.677 47.765 C 932.676 47.849 932.569 48.036 932.441 48.181 C 931.828 48.863 931.725 49.037 931.831 49.208 C 931.894 49.311 931.858 49.394 931.751 49.394 C 931.643 49.394 931.502 49.606 931.438 49.864 C 931.373 50.122 931.248 50.333 931.16 50.333 C 931.072 50.333 930.905 50.682 930.79 51.109 C 930.675 51.536 930.51 52.021 930.422 52.188 C 930.106 52.785 929.65 54.514 929.742 54.757 C 929.794 54.892 929.751 55.032 929.647 55.067 C 929.541 55.102 929.408 56.109 929.348 57.333 C 929.288 58.544 929.178 59.534 929.104 59.534 C 929.03 59.534 928.958 59.998 928.945 60.567 C 928.932 61.135 928.993 61.599 929.081 61.599 C 929.168 61.599 929.287 62.626 929.345 63.879 C 929.402 65.133 929.524 66.21 929.614 66.273 C 929.703 66.336 929.769 66.515 929.759 66.669 C 929.749 66.825 929.8 67.036 929.87 67.139 C 929.941 67.243 930.057 67.729 930.128 68.219 C 930.199 68.71 930.32 69.111 930.398 69.111 C 930.475 69.111 930.647 69.533 930.779 70.049 C 930.912 70.567 931.097 70.989 931.19 70.989 C 931.284 70.989 931.36 71.11 931.36 71.257 C 931.36 71.405 931.493 71.658 931.656 71.821 C 931.818 71.983 931.899 72.116 931.835 72.116 C 931.772 72.116 931.998 72.488 932.338 72.942 C 932.679 73.396 933.126 74.002 933.332 74.289 C 933.765 74.889 934.38 75.496 934.557 75.496 C 934.623 75.496 934.789 75.704 934.925 75.959 C 935.062 76.214 935.245 76.377 935.332 76.323 C 935.42 76.269 935.492 76.303 935.492 76.397 C 935.492 76.587 937.656 78.124 937.923 78.124 C 938.015 78.124 938.118 78.19 938.152 78.269 C 938.264 78.526 940.702 79.469 941.537 79.578 C 941.982 79.635 942.406 79.776 942.48 79.89 C 942.684 80.203 950.926 80.176 951.031 79.862 C 951.074 79.732 951.304 79.626 951.542 79.626 C 952.16 79.626 954.835 78.705 955.425 78.288 C 955.7 78.095 955.98 77.936 956.046 77.936 C 956.114 77.936 956.438 77.684 956.768 77.374 C 957.098 77.065 957.446 76.812 957.541 76.811 C 957.693 76.81 959.525 74.97 960.267 74.073 C 961.293 72.831 962.907 69.855 962.907 69.204 C 962.907 69.05 962.978 68.923 963.064 68.923 C 963.15 68.923 963.312 68.48 963.424 67.937 C 963.536 67.395 963.724 66.613 963.844 66.201 C 964.204 64.95 964.289 57.837 963.967 55.966 C 963.62 53.956 963.283 52.546 963.092 52.304 C 963.011 52.202 962.843 51.736 962.719 51.272 C 962.595 50.807 962.439 50.384 962.372 50.333 C 962.305 50.281 962.001 49.753 961.694 49.16 C 961.388 48.566 961.068 48.079 960.984 48.079 C 960.9 48.079 960.775 47.935 960.707 47.759 C 960.566 47.391 960.108 46.833 959.098 45.802 C 958.707 45.402 958.454 45.074 958.535 45.074 C 958.616 45.074 958.429 44.912 958.119 44.716 C 957.809 44.519 957.261 44.096 956.899 43.778 C 956.537 43.459 956.136 43.198 956.007 43.197 C 955.878 43.197 955.772 43.113 955.772 43.009 C 955.772 42.907 955.683 42.822 955.575 42.822 C 955.467 42.822 955.029 42.653 954.602 42.446 C 954.173 42.24 953.734 42.071 953.625 42.069 C 953.514 42.068 953.18 41.941 952.881 41.784 C 952.581 41.628 952.293 41.543 952.241 41.596 C 952.188 41.649 952.042 41.605 951.914 41.5 C 951.788 41.396 951.104 41.258 950.396 41.195 C 949.686 41.132 949.008 41.004 948.888 40.909 C 948.611 40.692 944.536 40.743 944.398 40.965 M 1011.731 40.933 C 1011.731 41.042 1011.449 41.132 1011.105 41.132 C 1010.333 41.132 1008.324 41.512 1008.069 41.707 C 1007.966 41.784 1007.565 41.908 1007.177 41.98 C 1006.79 42.054 1006.473 42.179 1006.473 42.259 C 1006.473 42.34 1006.277 42.455 1006.037 42.515 C 1005.797 42.575 1005.21 42.922 1004.733 43.286 C 1004.257 43.65 1003.796 43.949 1003.709 43.949 C 1003.622 43.949 1003.415 44.096 1003.247 44.277 C 1003.079 44.458 1002.616 44.911 1002.22 45.284 C 1001.432 46.023 1000.651 46.902 1000.651 47.048 C 1000.651 47.099 1000.504 47.304 1000.323 47.502 C 999.717 48.169 999.52 48.442 999.333 48.872 C 999.231 49.108 998.899 49.737 998.596 50.269 C 998.294 50.802 997.989 51.541 997.919 51.912 C 997.85 52.283 997.728 52.586 997.648 52.586 C 997.568 52.586 997.443 52.988 997.368 53.478 C 997.295 53.968 997.182 54.455 997.118 54.558 C 996.522 55.511 996.37 63.8 996.911 65.824 C 997.021 66.238 997.204 66.998 997.316 67.514 C 997.428 68.032 997.578 68.496 997.649 68.548 C 997.72 68.599 997.836 68.895 997.908 69.204 C 998.101 70.031 999.537 72.859 1000.04 73.403 C 1000.278 73.661 1000.638 74.136 1000.838 74.46 C 1001.038 74.785 1001.416 75.165 1001.678 75.304 C 1001.94 75.444 1002.154 75.662 1002.154 75.788 C 1002.154 75.913 1002.371 76.157 1002.635 76.332 C 1002.901 76.505 1003.267 76.789 1003.45 76.963 C 1003.853 77.346 1004.343 77.675 1004.971 77.981 C 1005.229 78.108 1005.494 78.287 1005.56 78.379 C 1005.626 78.473 1005.787 78.482 1005.917 78.402 C 1006.066 78.309 1006.109 78.329 1006.031 78.456 C 1005.957 78.575 1006.137 78.708 1006.473 78.781 C 1006.785 78.85 1007.29 79.031 1007.596 79.184 C 1007.902 79.336 1008.471 79.511 1008.861 79.572 C 1009.251 79.634 1009.632 79.777 1009.705 79.89 C 1009.891 80.176 1018.144 80.175 1018.509 79.89 C 1018.653 79.776 1019.3 79.574 1019.946 79.442 C 1020.591 79.309 1021.12 79.127 1021.12 79.038 C 1021.12 78.948 1021.225 78.876 1021.352 78.876 C 1021.703 78.876 1023.633 77.88 1023.805 77.61 C 1023.888 77.48 1024.077 77.373 1024.227 77.373 C 1024.377 77.373 1024.5 77.308 1024.5 77.226 C 1024.5 77.145 1024.732 76.941 1025.016 76.774 C 1025.844 76.283 1028.068 73.893 1028.068 73.493 C 1028.068 73.355 1028.131 73.241 1028.209 73.241 C 1028.416 73.239 1029.945 70.577 1029.945 70.217 C 1029.945 70.114 1030.107 69.674 1030.304 69.242 C 1030.502 68.808 1030.725 68.116 1030.8 67.703 C 1030.877 67.289 1031.003 66.909 1031.081 66.858 C 1031.472 66.6 1031.986 58.397 1031.64 57.938 C 1031.562 57.835 1031.441 57.035 1031.371 56.161 C 1031.302 55.285 1031.173 54.525 1031.088 54.471 C 1031.001 54.416 1030.869 53.99 1030.793 53.526 C 1030.719 53.06 1030.547 52.427 1030.412 52.117 C 1030.276 51.807 1030.069 51.242 1029.951 50.861 C 1029.834 50.481 1029.678 50.143 1029.606 50.111 C 1029.535 50.078 1029.231 49.587 1028.932 49.019 C 1027.891 47.044 1024.418 43.385 1023.583 43.385 C 1023.461 43.385 1023.317 43.271 1023.264 43.13 C 1023.21 42.99 1022.832 42.766 1022.424 42.631 C 1022.017 42.496 1021.683 42.324 1021.683 42.25 C 1021.683 42.174 1021.367 42.054 1020.979 41.98 C 1020.591 41.908 1020.167 41.761 1020.036 41.651 C 1019.904 41.542 1019.745 41.505 1019.682 41.568 C 1019.619 41.63 1019.409 41.597 1019.216 41.494 C 1018.294 41 1011.731 40.509 1011.731 40.933 M 1053.529 40.917 C 1053.475 41.005 1052.789 41.125 1052.004 41.184 C 1051.22 41.244 1050.478 41.371 1050.355 41.468 C 1050.232 41.565 1049.941 41.627 1049.709 41.606 C 1049.477 41.586 1049.287 41.631 1049.287 41.706 C 1049.287 41.78 1048.97 41.9 1048.583 41.973 C 1048.195 42.045 1047.794 42.17 1047.69 42.251 C 1047.588 42.331 1047.186 42.499 1046.799 42.624 C 1046.412 42.749 1046.095 42.92 1046.095 43.006 C 1046.095 43.091 1045.862 43.252 1045.578 43.364 C 1044.722 43.702 1043.844 44.263 1043.971 44.392 C 1044.038 44.458 1044 44.512 1043.888 44.512 C 1043.647 44.512 1041.054 47.049 1040.649 47.683 C 1040.494 47.925 1040.231 48.303 1040.065 48.524 C 1039.898 48.744 1039.702 49.115 1039.629 49.347 C 1039.557 49.58 1039.432 49.769 1039.352 49.769 C 1039.272 49.769 1039.099 50.129 1038.97 50.568 C 1038.839 51.006 1038.664 51.45 1038.582 51.554 C 1038.397 51.785 1037.939 53.371 1037.993 53.592 C 1038.016 53.68 1037.948 53.855 1037.844 53.98 C 1037.741 54.105 1037.6 54.709 1037.531 55.322 C 1037.462 55.934 1037.34 56.521 1037.258 56.625 C 1037.052 56.889 1037.031 64.175 1037.235 64.301 C 1037.327 64.359 1037.457 64.996 1037.524 65.721 C 1037.591 66.444 1037.815 67.464 1038.021 67.987 C 1038.227 68.509 1038.395 69.103 1038.395 69.306 C 1038.395 69.509 1038.463 69.674 1038.544 69.674 C 1038.626 69.674 1038.795 70.054 1038.919 70.519 C 1039.043 70.985 1039.22 71.364 1039.311 71.364 C 1039.402 71.364 1039.589 71.639 1039.726 71.975 C 1039.863 72.311 1040.064 72.684 1040.172 72.803 C 1040.582 73.262 1041.238 74.164 1041.23 74.26 C 1041.207 74.52 1043.146 76.247 1044.408 77.091 C 1044.871 77.401 1045.292 77.705 1045.343 77.77 C 1045.55 78.022 1046.578 78.443 1046.799 78.364 C 1046.928 78.318 1047.033 78.361 1047.033 78.459 C 1047.033 78.672 1048.267 79.152 1049.569 79.446 C 1050.085 79.562 1050.711 79.757 1050.959 79.878 C 1051.565 80.172 1060.884 80.186 1061.076 79.893 C 1061.151 79.781 1061.843 79.587 1062.613 79.462 C 1063.385 79.337 1064.061 79.161 1064.116 79.072 C 1064.171 78.983 1064.534 78.85 1064.922 78.778 C 1065.311 78.705 1065.94 78.486 1066.322 78.291 C 1066.705 78.096 1067.127 77.936 1067.26 77.936 C 1067.393 77.936 1067.502 77.862 1067.502 77.771 C 1067.502 77.679 1067.65 77.555 1067.83 77.495 C 1068.173 77.379 1069.002 76.913 1069.834 76.368 L 1070.322 76.048 L 1070.274 67.744 L 1070.224 59.441 L 1063.37 59.441 L 1056.517 59.441 L 1056.464 61.74 L 1056.411 64.041 L 1060.548 64.041 L 1064.685 64.041 L 1064.685 68.941 C 1064.685 73.683 1064.673 73.844 1064.309 73.939 C 1064.103 73.993 1063.934 74.098 1063.934 74.173 C 1063.934 74.297 1062.596 74.783 1062.15 74.822 C 1062.047 74.831 1061.908 74.912 1061.843 75.002 C 1061.777 75.093 1061.122 75.21 1060.387 75.263 C 1059.652 75.316 1059.052 75.41 1059.052 75.473 C 1059.051 75.538 1057.868 75.598 1056.422 75.611 C 1054.977 75.622 1053.794 75.57 1053.794 75.496 C 1053.794 75.422 1053.323 75.312 1052.748 75.253 C 1052.172 75.193 1051.568 75.033 1051.405 74.898 C 1051.241 74.761 1051.099 74.685 1051.088 74.727 C 1051.011 75.061 1047.96 73.472 1047.201 72.703 C 1047.036 72.535 1046.698 72.213 1046.45 71.987 C 1046.203 71.762 1045.89 71.443 1045.755 71.279 C 1045.312 70.742 1043.842 67.749 1043.842 67.387 C 1043.842 67.192 1043.719 66.74 1043.569 66.382 C 1043.313 65.769 1042.848 61.906 1042.858 60.473 C 1042.868 59.077 1043.318 55.306 1043.481 55.246 C 1043.576 55.212 1043.653 54.981 1043.653 54.733 C 1043.653 54.129 1044.074 52.586 1044.237 52.586 C 1044.359 52.586 1044.822 51.459 1044.77 51.289 C 1044.756 51.246 1044.88 51.137 1045.045 51.045 C 1045.209 50.952 1045.343 50.797 1045.343 50.699 C 1045.343 50.601 1045.491 50.364 1045.672 50.174 C 1045.853 49.983 1046.169 49.589 1046.377 49.298 C 1046.906 48.551 1047.169 48.309 1047.598 48.173 C 1047.804 48.107 1047.972 47.983 1047.972 47.898 C 1047.972 47.695 1049.167 46.99 1049.765 46.84 C 1050.018 46.777 1050.225 46.66 1050.225 46.58 C 1050.225 46.406 1051.704 46.014 1052.359 46.014 C 1052.614 46.014 1052.857 45.913 1052.898 45.789 C 1053 45.483 1059.439 45.451 1059.82 45.755 C 1059.966 45.87 1060.655 46.069 1061.351 46.199 C 1062.049 46.327 1062.619 46.507 1062.619 46.599 C 1062.619 46.69 1062.708 46.765 1062.817 46.765 C 1063.047 46.765 1064.646 47.441 1065.06 47.714 C 1065.215 47.816 1065.617 48.025 1065.953 48.179 C 1066.288 48.334 1066.562 48.543 1066.562 48.646 C 1066.562 48.747 1066.678 48.831 1066.82 48.831 C 1066.961 48.831 1067.509 49.174 1068.037 49.595 C 1069.34 50.632 1069.379 50.567 1069.379 47.386 C 1069.379 44.29 1069.407 44.353 1067.715 43.545 C 1067.236 43.317 1066.782 43.038 1066.706 42.928 C 1066.631 42.819 1066.567 42.802 1066.566 42.892 C 1066.563 42.982 1066.457 42.969 1066.328 42.862 C 1066.198 42.754 1065.776 42.608 1065.389 42.536 C 1065.002 42.464 1064.685 42.339 1064.685 42.259 C 1064.685 42.178 1064.367 42.054 1063.981 41.98 C 1063.593 41.908 1063.192 41.783 1063.089 41.703 C 1062.855 41.521 1060.233 41.132 1059.242 41.132 C 1058.84 41.132 1058.458 41.048 1058.394 40.944 C 1058.252 40.714 1053.67 40.688 1053.529 40.917 M 1136.511 40.943 C 1136.304 41.032 1135.739 41.112 1135.255 41.119 C 1134.348 41.132 1131.301 42.01 1131.19 42.289 C 1131.156 42.376 1131.018 42.446 1130.882 42.446 C 1130.499 42.446 1128.69 43.731 1128.01 44.486 C 1127.672 44.861 1127.186 45.395 1126.93 45.674 C 1126.674 45.951 1126.465 46.222 1126.465 46.278 C 1126.465 46.333 1126.254 46.84 1125.995 47.404 C 1125.737 47.969 1125.526 48.685 1125.526 48.995 C 1125.526 49.306 1125.447 49.608 1125.351 49.667 C 1125.136 49.801 1125.119 53.859 1125.335 53.992 C 1125.42 54.045 1125.549 54.511 1125.62 55.027 C 1125.691 55.543 1125.819 55.966 1125.903 55.966 C 1125.989 55.966 1126.116 56.227 1126.186 56.546 C 1126.308 57.101 1128.391 59.534 1128.744 59.534 C 1128.835 59.534 1129.257 59.785 1129.68 60.093 C 1130.105 60.401 1130.738 60.706 1131.087 60.771 C 1131.437 60.837 1131.723 60.959 1131.723 61.044 C 1131.723 61.128 1132.187 61.301 1132.755 61.428 C 1133.323 61.555 1133.788 61.72 1133.788 61.793 C 1133.788 61.866 1134.232 61.985 1134.774 62.056 C 1135.316 62.127 1136.182 62.3 1136.698 62.441 C 1137.215 62.582 1138.145 62.754 1138.765 62.824 C 1139.384 62.894 1139.976 63.018 1140.078 63.1 C 1140.182 63.182 1140.752 63.349 1141.346 63.471 C 1141.94 63.592 1142.426 63.764 1142.426 63.852 C 1142.426 63.94 1142.685 64.068 1143.002 64.138 C 1143.319 64.208 1143.624 64.383 1143.679 64.528 C 1143.735 64.673 1143.864 64.792 1143.965 64.792 C 1144.239 64.792 1145.243 65.787 1145.243 66.059 C 1145.243 66.188 1145.328 66.294 1145.43 66.294 C 1145.534 66.294 1145.618 66.404 1145.618 66.539 C 1145.618 66.673 1145.717 66.881 1145.838 67.003 C 1146.265 67.43 1146.407 71.525 1145.985 71.265 C 1145.912 71.22 1145.801 71.439 1145.738 71.752 C 1145.576 72.557 1143.64 74.467 1142.797 74.65 C 1142.438 74.727 1142.094 74.871 1142.032 74.969 C 1141.579 75.678 1132.815 75.656 1132.286 74.943 C 1132.234 74.873 1131.706 74.703 1131.112 74.563 C 1130.518 74.423 1130.033 74.248 1130.033 74.172 C 1130.033 74.097 1129.745 73.982 1129.394 73.915 C 1129.042 73.85 1128.653 73.671 1128.526 73.519 C 1128.4 73.366 1128.217 73.243 1128.12 73.243 C 1128.023 73.243 1127.484 73.025 1126.922 72.759 C 1125.301 71.992 1125.312 71.975 1125.314 75.103 C 1125.316 77.96 1125.364 78.115 1126.219 78.121 C 1126.445 78.123 1126.683 78.21 1126.749 78.315 C 1126.813 78.421 1126.939 78.461 1127.028 78.406 C 1127.117 78.351 1127.24 78.387 1127.301 78.486 C 1127.363 78.585 1127.791 78.723 1128.253 78.793 C 1128.716 78.861 1129.093 78.986 1129.093 79.069 C 1129.093 79.152 1129.854 79.328 1130.783 79.46 C 1131.713 79.591 1132.473 79.75 1132.473 79.813 C 1132.473 80.159 1142.538 80.235 1142.762 79.89 C 1142.835 79.777 1143.304 79.63 1143.803 79.563 C 1144.302 79.497 1145.02 79.31 1145.398 79.147 C 1146.864 78.52 1147.727 78.041 1147.817 77.806 C 1147.869 77.672 1148.017 77.561 1148.145 77.561 C 1148.336 77.561 1149.69 76.188 1150.276 75.401 C 1150.676 74.865 1151.207 73.823 1151.329 73.333 C 1151.406 73.026 1151.568 72.715 1151.689 72.641 C 1151.836 72.55 1151.93 71.552 1151.975 69.613 C 1152.055 66.164 1151.69 64.662 1150.279 62.633 C 1149.829 61.985 1148.54 60.661 1148.358 60.661 C 1148.24 60.661 1148.003 60.513 1147.832 60.332 C 1147.388 59.861 1146.97 59.534 1146.812 59.534 C 1146.737 59.534 1146.333 59.376 1145.912 59.183 C 1145.492 58.99 1144.853 58.729 1144.492 58.601 C 1144.13 58.474 1143.666 58.298 1143.458 58.211 C 1142.726 57.904 1138.882 57.112 1138.06 57.101 C 1137.776 57.096 1137.543 57.023 1137.543 56.936 C 1137.543 56.85 1137.438 56.773 1137.309 56.764 C 1136.492 56.708 1134.573 56.249 1134.262 56.035 C 1134.058 55.894 1133.755 55.779 1133.587 55.779 C 1132.987 55.779 1131.374 54.208 1131.22 53.475 C 1131.159 53.189 1131.049 52.916 1130.975 52.87 C 1130.835 52.784 1130.886 51.184 1131.069 49.883 C 1131.126 49.481 1131.339 48.919 1131.541 48.634 C 1131.744 48.348 1131.91 48.031 1131.91 47.928 C 1131.91 47.768 1132.936 47.031 1133.503 46.785 C 1133.604 46.741 1133.797 46.595 1133.931 46.46 C 1134.066 46.326 1134.49 46.158 1134.874 46.088 C 1135.257 46.017 1135.632 45.866 1135.706 45.753 C 1135.907 45.441 1142.274 45.466 1142.379 45.78 C 1142.422 45.908 1142.666 46.014 1142.922 46.014 C 1143.535 46.014 1145.101 46.397 1145.328 46.603 C 1145.426 46.692 1145.663 46.765 1145.856 46.765 C 1146.049 46.765 1146.667 46.976 1147.232 47.234 C 1147.796 47.493 1148.34 47.704 1148.441 47.704 C 1148.541 47.704 1148.623 47.775 1148.623 47.861 C 1148.623 47.946 1148.728 48.017 1148.857 48.018 C 1148.987 48.019 1149.282 48.081 1149.514 48.157 L 1149.937 48.292 L 1149.937 45.576 L 1149.937 42.858 L 1149.345 42.652 C 1149.021 42.539 1148.598 42.446 1148.407 42.446 C 1148.215 42.446 1148.06 42.37 1148.06 42.277 C 1148.06 42.183 1147.553 42.049 1146.933 41.977 C 1146.313 41.905 1145.806 41.783 1145.806 41.708 C 1145.806 41.632 1145.7 41.565 1145.571 41.557 C 1145.442 41.55 1144.745 41.453 1144.022 41.342 C 1143.299 41.23 1142.349 41.138 1141.909 41.135 C 1141.471 41.133 1141.111 41.058 1141.111 40.968 C 1141.111 40.754 1136.999 40.731 1136.511 40.943 M 748.744 41.694 C 748.679 41.8 748.645 42.857 748.669 44.043 L 748.713 46.202 L 755.441 46.202 L 762.171 46.202 L 762.171 62.821 L 762.171 79.439 L 764.988 79.439 L 767.804 79.439 L 767.804 62.821 L 767.804 46.202 L 774.47 46.202 L 781.136 46.202 L 781.136 43.859 L 781.136 41.515 L 765 41.51 C 754.236 41.505 748.823 41.567 748.744 41.694 M 785.582 41.631 C 785.512 41.701 785.455 50.236 785.455 60.598 L 785.455 79.439 L 797.849 79.439 L 810.242 79.439 L 810.242 77.091 C 810.242 75.8 810.179 74.755 810.101 74.767 C 810.025 74.779 805.672 74.779 800.431 74.767 L 790.901 74.744 L 790.901 68.172 L 790.901 61.599 L 799.915 61.599 L 808.928 61.599 L 808.928 59.346 L 808.928 57.093 L 799.915 57.093 L 790.901 57.093 L 790.901 51.647 L 790.901 46.202 L 800.296 46.202 L 809.691 46.202 L 809.638 43.901 L 809.585 41.601 L 797.647 41.552 C 791.081 41.526 785.651 41.561 785.582 41.631 M 853.996 60.487 L 853.996 79.439 L 856.718 79.439 L 859.441 79.439 L 859.441 70.519 L 859.441 61.599 L 868.454 61.599 L 877.468 61.599 L 877.468 70.519 L 877.468 79.439 L 880.284 79.439 L 883.101 79.439 L 883.101 60.466 L 883.101 41.491 L 880.284 41.517 L 877.468 41.542 L 877.468 49.317 L 877.468 57.093 L 868.457 57.093 L 859.445 57.093 L 859.396 49.347 L 859.347 41.601 L 856.671 41.568 L 853.996 41.535 L 853.996 60.487 M 892.678 60.482 L 892.678 79.439 L 895.401 79.439 L 898.123 79.439 L 898.138 64.182 C 898.147 55.79 898.201 49.052 898.261 49.206 C 898.319 49.361 898.418 49.53 898.48 49.582 C 898.542 49.633 898.918 50.31 899.315 51.084 C 901.464 55.276 901.882 56.078 902.015 56.257 C 902.095 56.365 902.415 56.956 902.725 57.571 C 903.034 58.187 903.33 58.731 903.381 58.783 C 903.433 58.835 903.713 59.384 904.005 60.004 C 904.295 60.624 904.612 61.257 904.71 61.412 C 904.807 61.567 904.989 61.905 905.115 62.163 C 905.243 62.422 905.389 62.675 905.443 62.726 C 905.497 62.778 905.956 63.644 906.464 64.652 C 906.971 65.658 907.447 66.482 907.519 66.482 C 907.592 66.482 907.759 66.862 907.888 67.327 C 908.018 67.792 908.19 68.172 908.27 68.172 C 908.349 68.172 908.51 68.405 908.626 68.688 C 908.873 69.293 910.03 71.465 910.281 71.794 C 910.376 71.919 910.57 72.318 910.709 72.679 C 910.85 73.04 911.012 73.379 911.07 73.43 C 911.127 73.481 911.428 74.031 911.738 74.651 C 912.048 75.271 912.359 75.821 912.43 75.874 C 912.597 76.002 913.028 77.048 912.989 77.232 C 912.972 77.31 913.029 77.373 913.116 77.373 C 913.247 77.373 913.726 78.166 913.797 78.5 C 913.993 79.418 914.084 79.439 917.942 79.439 L 921.597 79.439 L 921.597 60.491 L 921.597 41.543 L 918.873 41.517 L 916.15 41.491 L 916.15 56.616 C 916.15 64.934 916.079 71.74 915.992 71.74 C 915.906 71.74 915.723 71.402 915.587 70.989 C 915.45 70.576 915.285 70.238 915.22 70.238 C 915.153 70.238 914.992 69.941 914.861 69.581 C 914.731 69.219 914.545 68.923 914.449 68.923 C 914.352 68.923 914.273 68.761 914.273 68.561 C 914.273 68.362 914.155 68.08 914.009 67.936 C 913.865 67.792 913.474 67.089 913.141 66.373 C 912.808 65.659 912.475 65.031 912.401 64.979 C 912.326 64.929 912.208 64.654 912.138 64.37 C 912.069 64.086 911.936 63.853 911.843 63.853 C 911.749 63.853 911.576 63.558 911.456 63.196 C 911.337 62.834 911.168 62.539 911.081 62.539 C 910.993 62.539 910.867 62.287 910.8 61.978 C 910.732 61.669 910.613 61.377 910.536 61.329 C 910.458 61.282 910.107 60.668 909.755 59.966 C 909.404 59.264 909.072 58.646 909.018 58.596 C 908.908 58.49 908.19 57.054 907.892 56.342 C 907.783 56.084 907.533 55.619 907.335 55.309 C 907.137 54.999 906.57 53.942 906.075 52.962 C 905.582 51.981 905.076 51.073 904.952 50.945 C 904.828 50.817 904.629 50.416 904.509 50.053 C 904.389 49.69 904.22 49.394 904.133 49.394 C 904.046 49.394 903.92 49.146 903.854 48.844 C 903.787 48.541 903.617 48.197 903.475 48.079 C 903.334 47.962 903.163 47.618 903.096 47.315 C 903.03 47.012 902.904 46.765 902.816 46.765 C 902.727 46.765 902.548 46.469 902.417 46.107 C 902.286 45.746 902.125 45.451 902.06 45.451 C 901.993 45.451 901.828 45.113 901.691 44.699 C 901.555 44.287 901.373 43.949 901.286 43.949 C 901.199 43.949 901.128 43.828 901.128 43.681 C 901.128 43.533 901.013 43.298 900.873 43.157 C 900.733 43.017 900.506 42.591 900.369 42.213 L 900.12 41.523 L 896.398 41.524 L 892.678 41.525 L 892.678 60.482 M 971.734 60.491 L 971.734 79.439 L 983.757 79.439 L 995.781 79.439 L 995.728 77.139 L 995.676 74.838 L 986.522 74.789 L 977.367 74.741 L 977.367 58.117 L 977.367 41.491 L 974.551 41.517 L 971.734 41.542 L 971.734 60.491 M 1079.273 41.628 C 1079.203 41.699 1079.144 50.238 1079.144 60.603 L 1079.144 79.449 L 1081.913 79.396 L 1084.684 79.345 L 1084.684 60.473 L 1084.684 41.601 L 1082.044 41.549 C 1080.592 41.521 1079.346 41.556 1079.273 41.628 M 1094.479 41.632 C 1094.41 41.701 1094.354 50.236 1094.354 60.598 L 1094.354 79.439 L 1106.66 79.439 L 1118.965 79.439 L 1118.912 77.139 L 1118.859 74.838 L 1109.424 74.789 L 1099.988 74.741 L 1099.988 68.17 L 1099.988 61.599 L 1108.907 61.599 L 1117.826 61.599 L 1117.826 59.346 L 1117.826 57.093 L 1108.907 57.093 L 1099.988 57.093 L 1099.988 51.647 L 1099.988 46.202 L 1109.283 46.202 L 1118.578 46.202 L 1118.578 43.854 L 1118.578 41.507 L 1106.591 41.507 C 1099.999 41.507 1094.548 41.564 1094.479 41.632 M 949.723 45.799 C 949.762 45.917 949.971 46.014 950.186 46.014 C 950.675 46.014 952.955 47.109 952.955 47.345 C 952.955 47.439 953.049 47.516 953.162 47.516 C 953.397 47.516 955.201 49.222 955.205 49.449 C 955.208 49.53 955.378 49.779 955.584 50 C 955.791 50.222 955.96 50.506 955.96 50.63 C 955.96 50.754 956.087 50.905 956.242 50.965 C 956.396 51.023 956.524 51.234 956.524 51.431 C 956.524 51.628 956.65 51.894 956.805 52.023 C 956.96 52.151 957.087 52.382 957.087 52.534 C 957.087 52.686 957.21 53.077 957.362 53.403 C 958.231 55.274 958.92 63.962 958.218 64.195 C 958.112 64.231 958.023 64.528 958.021 64.854 C 958.015 65.528 957.726 66.952 957.478 67.514 C 956.941 68.741 956.257 70.157 956.162 70.238 C 956.102 70.289 955.927 70.585 955.772 70.895 C 955.441 71.558 953.23 73.753 952.735 73.91 C 952.547 73.969 952.392 74.082 952.392 74.16 C 952.392 74.386 950.523 75.09 949.2 75.363 C 947.376 75.738 943.419 75.494 942.75 74.964 C 942.631 74.871 942.217 74.691 941.83 74.566 C 941.442 74.441 941.125 74.262 941.125 74.166 C 941.125 74.072 941.019 73.993 940.891 73.993 C 940.555 73.993 938.923 72.572 938.26 71.703 C 937.354 70.516 936.994 69.955 936.994 69.732 C 936.994 69.597 936.923 69.486 936.836 69.486 C 936.688 69.486 936.202 68.135 936.252 67.866 C 936.265 67.8 936.181 67.687 936.068 67.617 C 935.954 67.546 935.767 66.945 935.653 66.281 C 935.538 65.617 935.35 64.955 935.234 64.81 C 934.968 64.479 934.944 56.941 935.207 56.529 C 935.306 56.375 935.411 56.079 935.439 55.872 C 935.546 55.094 935.922 53.612 936.059 53.431 C 936.136 53.328 936.258 52.969 936.33 52.633 C 936.402 52.297 936.532 52.023 936.619 52.023 C 936.706 52.023 936.878 51.717 937.002 51.344 C 937.124 50.97 937.363 50.512 937.532 50.325 C 937.701 50.137 938.051 49.712 938.309 49.378 C 938.567 49.046 938.932 48.638 939.119 48.474 C 939.307 48.309 939.771 47.899 940.152 47.563 C 940.533 47.227 940.936 46.954 941.05 46.953 C 941.163 46.953 941.443 46.79 941.672 46.592 C 941.9 46.394 942.421 46.174 942.828 46.106 C 943.233 46.038 943.567 45.909 943.567 45.821 C 943.567 45.425 949.591 45.403 949.723 45.799 M 1017.155 45.783 C 1017.218 45.88 1017.584 46.017 1017.968 46.088 C 1018.353 46.158 1018.79 46.34 1018.941 46.491 C 1019.092 46.642 1019.335 46.765 1019.482 46.765 C 1019.628 46.765 1019.922 46.913 1020.136 47.093 C 1020.967 47.796 1021.23 48.005 1021.677 48.318 C 1021.933 48.497 1022.077 48.643 1022 48.643 C 1021.851 48.643 1021.985 48.818 1022.858 49.769 C 1023.143 50.079 1023.512 50.671 1023.676 51.084 C 1023.842 51.498 1024.053 51.836 1024.145 51.836 C 1024.236 51.836 1024.312 51.985 1024.312 52.169 C 1024.312 52.353 1024.428 52.669 1024.57 52.873 C 1024.831 53.25 1025.313 55.039 1025.657 56.906 C 1025.928 58.378 1025.767 65.152 1025.456 65.344 C 1025.326 65.426 1025.225 65.566 1025.232 65.658 C 1025.266 66.064 1024.785 67.984 1024.65 67.984 C 1024.567 67.984 1024.5 68.109 1024.5 68.261 C 1024.5 68.577 1023.47 70.554 1023.072 71.004 C 1022.928 71.167 1022.81 71.362 1022.81 71.439 C 1022.81 72.017 1019.189 74.744 1018.421 74.744 C 1018.252 74.744 1018.115 74.815 1018.115 74.902 C 1018.115 75.204 1015.943 75.553 1013.937 75.574 C 1012.827 75.585 1011.918 75.54 1011.918 75.476 C 1011.918 75.41 1011.585 75.312 1011.176 75.257 C 1010.344 75.145 1008.538 74.386 1008.538 74.147 C 1008.538 74.063 1008.422 73.993 1008.28 73.993 C 1008.137 73.993 1007.914 73.864 1007.783 73.707 C 1007.653 73.55 1007.514 73.453 1007.475 73.493 C 1007.293 73.674 1004.971 71.03 1004.971 70.641 C 1004.971 70.54 1004.905 70.428 1004.822 70.394 C 1004.581 70.292 1003.681 68.642 1003.589 68.131 C 1003.541 67.87 1003.409 67.499 1003.295 67.305 C 1002.704 66.297 1001.973 57.469 1002.481 57.469 C 1002.567 57.469 1002.65 57.279 1002.665 57.046 C 1002.721 56.195 1003.171 53.901 1003.282 53.901 C 1003.345 53.901 1003.505 53.478 1003.638 52.962 C 1003.77 52.445 1003.956 52.023 1004.049 52.023 C 1004.143 52.023 1004.22 51.883 1004.22 51.712 C 1004.22 51.541 1004.431 51.125 1004.689 50.785 C 1004.947 50.447 1005.159 50.102 1005.159 50.017 C 1005.164 49.477 1008.3 46.765 1008.92 46.765 C 1009.02 46.765 1009.101 46.687 1009.101 46.591 C 1009.101 46.495 1009.567 46.313 1010.135 46.185 C 1010.702 46.058 1011.168 45.888 1011.168 45.808 C 1011.168 45.45 1016.923 45.426 1017.155 45.783" stroke="none" fill="#d4d4d4" fill-rule="evenodd" style=""></path>
  <path id="path1" d="M 710.079 62.715 L 710.079 123.445 L 713.068 123.445 L 716.058 123.445 L 716.058 62.682 L 716.058 1.916 L 713.068 1.949 L 710.079 1.983 L 710.079 62.715 M 1078.87 88.078 C 1078.87 90.177 1078.897 90.997 1078.929 89.901 C 1078.961 88.805 1078.961 87.087 1078.929 86.085 C 1078.896 85.082 1078.87 85.979 1078.87 88.078 M 820.905 89.022 C 821.156 89.089 821.567 89.089 821.818 89.022 C 822.069 88.956 821.864 88.902 821.361 88.902 C 820.859 88.902 820.654 88.956 820.905 89.022 M 1016.894 89.022 C 1017.146 89.089 1017.557 89.089 1017.808 89.022 C 1018.059 88.956 1017.854 88.902 1017.352 88.902 C 1016.849 88.902 1016.643 88.956 1016.894 89.022" stroke="none" fill="#b4c4dc" fill-rule="evenodd" style=""></path>
  <path id="path2" d="" stroke="none" fill="#d8ccd8" fill-rule="evenodd"></path>
  <path id="path3" d="" stroke="none" fill="#d8ccd8" fill-rule="evenodd"></path>
  <path id="path4" d="" stroke="none" fill="#d8ccd8" fill-rule="evenodd"></path>
</svg>
